<svg width="24" height="24" viewBox="0 0 24 24" fill="none" xmlns="http://www.w3.org/2000/svg">
<mask id="path-1-inside-1_1936_35311" fill="white">
<path fill-rule="evenodd" clip-rule="evenodd" d="M3.75 16.5H8.25V15H3.75V7.5H8.25V6H3.75C3.3523 6.0004 2.971 6.15856 2.68978 6.43978C2.40856 6.721 2.2504 7.1023 2.25 7.5V15C2.25046 15.3977 2.40864 15.779 2.68984 16.0602C2.97105 16.3414 3.35232 16.4995 3.75 16.5ZM14.25 16.5H11.25C10.8523 16.4995 10.4711 16.3414 10.1898 16.0602C9.90864 15.779 9.75046 15.3977 9.75 15V7.5C9.7504 7.1023 9.90856 6.721 10.1898 6.43978C10.471 6.15856 10.8523 6.0004 11.25 6H14.25C14.6477 6.0004 15.029 6.15856 15.3102 6.43978C15.5914 6.721 15.7496 7.1023 15.75 7.5V15C15.7495 15.3977 15.5914 15.779 15.3102 16.0602C15.029 16.3414 14.6477 16.4995 14.25 16.5ZM11.25 7.5V15H14.25V7.5H11.25ZM21.75 19.5H17.25V16.5C17.2504 16.1023 17.4086 15.721 17.6898 15.4398C17.971 15.1586 18.3523 15.0004 18.75 15H20.25V13.5H17.25V12H20.25C20.6477 12.0005 21.0289 12.1586 21.3102 12.4398C21.5914 12.721 21.7495 13.1023 21.75 13.5V15C21.7495 15.3977 21.5914 15.779 21.3102 16.0602C21.0289 16.3414 20.6477 16.4995 20.25 16.5H18.75V18H21.75V19.5Z"/>
</mask>
<path fill-rule="evenodd" clip-rule="evenodd" d="M3.75 16.5H8.25V15H3.75V7.5H8.25V6H3.75C3.3523 6.0004 2.971 6.15856 2.68978 6.43978C2.40856 6.721 2.2504 7.1023 2.25 7.5V15C2.25046 15.3977 2.40864 15.779 2.68984 16.0602C2.97105 16.3414 3.35232 16.4995 3.75 16.5ZM14.25 16.5H11.25C10.8523 16.4995 10.4711 16.3414 10.1898 16.0602C9.90864 15.779 9.75046 15.3977 9.75 15V7.5C9.7504 7.1023 9.90856 6.721 10.1898 6.43978C10.471 6.15856 10.8523 6.0004 11.25 6H14.25C14.6477 6.0004 15.029 6.15856 15.3102 6.43978C15.5914 6.721 15.7496 7.1023 15.75 7.5V15C15.7495 15.3977 15.5914 15.779 15.3102 16.0602C15.029 16.3414 14.6477 16.4995 14.25 16.5ZM11.25 7.5V15H14.25V7.5H11.25ZM21.75 19.5H17.25V16.5C17.2504 16.1023 17.4086 15.721 17.6898 15.4398C17.971 15.1586 18.3523 15.0004 18.75 15H20.25V13.5H17.25V12H20.25C20.6477 12.0005 21.0289 12.1586 21.3102 12.4398C21.5914 12.721 21.7495 13.1023 21.75 13.5V15C21.7495 15.3977 21.5914 15.779 21.3102 16.0602C21.0289 16.3414 20.6477 16.4995 20.25 16.5H18.75V18H21.75V19.5Z" fill="#868686"/>
<path d="M8.25 16.5V17.5H9.25V16.5H8.25ZM3.75 16.5L3.74885 17.5H3.75V16.5ZM8.25 15H9.25V14H8.25V15ZM3.75 15H2.75V16H3.75V15ZM3.75 7.5V6.5H2.75V7.5H3.75ZM8.25 7.5V8.5H9.25V7.5H8.25ZM8.25 6H9.25V5H8.25V6ZM3.75 6V5L3.749 5L3.75 6ZM2.25 7.5L1.25 7.499V7.5H2.25ZM2.25 15H1.25L1.25 15.0011L2.25 15ZM2.68984 16.0602L3.39695 15.353L3.39695 15.353L2.68984 16.0602ZM11.25 16.5L11.2489 17.5H11.25V16.5ZM14.25 16.5V17.5L14.2511 17.5L14.25 16.5ZM9.75 15H8.75L8.75 15.0011L9.75 15ZM9.75 7.5L8.75 7.499V7.5H9.75ZM11.25 6V5L11.249 5L11.25 6ZM14.25 6L14.251 5H14.25V6ZM15.3102 6.43978L16.0173 5.73267L16.0173 5.73267L15.3102 6.43978ZM15.75 7.5H16.75L16.75 7.499L15.75 7.5ZM15.75 15L16.75 15.0011V15H15.75ZM15.3102 16.0602L14.6031 15.353L14.603 15.3531L15.3102 16.0602ZM11.25 15H10.25V16H11.25V15ZM11.25 7.5V6.5H10.25V7.5H11.25ZM14.25 15V16H15.25V15H14.25ZM14.25 7.5H15.25V6.5H14.25V7.5ZM17.25 19.5H16.25V20.5H17.25V19.5ZM21.75 19.5V20.5H22.75V19.5H21.75ZM17.25 16.5L16.25 16.499V16.5H17.25ZM17.6898 15.4398L16.9827 14.7327L16.9827 14.7327L17.6898 15.4398ZM18.75 15V14L18.749 14L18.75 15ZM20.25 15V16H21.25V15H20.25ZM20.25 13.5H21.25V12.5H20.25V13.5ZM17.25 13.5H16.25V14.5H17.25V13.5ZM17.25 12V11H16.25V12H17.25ZM20.25 12L20.2511 11H20.25V12ZM21.75 13.5H22.75V13.4989L21.75 13.5ZM21.75 15L22.75 15.0011V15H21.75ZM21.3102 16.0602L20.6031 15.353L20.603 15.353L21.3102 16.0602ZM20.25 16.5V17.5L20.2511 17.5L20.25 16.5ZM18.75 16.5V15.5H17.75V16.5H18.75ZM18.75 18H17.75V19H18.75V18ZM21.75 18H22.75V17H21.75V18ZM8.25 15.5H3.75V17.5H8.25V15.5ZM7.25 15V16.5H9.25V15H7.25ZM3.75 16H8.25V14H3.75V16ZM2.75 7.5V15H4.75V7.5H2.75ZM8.25 6.5H3.75V8.5H8.25V6.5ZM7.25 6V7.5H9.25V6H7.25ZM3.75 7H8.25V5H3.75V7ZM3.39689 7.14689C3.49081 7.05296 3.61817 7.00013 3.751 7L3.749 5C3.08643 5.00066 2.45118 5.26416 1.98267 5.73267L3.39689 7.14689ZM3.25 7.501C3.25013 7.36817 3.30296 7.24081 3.39689 7.14689L1.98267 5.73267C1.51416 6.20118 1.25066 6.83643 1.25 7.499L3.25 7.501ZM3.25 15V7.5H1.25V15H3.25ZM3.39695 15.353C3.303 15.2591 3.25015 15.1317 3.25 14.9989L1.25 15.0011C1.25076 15.6637 1.51428 16.2988 1.98274 16.7673L3.39695 15.353ZM3.75115 15.5C3.61828 15.4998 3.4909 15.447 3.39695 15.353L1.98274 16.7673C2.4512 17.2357 3.08635 17.4992 3.74885 17.5L3.75115 15.5ZM11.25 17.5H14.25V15.5H11.25V17.5ZM9.48274 16.7673C9.9512 17.2357 10.5863 17.4992 11.2489 17.5L11.2511 15.5C11.1183 15.4998 10.9909 15.447 10.897 15.353L9.48274 16.7673ZM8.75 15.0011C8.75076 15.6637 9.01428 16.2988 9.48274 16.7673L10.897 15.353C10.803 15.2591 10.7502 15.1317 10.75 14.9989L8.75 15.0011ZM8.75 7.5V15H10.75V7.5H8.75ZM9.48267 5.73267C9.01416 6.20118 8.75066 6.83643 8.75 7.499L10.75 7.501C10.7501 7.36817 10.803 7.24081 10.8969 7.14689L9.48267 5.73267ZM11.249 5C10.5864 5.00066 9.95118 5.26416 9.48267 5.73267L10.8969 7.14689C10.9908 7.05296 11.1182 7.00013 11.251 7L11.249 5ZM14.25 5H11.25V7H14.25V5ZM16.0173 5.73267C15.5488 5.26416 14.9136 5.00066 14.251 5L14.249 7C14.3818 7.00013 14.5092 7.05296 14.6031 7.14689L16.0173 5.73267ZM16.75 7.499C16.7493 6.83643 16.4858 6.20118 16.0173 5.73267L14.6031 7.14688C14.697 7.24081 14.7499 7.36817 14.75 7.501L16.75 7.499ZM16.75 15V7.5H14.75V15H16.75ZM16.0173 16.7673C16.4857 16.2988 16.7492 15.6637 16.75 15.0011L14.75 14.9989C14.7498 15.1317 14.697 15.2591 14.6031 15.353L16.0173 16.7673ZM14.2511 17.5C14.9137 17.4992 15.5488 17.2357 16.0173 16.7673L14.603 15.3531C14.5091 15.447 14.3817 15.4998 14.2489 15.5L14.2511 17.5ZM12.25 15V7.5H10.25V15H12.25ZM14.25 14H11.25V16H14.25V14ZM13.25 7.5V15H15.25V7.5H13.25ZM11.25 8.5H14.25V6.5H11.25V8.5ZM17.25 20.5H21.75V18.5H17.25V20.5ZM16.25 16.5V19.5H18.25V16.5H16.25ZM16.9827 14.7327C16.5142 15.2012 16.2507 15.8364 16.25 16.499L18.25 16.501C18.2501 16.3682 18.303 16.2408 18.3969 16.1469L16.9827 14.7327ZM18.749 14C18.0864 14.0007 17.4512 14.2642 16.9827 14.7327L18.3969 16.1469C18.4908 16.053 18.6182 16.0001 18.751 16L18.749 14ZM20.25 14H18.75V16H20.25V14ZM19.25 13.5V15H21.25V13.5H19.25ZM17.25 14.5H20.25V12.5H17.25V14.5ZM16.25 12V13.5H18.25V12H16.25ZM20.25 11H17.25V13H20.25V11ZM22.0173 11.7327C21.5488 11.2643 20.9137 11.0008 20.2511 11L20.2489 13C20.3817 13.0002 20.5091 13.053 20.6031 13.147L22.0173 11.7327ZM22.75 13.4989C22.7492 12.8363 22.4857 12.2012 22.0173 11.7327L20.6031 13.147C20.697 13.2409 20.7498 13.3683 20.75 13.5011L22.75 13.4989ZM22.75 15V13.5H20.75V15H22.75ZM22.0173 16.7673C22.4857 16.2988 22.7492 15.6637 22.75 15.0011L20.75 14.9989C20.7498 15.1317 20.697 15.2591 20.6031 15.353L22.0173 16.7673ZM20.2511 17.5C20.9137 17.4992 21.5488 17.2357 22.0173 16.7673L20.603 15.353C20.5091 15.447 20.3817 15.4998 20.2489 15.5L20.2511 17.5ZM18.75 17.5H20.25V15.5H18.75V17.5ZM19.75 18V16.5H17.75V18H19.75ZM21.75 17H18.75V19H21.75V17ZM22.75 19.5V18H20.75V19.5H22.75Z" fill="#868686" mask="url(#path-1-inside-1_1936_35311)"/>
</svg>
