<svg width="152" height="152" viewBox="0 0 152 152" fill="none" xmlns="http://www.w3.org/2000/svg">
<path d="M76 126.24C104.697 126.24 127.96 117.114 127.96 105.856C127.96 94.5987 104.697 85.4727 76 85.4727C47.3033 85.4727 24.0399 94.5987 24.0399 105.856C24.0399 117.114 47.3033 126.24 76 126.24Z" fill="#E7EEFB"/>
<path d="M61.4136 25.7598L65.2179 30.9461L54.7974 96.2779L50.9946 91.0916L61.4136 25.7598Z" fill="#749AE7"/>
<path d="M54.7974 96.5942C54.6975 96.5942 54.6032 96.5477 54.5427 96.4647L50.7384 91.2784C50.6878 91.2109 50.6681 91.125 50.6807 91.0406L61.0998 25.7087C61.1195 25.582 61.2138 25.4807 61.3376 25.4511C61.4615 25.4216 61.5924 25.468 61.667 25.5722L65.4712 30.7585C65.5219 30.826 65.5416 30.9119 65.5289 30.9963L55.1099 96.3282C55.0902 96.4549 54.9959 96.5562 54.872 96.5857C54.8481 96.5914 54.8227 96.5942 54.7974 96.5942ZM51.3282 91.011L54.6046 95.4795L64.8843 31.0273L61.6079 26.5588L51.3282 91.011Z" fill="#E7EEFB"/>
<path d="M73.6665 36.6484L77.4707 41.8347L68.787 96.2775L64.9842 91.0912L73.6665 36.6484Z" fill="#749AE7"/>
<path d="M68.787 96.5942C68.6871 96.5942 68.5928 96.5477 68.5323 96.4647L64.7281 91.2784C64.6774 91.2108 64.6577 91.125 64.6704 91.0405L73.3527 36.5964C73.3724 36.4697 73.4667 36.3684 73.5905 36.3388C73.7144 36.3093 73.8453 36.3557 73.9198 36.4599L77.7241 41.6462C77.7747 41.7137 77.7944 41.7996 77.7818 41.884L69.0981 96.3282C69.0784 96.4548 68.9841 96.5562 68.8602 96.5857C68.8377 96.5914 68.8124 96.5942 68.787 96.5942ZM65.3178 91.011L68.5942 95.4795L77.1372 41.915L73.8607 37.4465L65.3178 91.011Z" fill="#E7EEFB"/>
<path d="M85.9208 47.5361L89.7236 52.7224L86.2206 74.6906L82.4164 69.5044L85.9208 47.5361Z" fill="#749AE7"/>
<path d="M86.2206 75.0069C86.1207 75.0069 86.0264 74.9605 85.9659 74.8774L82.1616 69.6911C82.111 69.6236 82.0913 69.5377 82.1039 69.4533L85.607 47.4851C85.6267 47.3584 85.721 47.2571 85.8448 47.2275C85.9687 47.198 86.0996 47.2444 86.1742 47.3485L89.9784 52.5348C90.029 52.6024 90.0487 52.6882 90.0361 52.7727L86.5331 74.7409C86.5133 74.8676 86.419 74.9689 86.2952 74.9985C86.2699 75.0041 86.2445 75.0069 86.2206 75.0069ZM82.7499 69.4237L86.0264 73.8923L89.3901 52.8037L86.1136 48.3351L82.7499 69.4237Z" fill="#E7EEFB"/>
<path d="M98.192 58.293L101.996 63.4793L100.7 71.6113L96.8958 66.425L98.192 58.293Z" fill="#749AE7"/>
<path d="M100.7 71.9275C100.6 71.9275 100.506 71.8811 100.445 71.798L96.641 66.6118C96.5904 66.5442 96.5707 66.4583 96.5833 66.3739L97.881 58.2419C97.9007 58.1152 97.995 58.0139 98.1188 57.9843C98.2427 57.9548 98.3736 58.0012 98.4481 58.1054L102.252 63.2917C102.303 63.3592 102.323 63.4451 102.31 63.5295L101.012 71.6615C100.993 71.7882 100.898 71.8895 100.775 71.9191C100.749 71.9247 100.724 71.9275 100.7 71.9275ZM97.2293 66.3429L100.506 70.8115L101.663 63.5591L98.3862 59.0906L97.2293 66.3429Z" fill="#E7EEFB"/>
<path d="M94.8973 78.9551L98.7015 84.1414L96.7649 96.2775L92.9621 91.0912L94.8973 78.9551Z" fill="#749AE7"/>
<path d="M96.7649 96.5937C96.665 96.5937 96.5707 96.5473 96.5102 96.4642L92.7059 91.2779C92.6553 91.2104 92.6356 91.1245 92.6482 91.0401L94.5834 78.904C94.6031 78.7773 94.6974 78.676 94.8213 78.6465C94.9451 78.6169 95.076 78.6633 95.1506 78.7675L98.9548 83.9538C99.0055 84.0213 99.0252 84.1072 99.0125 84.1916L97.0773 96.3277C97.0576 96.4544 96.9633 96.5557 96.8395 96.5853C96.8156 96.5909 96.7902 96.5937 96.7649 96.5937ZM93.2956 91.0105L96.5721 95.479L98.3679 84.2226L95.0915 79.7541L93.2956 91.0105Z" fill="#E7EEFB"/>
<path d="M61.4136 25.7598L50.9946 91.0916H37.0064L47.4254 25.7598H61.4136Z" fill="#9DB8EE"/>
<path d="M50.9946 91.4085H37.0064C36.9135 91.4085 36.8262 91.3677 36.7657 91.2974C36.7052 91.227 36.6799 91.1341 36.6939 91.0426L47.113 25.7108C47.1369 25.5574 47.2706 25.4434 47.4254 25.4434H61.4136C61.5065 25.4434 61.5938 25.4842 61.6543 25.5545C61.7148 25.6249 61.7402 25.7178 61.7261 25.8093L51.307 91.1411C51.2817 91.296 51.1494 91.4085 50.9946 91.4085ZM37.3779 90.7752H50.7244L61.0435 26.0767H47.697L37.3779 90.7752Z" fill="#E7EEFB"/>
<path d="M73.6665 36.6484L64.9842 91.0912H50.9946L59.6769 36.6484H73.6665Z" fill="#0F51D5"/>
<path d="M64.9842 91.4076H50.9946C50.9017 91.4076 50.8145 91.3667 50.7539 91.2964C50.6934 91.226 50.6681 91.1331 50.6822 91.0416L59.3659 36.5975C59.3898 36.4441 59.5235 36.3301 59.6783 36.3301H73.6679C73.7608 36.3301 73.8481 36.3709 73.9086 36.4413C73.9691 36.5116 73.9945 36.6045 73.9804 36.696L65.2981 91.1402C65.2727 91.295 65.139 91.4076 64.9842 91.4076ZM51.3647 90.7742H64.7126L73.295 36.9634H59.9471L51.3647 90.7742Z" fill="#E7EEFB"/>
<path d="M71.9298 47.5361H85.9194L82.4164 69.5044C73.8523 73.7209 67.1995 81.7981 65.6119 91.0912H64.9828L71.9298 47.5361Z" fill="#9DB8EE"/>
<path d="M65.6119 91.4081H64.9828C64.8899 91.4081 64.8027 91.3673 64.7422 91.2969C64.6816 91.2265 64.6563 91.1336 64.6704 91.0422L71.6173 47.4871C71.6413 47.3337 71.775 47.2197 71.9298 47.2197H85.9194C86.0123 47.2197 86.0996 47.2605 86.1601 47.3309C86.2206 47.4013 86.2459 47.4942 86.2319 47.5856L82.7288 69.5539C82.7133 69.6552 82.6486 69.7425 82.5557 69.7875C73.8115 74.0942 67.4373 82.2768 65.9244 91.1435C65.899 91.2969 65.7668 91.4081 65.6119 91.4081ZM72.2 47.8531L65.4022 90.4764C67.108 81.6801 73.4653 73.6156 82.1293 69.2935L85.5493 47.8531H72.2Z" fill="#E7EEFB"/>
<path d="M83.8885 104.318C83.7872 104.166 83.6901 104.012 83.5972 103.855C83.5958 103.852 83.593 103.848 83.5916 103.845C83.5015 103.69 83.4156 103.534 83.3326 103.375C83.3101 103.33 83.289 103.285 83.2665 103.24C83.2017 103.109 83.1384 102.977 83.0779 102.842C83.0497 102.78 83.0244 102.718 82.9976 102.656C82.9456 102.532 82.8963 102.408 82.8484 102.281C82.8203 102.207 82.7922 102.132 82.7654 102.058C82.7485 102.01 82.733 101.962 82.7162 101.914C82.6796 101.803 82.6444 101.692 82.6106 101.579C82.5979 101.538 82.5853 101.497 82.574 101.455C82.5318 101.303 82.491 101.151 82.4544 100.996C82.4473 100.97 82.4431 100.942 82.4361 100.915C82.4079 100.79 82.3812 100.663 82.3573 100.535C82.3432 100.463 82.3319 100.391 82.3193 100.319C82.3024 100.222 82.2869 100.124 82.2742 100.025C82.2644 99.9521 82.2545 99.8775 82.2461 99.8029C82.2348 99.7044 82.2236 99.6059 82.2151 99.506C82.2081 99.4314 82.2025 99.3554 82.1968 99.2794C82.1898 99.1795 82.1842 99.0781 82.1799 98.9768C82.1771 98.9008 82.1729 98.8248 82.1715 98.7488C82.1687 98.6446 82.1687 98.5405 82.1687 98.4363C82.1687 98.3618 82.1687 98.2872 82.1701 98.2112C82.1729 98.1014 82.1785 97.9916 82.1842 97.8818C82.1884 97.8101 82.1898 97.7383 82.1954 97.6665C82.2039 97.5441 82.2151 97.4216 82.2278 97.2978C82.2334 97.2372 82.2376 97.1767 82.2447 97.1162C82.2658 96.9318 82.2911 96.7461 82.3207 96.5589C82.3362 96.466 82.3516 96.3731 82.3685 96.2802C82.5473 95.2964 82.84 94.3408 83.2313 93.4246L79.427 88.2383C79.0358 89.1545 78.743 90.1101 78.5643 91.0939C78.5474 91.1868 78.5319 91.2797 78.5165 91.3726C78.4869 91.5598 78.4616 91.7441 78.4405 91.9299C78.4334 91.9904 78.4292 92.0509 78.4236 92.1115C78.4109 92.2353 78.3996 92.3578 78.3912 92.4802C78.3856 92.552 78.3842 92.6238 78.3799 92.6955C78.3743 92.8053 78.3687 92.9151 78.3659 93.0249C78.3644 93.1009 78.3644 93.1755 78.3644 93.2501C78.3644 93.3542 78.3645 93.4583 78.3673 93.5625C78.3687 93.6385 78.3729 93.7145 78.3757 93.7905C78.3799 93.8918 78.3856 93.9932 78.3926 94.0931C78.3982 94.1691 78.4039 94.2451 78.4109 94.3197C78.4193 94.4196 78.4306 94.5181 78.4419 94.6167C78.4503 94.6912 78.4602 94.7658 78.47 94.839C78.4841 94.9375 78.4996 95.0346 78.515 95.1332C78.5277 95.2049 78.539 95.2781 78.553 95.3499C78.5587 95.3781 78.5629 95.4076 78.5671 95.4344C78.5868 95.5329 78.6093 95.63 78.6305 95.7285C78.6361 95.7552 78.6417 95.7834 78.6487 95.8115C78.6853 95.9664 78.7247 96.1198 78.7684 96.2704C78.7796 96.3112 78.7937 96.3534 78.805 96.3942C78.8387 96.5068 78.8725 96.618 78.9105 96.7292C78.926 96.777 78.9429 96.8249 78.9598 96.8727C78.9725 96.9093 78.9837 96.9459 78.9978 96.9825C79.0119 97.0219 79.0287 97.0585 79.0428 97.0965C79.0907 97.2232 79.1399 97.347 79.192 97.4709C79.2187 97.5328 79.2441 97.5947 79.2722 97.6566C79.3327 97.7918 79.3961 97.924 79.4608 98.0563C79.4777 98.0915 79.4932 98.1267 79.5101 98.1619C79.5157 98.1718 79.5213 98.1816 79.5256 98.1915C79.6086 98.3505 79.6945 98.5081 79.7845 98.6629C79.7859 98.6658 79.7887 98.67 79.7902 98.6728C79.883 98.8304 79.9802 98.9838 80.0815 99.1358C80.0871 99.1443 80.0927 99.1541 80.0984 99.1626C80.18 99.285 80.2644 99.4046 80.3517 99.5243L84.1559 104.711C84.0645 104.578 83.9744 104.449 83.8885 104.318Z" fill="#749AE7"/>
<path d="M84.1573 105.022C84.0602 105.022 83.9631 104.977 83.9012 104.892L80.097 99.706C80.0069 99.5836 79.9196 99.4583 79.8366 99.3331L79.8211 99.3091C79.7071 99.1374 79.61 98.9812 79.5185 98.8278C79.5171 98.825 79.5115 98.8152 79.5087 98.8109C79.4228 98.6646 79.3327 98.5013 79.2455 98.331L79.2286 98.3014C79.2173 98.2789 79.2061 98.255 79.1948 98.2325C79.1892 98.2198 79.1836 98.2057 79.1765 98.1931C79.1033 98.0453 79.0386 97.9102 78.9809 97.7807C78.9542 97.7202 78.9288 97.6597 78.9035 97.5991C78.8458 97.4612 78.7937 97.3332 78.7445 97.2023C78.7388 97.1868 78.7332 97.1727 78.7262 97.1572C78.7163 97.1333 78.7064 97.1094 78.6966 97.084C78.6882 97.0601 78.6797 97.0376 78.6727 97.0151L78.6586 96.9714C78.6417 96.9222 78.6248 96.8729 78.6079 96.8223C78.5699 96.7083 78.5348 96.5929 78.4996 96.4774L78.4869 96.4338C78.4785 96.4057 78.47 96.3775 78.4616 96.3494C78.4165 96.1875 78.3743 96.0285 78.3391 95.8765L78.3208 95.792C78.2969 95.6879 78.2744 95.5894 78.2547 95.4894C78.2519 95.4711 78.2476 95.4529 78.2448 95.4346L78.2392 95.4022C78.2265 95.3346 78.2153 95.2657 78.204 95.1981L78.2012 95.1798C78.1843 95.0799 78.1688 94.9786 78.1547 94.8772C78.1435 94.8012 78.135 94.7252 78.1252 94.6478C78.1125 94.5465 78.1027 94.4452 78.0928 94.3424C78.0858 94.265 78.0787 94.1876 78.0731 94.1088C78.0661 94.0046 78.0605 93.9019 78.0562 93.7977C78.0534 93.7203 78.0492 93.6415 78.0478 93.5641C78.045 93.4571 78.045 93.3502 78.045 93.2432V93.1968C78.045 93.1349 78.045 93.0743 78.0464 93.0124C78.0492 92.8998 78.0548 92.7872 78.0605 92.6746L78.0633 92.6085C78.0661 92.5564 78.0675 92.5057 78.0717 92.4537C78.0802 92.3284 78.0928 92.2017 78.1055 92.0751L78.1125 92.0047C78.1153 91.9653 78.1196 91.9273 78.1238 91.8879C78.1463 91.6866 78.1716 91.4994 78.2012 91.3165C78.2167 91.2222 78.2322 91.1265 78.2505 91.0322C78.4306 90.0428 78.7276 89.059 79.1343 88.109C79.1793 88.0048 79.2765 87.9317 79.389 87.919C79.5016 87.9063 79.6128 87.9542 79.6804 88.0457L83.4846 93.232C83.5507 93.322 83.5648 93.4403 83.5198 93.543C83.1327 94.4494 82.8485 95.3881 82.6767 96.3311C82.6599 96.4212 82.6444 96.5126 82.6303 96.6027C82.6022 96.7772 82.5782 96.9546 82.5571 97.1446C82.5529 97.1783 82.5501 97.2135 82.5473 97.2473L82.5402 97.3219C82.529 97.4415 82.5163 97.5626 82.5079 97.6808C82.505 97.7272 82.5022 97.7737 82.5008 97.8215L82.498 97.8905C82.4924 97.9974 82.4867 98.1044 82.4853 98.2114C82.4839 98.2677 82.4839 98.3226 82.4839 98.3789V98.4309C82.4839 98.5323 82.4839 98.6336 82.4868 98.7349C82.4882 98.8095 82.4924 98.8827 82.4952 98.9559C82.4994 99.0544 82.505 99.1529 82.5121 99.25C82.5177 99.3232 82.5233 99.3964 82.5304 99.4696C82.5388 99.5667 82.5501 99.6624 82.5613 99.7581C82.5698 99.8299 82.5782 99.9031 82.5881 99.9749C82.6007 100.071 82.6162 100.165 82.6317 100.259L82.6359 100.283C82.6458 100.345 82.657 100.407 82.6683 100.469C82.6922 100.593 82.7176 100.715 82.7443 100.838L82.7612 100.916C82.795 101.06 82.8344 101.209 82.8766 101.361L82.9118 101.481C82.9442 101.591 82.9779 101.699 83.0131 101.806C83.0286 101.852 83.0441 101.899 83.061 101.945C83.0807 102.002 83.1018 102.056 83.1229 102.113L83.1412 102.162C83.1876 102.284 83.2355 102.405 83.2862 102.525C83.3115 102.587 83.3368 102.646 83.3636 102.705C83.417 102.825 83.4762 102.952 83.5465 103.091L83.5761 103.151C83.5873 103.175 83.5986 103.199 83.6113 103.222C83.6943 103.381 83.7787 103.534 83.8618 103.678C83.8646 103.682 83.8688 103.69 83.8702 103.695C83.9519 103.833 84.0433 103.979 84.1475 104.137C84.2404 104.276 84.3262 104.398 84.4079 104.512C84.5106 104.653 84.481 104.852 84.3403 104.956C84.2882 105.002 84.2235 105.022 84.1573 105.022ZM79.5101 88.8817C79.2286 89.6248 79.0161 90.3848 78.8767 91.1476C78.8599 91.2377 78.8444 91.3277 78.8303 91.4192C78.8022 91.5923 78.7782 91.7697 78.7571 91.9625C78.7529 91.9963 78.7501 92.03 78.7473 92.0624L78.7402 92.1398C78.729 92.2594 78.7163 92.3805 78.7079 92.4987C78.705 92.5451 78.7022 92.5916 78.7008 92.638L78.698 92.707C78.6924 92.814 78.6868 92.9209 78.6853 93.0279C78.6839 93.0856 78.6839 93.1419 78.6839 93.1996V93.2474C78.6839 93.3488 78.6839 93.4501 78.6868 93.5514C78.6882 93.626 78.6924 93.6992 78.6952 93.7724C78.6994 93.8709 78.705 93.9694 78.7121 94.0666C78.7177 94.1397 78.7233 94.2129 78.7304 94.2861C78.7388 94.3832 78.7487 94.4789 78.7613 94.5746C78.7698 94.6464 78.7782 94.7196 78.7895 94.7914C78.8022 94.8871 78.8176 94.9814 78.8331 95.0757L78.8359 95.0954C78.8472 95.1587 78.857 95.2234 78.8697 95.2868L78.8838 95.3698C78.9021 95.4641 78.9232 95.557 78.9443 95.6499L78.9626 95.7343C78.9964 95.8779 79.0358 96.0271 79.078 96.1791L79.1132 96.2987C79.1456 96.4085 79.1793 96.5154 79.2145 96.6238C79.23 96.6703 79.2455 96.7167 79.2624 96.7632L79.2807 96.8152C79.2863 96.8335 79.2933 96.8518 79.299 96.8687C79.3046 96.8842 79.3116 96.8997 79.3173 96.9166C79.3257 96.9377 79.3342 96.9588 79.3426 96.9799C79.389 97.1009 79.4369 97.2234 79.4876 97.343C79.5157 97.4106 79.5396 97.4669 79.565 97.5231C79.6185 97.6442 79.679 97.7709 79.7479 97.9102C79.7578 97.9299 79.7662 97.9482 79.7747 97.9679C79.7817 97.982 79.7887 97.9974 79.7958 98.0115L79.8113 98.0397C79.8943 98.2001 79.9787 98.3535 80.0618 98.4957C80.0632 98.4985 80.0688 98.5069 80.0702 98.5112C80.1519 98.6505 80.2448 98.7969 80.3489 98.9559L80.363 98.9784C80.4418 99.098 80.5248 99.2149 80.6093 99.3303L82.2996 101.636L82.2953 101.622C82.2869 101.593 82.2784 101.565 82.27 101.537C82.225 101.375 82.1827 101.216 82.1476 101.064L82.1293 100.98C82.0997 100.85 82.073 100.719 82.049 100.588C82.0364 100.522 82.0251 100.456 82.0139 100.39L82.0096 100.366C81.9927 100.266 81.9773 100.165 81.9632 100.064C81.9533 99.9875 81.9435 99.9115 81.9336 99.8355C81.921 99.7342 81.9111 99.6329 81.9013 99.5301C81.8942 99.4527 81.8872 99.3753 81.883 99.2979C81.8759 99.1937 81.8703 99.091 81.8661 98.9869C81.8633 98.9094 81.859 98.8306 81.8576 98.7532C81.8548 98.6463 81.8548 98.5393 81.8548 98.4323V98.3803C81.8548 98.3197 81.8548 98.2606 81.8562 98.2001C81.859 98.0875 81.8647 97.9749 81.8703 97.8623L81.8731 97.7962C81.8759 97.7441 81.8773 97.6934 81.8816 97.6414C81.89 97.5161 81.9027 97.3894 81.9153 97.2628L81.921 97.1952C81.9238 97.1558 81.928 97.1164 81.9322 97.077C81.9548 96.8772 81.9801 96.6914 82.0096 96.507C82.0251 96.4113 82.0406 96.317 82.0589 96.2213C82.2292 95.2896 82.5022 94.3635 82.8724 93.4656L79.5101 88.8817Z" fill="#E7EEFB"/>
<path d="M98.192 58.293L96.8944 66.425C96.4201 66.3996 95.9387 66.387 95.4532 66.387C94.1556 66.387 92.8664 66.4784 91.5927 66.6572L92.4624 78.9143C92.7918 78.8904 93.1282 78.8777 93.4603 78.8777C93.9487 78.8777 94.4272 78.9045 94.8945 78.9551L92.9593 91.0912H78.971L79.427 88.2356C81.1891 84.1133 84.9469 80.8143 89.3197 79.4984L88.4556 67.2736C86.3698 67.8014 84.3445 68.5558 82.4164 69.5058L84.2052 58.2944H98.192V58.293Z" fill="#9DB8EE"/>
<path d="M92.9621 91.4081H78.9739C78.881 91.4081 78.7937 91.3673 78.7332 91.2969C78.6727 91.2266 78.6473 91.1337 78.6614 91.0422L79.1174 88.1866C79.1216 88.1612 79.1287 88.1359 79.1385 88.112C80.8851 84.0263 84.6443 80.6583 88.989 79.2706L88.167 67.675C86.2558 68.1859 84.3699 68.8952 82.5571 69.7889C82.4516 69.841 82.3249 69.8297 82.2292 69.7594C82.1335 69.689 82.0856 69.5722 82.1039 69.4554L83.8927 58.244C83.9167 58.0906 84.0504 57.9766 84.2052 57.9766H98.1934C98.2863 57.9766 98.3736 58.0174 98.4341 58.0877C98.4946 58.1581 98.5199 58.251 98.5059 58.3425L97.2082 66.4745C97.1829 66.6349 97.0379 66.7489 96.8789 66.7405C95.2533 66.6532 93.5813 66.718 91.9319 66.9305L92.758 78.5782C93.4842 78.5416 94.2245 78.5627 94.931 78.6401C95.0169 78.65 95.0957 78.6936 95.1478 78.7626C95.1999 78.8315 95.2224 78.9188 95.2083 79.0046L93.2731 91.1407C93.2492 91.2955 93.1169 91.4081 92.9621 91.4081ZM79.3454 90.7748H92.6919L94.5313 79.2383C93.86 79.1834 93.1605 79.1806 92.4878 79.2298C92.4048 79.2355 92.3217 79.2087 92.257 79.1538C92.1936 79.0989 92.1542 79.0201 92.1486 78.9371L91.2788 66.68C91.2676 66.5139 91.3858 66.3675 91.5504 66.3436C93.2379 66.1072 94.9479 66.0241 96.627 66.0959L97.8204 58.6099H84.474L82.8231 68.9572C84.6232 68.1127 86.488 67.4442 88.3767 66.9657C88.4682 66.9432 88.5639 66.9615 88.6399 67.0163C88.7159 67.0712 88.7638 67.1571 88.7708 67.25L89.6378 79.4761C89.6476 79.6239 89.5547 79.759 89.4126 79.8012C85.1524 81.0834 81.4481 84.3472 79.7353 88.3245L79.3454 90.7748Z" fill="#E7EEFB"/>
<path d="M50.9946 91.0908H37.0064L40.8106 96.2771H54.7974H68.787L64.9842 91.0908H50.9946Z" fill="#386FDC"/>
<path d="M68.787 96.594H40.8106C40.7093 96.594 40.615 96.5462 40.5559 96.4646L36.7516 91.2783C36.6813 91.1826 36.67 91.0545 36.7249 90.9475C36.7784 90.8406 36.8882 90.7744 37.0078 90.7744H64.9856C65.087 90.7744 65.1813 90.8223 65.2404 90.9039L69.0446 96.0902C69.115 96.1859 69.1262 96.314 69.0713 96.4209C69.0164 96.5265 68.9067 96.594 68.787 96.594ZM40.971 95.9607H68.1636L64.8238 91.4077H37.6313L40.971 95.9607Z" fill="#E7EEFB"/>
<path d="M92.9621 91.0908H78.9739L82.7781 96.2771H96.7649L92.9621 91.0908Z" fill="#386FDC"/>
<path d="M96.7649 96.594H82.7767C82.6753 96.594 82.581 96.5462 82.5219 96.4646L78.7177 91.2783C78.6473 91.1826 78.6361 91.0545 78.691 90.9475C78.7444 90.8406 78.8542 90.7744 78.9739 90.7744H92.9621C93.0634 90.7744 93.1577 90.8223 93.2168 90.9039L97.021 96.0902C97.0914 96.1859 97.1027 96.314 97.0478 96.4209C96.9943 96.5265 96.8845 96.594 96.7649 96.594ZM82.9385 95.9607H96.1414L92.8016 91.4077H79.5987L82.9385 95.9607Z" fill="#E7EEFB"/>
<path d="M114.514 76.2653C114.631 76.4497 114.743 76.6369 114.853 76.8269C114.884 76.8804 114.913 76.9338 114.944 76.9887C115.023 77.1267 115.101 77.2646 115.175 77.4039C115.212 77.4729 115.248 77.5404 115.285 77.6094C115.35 77.7332 115.413 77.8571 115.476 77.9824C115.519 78.0682 115.561 78.1526 115.603 78.2385C115.662 78.3609 115.72 78.4848 115.776 78.6086C115.814 78.6931 115.854 78.7775 115.892 78.862C115.949 78.9929 116.004 79.1252 116.059 79.2575C116.093 79.3377 116.127 79.4165 116.159 79.4967C116.221 79.6501 116.28 79.8064 116.338 79.9612C116.36 80.0217 116.384 80.0808 116.405 80.1399C116.431 80.2089 116.453 80.2792 116.477 80.3482C116.538 80.5199 116.597 80.6916 116.653 80.8661C116.683 80.959 116.709 81.0519 116.739 81.1462C116.785 81.2982 116.832 81.4502 116.875 81.6036C116.903 81.7064 116.93 81.8091 116.958 81.9118C116.998 82.0582 117.036 82.206 117.071 82.3538C117.096 82.4607 117.122 82.5691 117.146 82.6775C117.178 82.8238 117.21 82.9702 117.24 83.1166C117.265 83.2432 117.291 83.3713 117.314 83.498C117.333 83.5937 117.35 83.6894 117.367 83.7865C117.39 83.9301 117.413 84.0736 117.434 84.2172C117.448 84.3087 117.462 84.4015 117.475 84.493C117.496 84.6521 117.516 84.8125 117.534 84.973C117.542 85.0518 117.554 85.1292 117.562 85.208C117.587 85.4472 117.609 85.6879 117.625 85.93L121.43 91.1163C121.413 90.8742 121.39 90.6335 121.366 90.3943C121.358 90.3155 121.348 90.2381 121.34 90.1607C121.321 90.0002 121.302 89.8398 121.281 89.6793C121.268 89.5878 121.254 89.4964 121.24 89.4049C121.219 89.2599 121.196 89.1164 121.171 88.9728C121.154 88.8771 121.137 88.7814 121.119 88.6843C121.105 88.6069 121.092 88.5281 121.076 88.4506C121.067 88.4014 121.054 88.3521 121.044 88.3029C121.015 88.1551 120.982 88.0087 120.95 87.8638C120.926 87.7554 120.902 87.6484 120.875 87.5401C120.84 87.3923 120.801 87.2445 120.763 87.0981C120.736 86.9954 120.709 86.8927 120.68 86.7899C120.636 86.6365 120.589 86.4845 120.544 86.3339C120.516 86.2396 120.488 86.1453 120.459 86.0524C120.402 85.8793 120.343 85.7076 120.283 85.5359C120.262 85.474 120.242 85.4107 120.219 85.3501C120.217 85.3417 120.214 85.3347 120.211 85.3276C120.19 85.2671 120.166 85.2094 120.143 85.1489C120.086 84.9927 120.027 84.8378 119.965 84.683C119.932 84.6028 119.898 84.5254 119.866 84.4452C119.811 84.3129 119.755 84.1806 119.697 84.0483C119.659 83.9638 119.621 83.8794 119.582 83.795C119.525 83.6711 119.468 83.5472 119.409 83.4248C119.368 83.339 119.324 83.2531 119.282 83.1687C119.251 83.1067 119.221 83.0448 119.191 82.9829C119.158 82.9195 119.123 82.8576 119.091 82.7943C119.054 82.7253 119.019 82.6564 118.981 82.5888C118.905 82.4495 118.827 82.3115 118.75 82.1736C118.719 82.1201 118.689 82.0652 118.659 82.0118C118.549 81.8232 118.435 81.636 118.319 81.4502C118.301 81.4207 118.281 81.3925 118.263 81.3629C118.181 81.2349 118.1 81.1068 118.015 80.9801C118.001 80.9604 117.987 80.9407 117.973 80.921C117.823 80.6972 117.669 80.4777 117.51 80.2595L113.706 75.0732C113.865 75.29 114.018 75.5109 114.169 75.7333C114.267 75.8797 114.363 76.0261 114.459 76.1752C114.476 76.2062 114.495 76.2358 114.514 76.2653Z" fill="#749AE7"/>
<path d="M121.43 91.4316C121.331 91.4316 121.235 91.3851 121.175 91.3021L117.371 86.1158C117.336 86.0679 117.314 86.0102 117.31 85.9511C117.293 85.7217 117.274 85.4895 117.247 85.239C117.243 85.1925 117.237 85.1461 117.231 85.101L117.22 85.0081C117.202 84.8505 117.184 84.6915 117.162 84.5353C117.154 84.4719 117.144 84.4086 117.134 84.3467L117.122 84.2636C117.101 84.1215 117.078 83.9793 117.054 83.8386C117.037 83.7443 117.02 83.65 117.003 83.5543C116.979 83.4276 116.956 83.3024 116.93 83.1785C116.901 83.0336 116.87 82.89 116.837 82.745L116.833 82.7253C116.811 82.6254 116.788 82.5269 116.764 82.427C116.729 82.2806 116.691 82.1356 116.653 81.9921L116.632 81.909C116.612 81.8359 116.592 81.7613 116.573 81.6881C116.531 81.5361 116.484 81.3869 116.439 81.2377L116.409 81.1392C116.391 81.0801 116.374 81.021 116.355 80.9619C116.3 80.7902 116.241 80.6213 116.181 80.4524L116.151 80.3623C116.138 80.3243 116.125 80.2863 116.111 80.2483C116.098 80.2145 116.087 80.1821 116.075 80.1498L116.045 80.071C115.987 79.9176 115.93 79.7641 115.869 79.6136C115.848 79.5615 115.827 79.5108 115.804 79.4587L115.771 79.3785C115.717 79.249 115.662 79.1181 115.604 78.9901C115.575 78.9239 115.544 78.8578 115.514 78.7916L115.492 78.741C115.436 78.6185 115.379 78.4975 115.322 78.3764C115.281 78.292 115.239 78.2076 115.196 78.1231C115.134 78.0007 115.072 77.8768 115.008 77.7558C114.973 77.6882 114.936 77.6207 114.901 77.5531C114.826 77.4152 114.75 77.2801 114.673 77.145L114.635 77.076C114.618 77.0465 114.601 77.0155 114.583 76.9859C114.467 76.7875 114.357 76.6073 114.249 76.4342L114.194 76.3484C114.101 76.202 114.006 76.057 113.909 75.9121C113.747 75.6714 113.597 75.4589 113.453 75.2619C113.35 75.1211 113.379 74.9227 113.52 74.8199C113.661 74.7172 113.859 74.7467 113.963 74.8875L113.965 74.8889L117.768 80.0724C117.917 80.275 118.07 80.4946 118.238 80.7437L118.252 80.7648C118.262 80.7789 118.271 80.7916 118.28 80.8056C118.364 80.9323 118.449 81.0632 118.53 81.1927L118.588 81.2827C118.702 81.4643 118.815 81.6501 118.933 81.8527C118.953 81.8865 118.972 81.9217 118.992 81.9569L119.026 82.016C119.106 82.1553 119.183 82.2961 119.261 82.4368C119.299 82.5058 119.335 82.5761 119.372 82.6465L119.411 82.7197C119.433 82.7591 119.454 82.7985 119.475 82.8379C119.495 82.8759 119.513 82.9139 119.531 82.9519L119.568 83.0265C119.611 83.1124 119.654 83.1996 119.696 83.2869C119.756 83.4122 119.814 83.5374 119.872 83.6627L119.894 83.7105C119.927 83.7795 119.958 83.8499 119.989 83.9188C120.048 84.0525 120.104 84.1862 120.16 84.3213L120.194 84.4016C120.217 84.455 120.239 84.5085 120.262 84.5634C120.325 84.7196 120.384 84.8787 120.443 85.0363L120.47 85.1067C120.484 85.1433 120.498 85.1798 120.512 85.2164L120.521 85.2404C120.533 85.277 120.546 85.3136 120.559 85.3516C120.567 85.3769 120.575 85.4036 120.585 85.429C120.646 85.6035 120.706 85.7766 120.764 85.9525C120.784 86.0158 120.803 86.0792 120.823 86.1425L120.851 86.2368C120.898 86.3902 120.946 86.545 120.989 86.6999C121.01 86.7759 121.031 86.8533 121.051 86.9307L121.072 87.0123C121.112 87.1615 121.151 87.3107 121.188 87.4613C121.213 87.564 121.235 87.6667 121.258 87.7695L121.262 87.7892C121.296 87.937 121.328 88.0861 121.358 88.2353L121.372 88.2987C121.379 88.3282 121.385 88.3564 121.39 88.3859C121.4 88.4338 121.409 88.4816 121.416 88.5295L121.435 88.6407C121.452 88.7321 121.469 88.8236 121.485 88.9165C121.51 89.0615 121.532 89.2079 121.554 89.3556L121.566 89.4373C121.576 89.502 121.586 89.5681 121.596 89.6343C121.618 89.7961 121.637 89.9594 121.656 90.1227L121.666 90.2099C121.672 90.2592 121.679 90.3099 121.683 90.3591C121.71 90.6181 121.731 90.8573 121.748 91.0924C121.758 91.2331 121.673 91.364 121.541 91.4118C121.503 91.4245 121.466 91.4316 121.43 91.4316ZM117.935 85.8146L121 89.9946C120.989 89.9031 120.978 89.8116 120.965 89.7201C120.957 89.6582 120.947 89.5949 120.937 89.533L120.924 89.4485C120.903 89.3064 120.881 89.1642 120.857 89.0235C120.841 88.9334 120.826 88.8447 120.809 88.7561L120.788 88.6393C120.781 88.5956 120.772 88.552 120.764 88.5098C120.76 88.4859 120.754 88.4633 120.749 88.4394C120.743 88.4141 120.737 88.3887 120.732 88.3634C120.702 88.2184 120.671 88.0749 120.639 87.9299L120.635 87.9102C120.612 87.8103 120.589 87.7118 120.566 87.6119C120.53 87.4655 120.492 87.3205 120.454 87.177L120.433 87.0939C120.414 87.0207 120.394 86.9461 120.374 86.873C120.332 86.7224 120.285 86.5732 120.24 86.424L120.211 86.3255C120.193 86.2664 120.176 86.2058 120.156 86.1467C120.101 85.975 120.042 85.8061 119.983 85.6387C119.973 85.6091 119.963 85.5796 119.953 85.55C119.942 85.5176 119.932 85.4867 119.921 85.4543L119.913 85.4304C119.901 85.398 119.889 85.3656 119.876 85.3333L119.846 85.2559C119.789 85.1024 119.731 84.949 119.67 84.797C119.649 84.7464 119.628 84.6957 119.607 84.645L119.572 84.562C119.517 84.4311 119.464 84.3016 119.406 84.1721C119.376 84.1046 119.345 84.0384 119.314 83.9723L119.292 83.923C119.236 83.8006 119.179 83.6796 119.122 83.5585C119.081 83.4741 119.039 83.3896 118.998 83.3066L118.958 83.2264C118.941 83.1926 118.926 83.1588 118.908 83.125C118.889 83.0884 118.87 83.0533 118.851 83.0181L118.811 82.9407C118.775 82.8731 118.739 82.8056 118.704 82.738C118.629 82.6001 118.553 82.465 118.476 82.3298L118.44 82.2665C118.422 82.2342 118.404 82.2032 118.385 82.1708C118.27 81.9738 118.162 81.7936 118.051 81.6177L117.994 81.5319C117.914 81.4052 117.834 81.2799 117.751 81.1561L117.71 81.097C117.547 80.8549 117.397 80.6424 117.254 80.4467L116.435 79.3307C116.44 79.3461 116.447 79.3602 116.453 79.3757C116.516 79.5319 116.576 79.6896 116.635 79.8472L116.661 79.919C116.675 79.9556 116.69 79.9922 116.704 80.0287C116.719 80.071 116.733 80.1132 116.747 80.1568L116.775 80.2399C116.837 80.4144 116.898 80.5889 116.954 80.7648C116.974 80.8281 116.994 80.8915 117.012 80.9534L117.04 81.0477C117.088 81.2011 117.134 81.3559 117.178 81.5121C117.199 81.5881 117.22 81.6656 117.24 81.7444L117.261 81.826C117.3 81.9752 117.34 82.1244 117.376 82.275C117.402 82.3777 117.424 82.4804 117.447 82.5832L117.451 82.6029C117.485 82.7507 117.517 82.8999 117.547 83.049C117.573 83.1785 117.597 83.3066 117.621 83.4361C117.64 83.5332 117.656 83.6303 117.673 83.7274C117.699 83.8724 117.721 84.0187 117.742 84.1651L117.755 84.2467C117.765 84.3129 117.775 84.379 117.785 84.4452C117.807 84.607 117.825 84.7689 117.844 84.9321L117.853 85.0208C117.859 85.0701 117.866 85.1207 117.87 85.17C117.9 85.3966 117.92 85.6077 117.935 85.8146Z" fill="#E7EEFB"/>
<path d="M117.625 85.9287L121.43 91.115L108.361 94.0438L104.558 88.8575L117.625 85.9287Z" fill="#749AE7"/>
<path d="M108.361 94.3607C108.261 94.3607 108.166 94.3143 108.106 94.2312L104.302 89.0449C104.238 88.9591 104.223 88.8465 104.261 88.7466C104.299 88.6466 104.383 88.572 104.487 88.5481L117.555 85.6193C117.679 85.5911 117.806 85.639 117.88 85.7403L121.684 90.9266C121.748 91.0125 121.763 91.1251 121.725 91.225C121.687 91.3249 121.603 91.3995 121.499 91.4235L108.431 94.3523C108.407 94.3579 108.384 94.3607 108.361 94.3607ZM105.1 89.0604L108.494 93.6894L120.888 90.9112L117.493 86.2822L105.1 89.0604Z" fill="#E7EEFB"/>
<path d="M86.3346 103.478L90.1388 108.664L84.9047 120.745L81.1019 115.559L86.3346 103.478Z" fill="#749AE7"/>
<path d="M84.9047 121.062C84.8047 121.062 84.709 121.014 84.6499 120.932L80.8457 115.746C80.7796 115.656 80.7655 115.536 80.8105 115.432L86.0433 103.351C86.0883 103.247 86.1854 103.175 86.298 103.162C86.4106 103.149 86.5218 103.199 86.5893 103.29L90.3936 108.476C90.4597 108.567 90.4738 108.686 90.4288 108.79L85.196 120.872C85.151 120.976 85.0539 121.047 84.9413 121.06C84.9286 121.06 84.9173 121.062 84.9047 121.062ZM81.4636 115.518L84.8329 120.113L89.7743 108.704L86.405 104.109L81.4636 115.518Z" fill="#E7EEFB"/>
<path d="M73.0388 112.851L69.2346 107.665C72.0184 111.461 76.1239 114.263 81.1005 115.559L84.9047 120.745C79.9295 119.449 75.8241 116.647 73.0388 112.851Z" fill="#386FDC"/>
<path d="M84.9047 121.062C84.8779 121.062 84.8512 121.059 84.8245 121.052C79.8408 119.754 75.6763 116.983 72.7827 113.038L68.9785 107.852C68.8757 107.711 68.9053 107.513 69.046 107.408C69.1867 107.304 69.3852 107.335 69.4893 107.476C72.2957 111.301 76.3378 113.991 81.1793 115.251C81.2496 115.269 81.3116 115.311 81.3552 115.37L85.1594 120.556C85.2382 120.665 85.241 120.811 85.1665 120.921C85.1073 121.011 85.0088 121.062 84.9047 121.062ZM72.4956 111.574L73.2936 112.664C75.9282 116.255 79.6522 118.845 84.1053 120.192L80.9105 115.837C77.7297 114.992 74.8853 113.545 72.4956 111.574Z" fill="#E7EEFB"/>
<mask id="mask0_530_26812" style="mask-type:luminance" maskUnits="userSpaceOnUse" x="69" y="107" width="16" height="14">
<mask id="mask1_530_26812" style="mask-type:luminance" maskUnits="userSpaceOnUse" x="69" y="107" width="16" height="14">
<path d="M73.0388 112.851L69.2346 107.665C72.0184 111.461 76.1239 114.263 81.1005 115.559L84.9047 120.745C79.9295 119.449 75.8241 116.647 73.0388 112.851Z" fill="white"/>
</mask>
<g mask="url(#mask1_530_26812)">
<path d="M84.9047 121.062C84.8779 121.062 84.8512 121.059 84.8245 121.052C79.8408 119.754 75.6763 116.983 72.7827 113.038L68.9785 107.852C68.8757 107.711 68.9053 107.513 69.046 107.408C69.1867 107.304 69.3852 107.335 69.4893 107.476C72.2957 111.301 76.3378 113.991 81.1793 115.251C81.2496 115.269 81.3116 115.311 81.3552 115.37L85.1594 120.556C85.2382 120.665 85.241 120.811 85.1665 120.921C85.1073 121.011 85.0088 121.062 84.9047 121.062ZM72.4956 111.574L73.2936 112.664C75.9282 116.255 79.6522 118.845 84.1053 120.192L80.9105 115.837C77.7297 114.992 74.8853 113.545 72.4956 111.574Z" fill="white"/>
</g>
</mask>
<g mask="url(#mask0_530_26812)">
<path d="M81.1019 115.559L84.9061 120.745C79.9295 119.451 75.8241 116.647 73.0402 112.851L69.236 107.665C72.0199 111.461 76.1253 114.263 81.1019 115.559Z" fill="#386FDC"/>
<path d="M84.9047 121.062C84.8779 121.062 84.8512 121.059 84.8245 121.052C79.8408 119.754 75.6763 116.983 72.7827 113.038L68.9785 107.852C68.8757 107.711 68.9053 107.513 69.046 107.408C69.1867 107.304 69.3852 107.335 69.4893 107.476C72.2957 111.301 76.3378 113.991 81.1793 115.251C81.2496 115.269 81.3116 115.311 81.3552 115.37L85.1594 120.556C85.2382 120.665 85.241 120.811 85.1665 120.921C85.1073 121.011 85.0088 121.062 84.9047 121.062ZM72.4956 111.574L73.2936 112.664C75.9282 116.255 79.6522 118.845 84.1053 120.192L80.9105 115.837C77.7297 114.992 74.8853 113.545 72.4956 111.574Z" fill="#E7EEFB"/>
</g>
<path d="M117.64 88.8994C117.595 89.7129 117.507 90.5348 117.374 91.3694C115.174 105.165 101.788 116.351 87.4859 116.351C86.3135 116.351 85.1735 116.276 84.0673 116.131L89.3844 103.862H89.4773C96.451 103.862 102.987 98.543 104.33 91.8817L117.64 88.8994Z" fill="#9DB8EE"/>
<path d="M87.4859 116.668C86.3093 116.668 85.1453 116.593 84.025 116.445C83.9265 116.433 83.8393 116.374 83.7914 116.288C83.7421 116.202 83.7365 116.096 83.7759 116.006L89.0931 103.737C89.1438 103.621 89.2578 103.545 89.383 103.545H89.4759C96.3047 103.545 102.693 98.3955 104.017 91.8201C104.043 91.6976 104.137 91.6005 104.258 91.5738L117.568 88.5915C117.665 88.5703 117.766 88.5943 117.842 88.659C117.918 88.7238 117.959 88.8195 117.953 88.918C117.908 89.7441 117.818 90.5858 117.685 91.4204C115.467 105.341 101.919 116.668 87.4859 116.668ZM84.5261 115.868C85.4887 115.978 86.4824 116.035 87.4859 116.035C101.62 116.035 114.888 104.947 117.061 91.319C117.168 90.6463 117.247 89.9693 117.296 89.2994L104.599 92.1452C103.135 98.8712 96.5988 104.119 89.5927 104.176L84.5261 115.868Z" fill="#E7EEFB"/>
<path d="M119.524 102.417C119.603 102.224 119.679 102.032 119.753 101.837C119.776 101.778 119.799 101.72 119.821 101.661C119.914 101.415 120.003 101.166 120.088 100.917C120.107 100.862 120.125 100.806 120.143 100.749C120.211 100.55 120.276 100.348 120.338 100.147C120.361 100.071 120.384 99.995 120.407 99.919C120.471 99.7037 120.533 99.4869 120.592 99.2702C120.604 99.2294 120.616 99.1871 120.627 99.1463C120.695 98.8902 120.76 98.634 120.82 98.3751C120.836 98.3061 120.851 98.2385 120.867 98.1696C120.912 97.9711 120.954 97.7713 120.995 97.5714C121.01 97.4954 121.026 97.4208 121.04 97.3448C121.091 97.0831 121.138 96.8199 121.179 96.5567C121.313 95.7221 121.4 94.8988 121.444 94.0867L117.64 88.9004C117.595 89.7139 117.507 90.5358 117.375 91.3704C117.333 91.635 117.285 91.8968 117.236 92.1585C117.222 92.2345 117.206 92.3091 117.191 92.3851C117.15 92.585 117.108 92.7848 117.063 92.9833C117.047 93.0522 117.032 93.1198 117.016 93.1888C116.956 93.4463 116.892 93.7039 116.823 93.96C116.812 94.0008 116.801 94.0417 116.789 94.0839C116.73 94.3006 116.668 94.5174 116.604 94.7327C116.581 94.8087 116.557 94.8847 116.535 94.9607C116.473 95.1619 116.408 95.3632 116.341 95.5631C116.322 95.6194 116.304 95.6742 116.286 95.7305C116.2 95.9797 116.111 96.2288 116.018 96.4751C115.996 96.5342 115.973 96.5919 115.951 96.651C115.876 96.8452 115.8 97.038 115.721 97.2308C115.692 97.304 115.661 97.3772 115.631 97.4504C115.541 97.6643 115.45 97.8782 115.354 98.0908C115.34 98.1217 115.327 98.1527 115.313 98.1837C115.203 98.4271 115.088 98.6692 114.971 98.9099C114.939 98.9746 114.906 99.0408 114.874 99.1055C114.781 99.2913 114.687 99.4757 114.591 99.66C114.557 99.7248 114.525 99.7881 114.49 99.8528C114.365 100.089 114.235 100.323 114.103 100.555C114.084 100.586 114.066 100.617 114.049 100.648C113.932 100.852 113.813 101.055 113.69 101.256C113.644 101.332 113.597 101.408 113.551 101.483C113.479 101.599 113.406 101.715 113.331 101.832C113.279 101.913 113.227 101.994 113.175 102.075C113.099 102.192 113.022 102.309 112.943 102.424C112.891 102.502 112.839 102.579 112.787 102.656C112.704 102.777 112.618 102.898 112.533 103.02C112.484 103.09 112.435 103.159 112.386 103.229C112.282 103.373 112.177 103.515 112.07 103.657C112.038 103.699 112.007 103.743 111.975 103.787C111.71 104.138 111.437 104.485 111.156 104.825C111.153 104.828 111.151 104.831 111.149 104.834C110.866 105.177 110.576 105.513 110.279 105.844C110.272 105.851 110.266 105.858 110.259 105.865C109.982 106.174 109.699 106.476 109.409 106.774C109.405 106.779 109.401 106.784 109.395 106.789C109.109 107.083 108.817 107.371 108.518 107.654C108.503 107.668 108.489 107.684 108.473 107.698C108.19 107.967 107.9 108.23 107.608 108.487C107.581 108.511 107.554 108.535 107.526 108.559C107.24 108.81 106.949 109.054 106.653 109.295C106.618 109.325 106.582 109.354 106.546 109.382C106.249 109.623 105.947 109.857 105.641 110.086C105.601 110.116 105.561 110.147 105.52 110.176C105.216 110.403 104.908 110.624 104.596 110.839C104.553 110.869 104.51 110.898 104.468 110.928C104.137 111.154 103.801 111.374 103.461 111.589C103.421 111.615 103.381 111.641 103.34 111.667C102.997 111.881 102.649 112.089 102.299 112.29C102.251 112.317 102.205 112.345 102.157 112.372C102.02 112.449 101.882 112.525 101.746 112.6C101.675 112.638 101.606 112.677 101.536 112.715C101.343 112.818 101.15 112.921 100.956 113.019C100.941 113.028 100.925 113.036 100.91 113.044C100.7 113.151 100.487 113.256 100.275 113.358C100.209 113.391 100.141 113.42 100.075 113.453C99.9287 113.522 99.781 113.592 99.6332 113.658C99.5684 113.688 99.5023 113.716 99.4362 113.745C99.2433 113.831 99.0505 113.916 98.8549 113.997C98.7831 114.028 98.7113 114.058 98.6396 114.087C98.3904 114.19 98.1413 114.291 97.8908 114.387C97.888 114.389 97.8852 114.39 97.8824 114.39C97.629 114.487 97.3729 114.58 97.1167 114.67C97.0436 114.695 96.9704 114.721 96.8986 114.746C96.7002 114.815 96.5003 114.881 96.299 114.946C96.2357 114.966 96.1724 114.987 96.1076 115.008C95.805 115.104 95.4996 115.194 95.1928 115.279C95.1295 115.298 95.0676 115.315 95.0042 115.332C94.6904 115.417 94.3751 115.499 94.0585 115.575C94.0387 115.579 94.019 115.583 94.0008 115.588C93.6939 115.659 93.3871 115.726 93.0789 115.789C93.0226 115.8 92.9649 115.813 92.9086 115.824C92.5962 115.885 92.2823 115.941 91.9685 115.992C91.9051 116.001 91.8432 116.011 91.7799 116.021C91.4562 116.072 91.131 116.118 90.8045 116.156C90.7933 116.158 90.782 116.159 90.7707 116.16C90.4513 116.198 90.1318 116.229 89.8109 116.256C89.7504 116.262 89.6899 116.267 89.6279 116.272C89.3099 116.297 88.9904 116.315 88.6709 116.329C88.609 116.332 88.5456 116.334 88.4823 116.336C88.1502 116.349 87.818 116.356 87.4844 116.356C86.3121 116.356 85.1721 116.282 84.0659 116.137L87.8715 121.319C88.9777 121.465 90.1177 121.538 91.2901 121.538C91.6236 121.538 91.9558 121.53 92.2879 121.518C92.3513 121.516 92.4132 121.514 92.4765 121.511C92.796 121.497 93.1155 121.479 93.4336 121.454C93.4941 121.45 93.5546 121.444 93.6165 121.438C93.9374 121.412 94.2569 121.381 94.5764 121.343C94.5876 121.341 94.5989 121.34 94.6102 121.338C94.9367 121.299 95.2604 121.252 95.5841 121.203C95.6474 121.193 95.7107 121.184 95.7741 121.174C96.0879 121.123 96.4018 121.067 96.7128 121.006C96.7705 120.995 96.8282 120.982 96.8845 120.971C97.1927 120.909 97.4996 120.843 97.805 120.771C97.8247 120.767 97.8458 120.763 97.8655 120.757C98.1822 120.682 98.496 120.599 98.8099 120.514C98.8732 120.497 98.9365 120.48 98.9984 120.462C99.3039 120.376 99.6093 120.286 99.9119 120.19C99.9302 120.184 99.9499 120.179 99.9682 120.173C100.013 120.159 100.058 120.142 100.105 120.128C100.305 120.063 100.503 119.997 100.701 119.93C100.775 119.904 100.848 119.879 100.921 119.854C101.177 119.763 101.432 119.671 101.687 119.573C101.691 119.572 101.695 119.571 101.699 119.569C101.95 119.474 102.197 119.374 102.445 119.271C102.517 119.241 102.59 119.21 102.662 119.179C102.856 119.098 103.048 119.013 103.24 118.929C103.284 118.909 103.328 118.892 103.371 118.873C103.394 118.863 103.416 118.851 103.439 118.84C103.585 118.774 103.732 118.705 103.877 118.636C103.944 118.604 104.013 118.573 104.081 118.54C104.293 118.438 104.504 118.334 104.715 118.227C104.731 118.218 104.746 118.21 104.762 118.203C104.956 118.103 105.15 118.001 105.342 117.899C105.412 117.861 105.481 117.823 105.55 117.783C105.688 117.709 105.824 117.633 105.961 117.555C105.985 117.541 106.009 117.53 106.031 117.516C106.055 117.502 106.078 117.488 106.102 117.474C106.452 117.272 106.8 117.065 107.143 116.852C107.184 116.826 107.225 116.799 107.266 116.774C107.605 116.56 107.94 116.341 108.27 116.114C108.289 116.101 108.307 116.09 108.325 116.079C108.351 116.062 108.375 116.042 108.4 116.025C108.712 115.81 109.021 115.589 109.325 115.364C109.365 115.334 109.405 115.303 109.444 115.274C109.75 115.044 110.052 114.809 110.349 114.57C110.362 114.56 110.376 114.549 110.39 114.539C110.413 114.521 110.434 114.501 110.458 114.483C110.753 114.242 111.044 113.997 111.33 113.747C111.357 113.723 111.384 113.699 111.41 113.675C111.703 113.416 111.993 113.154 112.276 112.885C112.28 112.881 112.284 112.877 112.29 112.873C112.301 112.863 112.311 112.852 112.322 112.842C112.619 112.559 112.912 112.27 113.199 111.976C113.203 111.972 113.208 111.966 113.213 111.962C113.503 111.665 113.786 111.361 114.063 111.054C114.068 111.049 114.073 111.045 114.077 111.039C114.079 111.038 114.08 111.035 114.082 111.033C114.379 110.703 114.669 110.365 114.951 110.023C114.954 110.02 114.956 110.017 114.958 110.014C115.239 109.674 115.512 109.328 115.778 108.976C115.78 108.973 115.783 108.97 115.785 108.966C115.814 108.926 115.842 108.887 115.872 108.848C115.977 108.705 116.084 108.562 116.187 108.418C116.236 108.349 116.284 108.28 116.333 108.211C116.419 108.09 116.505 107.969 116.588 107.847C116.64 107.771 116.692 107.694 116.744 107.616C116.822 107.499 116.901 107.384 116.977 107.266C117.03 107.185 117.082 107.104 117.133 107.022C117.206 106.907 117.279 106.791 117.351 106.675C117.379 106.63 117.407 106.586 117.434 106.542C117.454 106.511 117.471 106.479 117.49 106.448C117.613 106.247 117.732 106.044 117.849 105.84C117.868 105.809 117.886 105.778 117.903 105.747C118.035 105.515 118.163 105.28 118.29 105.045C118.324 104.981 118.357 104.917 118.391 104.852C118.488 104.668 118.583 104.483 118.674 104.297C118.706 104.233 118.739 104.168 118.771 104.102C118.888 103.861 119.003 103.619 119.113 103.376C119.116 103.37 119.119 103.364 119.122 103.359C119.133 103.333 119.143 103.308 119.154 103.283C119.25 103.07 119.341 102.856 119.431 102.642C119.465 102.564 119.495 102.49 119.524 102.417Z" fill="#386FDC"/>
<path d="M91.2901 121.855C90.1135 121.855 88.9496 121.78 87.8293 121.632C87.7434 121.621 87.666 121.575 87.6154 121.506L83.8111 116.319C83.7365 116.217 83.7295 116.08 83.7942 115.97C83.859 115.861 83.9814 115.802 84.1081 115.818C85.2016 115.963 86.3374 116.035 87.4859 116.035C87.7828 116.035 88.0953 116.03 88.4725 116.015L88.6582 116.008C88.9735 115.994 89.293 115.976 89.604 115.952L89.7842 115.937C90.1318 115.907 90.4428 115.876 90.7342 115.842C90.7356 115.842 90.7482 115.841 90.7496 115.841L90.7665 115.84C91.0565 115.804 91.3717 115.761 91.7306 115.706L91.9178 115.676C92.2302 115.626 92.5441 115.569 92.8481 115.51L93.017 115.476C93.3449 115.41 93.6433 115.346 93.929 115.278L93.9867 115.265C94.2738 115.196 94.5792 115.119 94.9212 115.025L95.107 114.974C95.418 114.887 95.722 114.797 96.0119 114.705L96.2005 114.645C96.399 114.581 96.596 114.515 96.793 114.448L96.8099 114.442C96.8775 114.419 96.9436 114.396 97.0098 114.373C97.2997 114.27 97.5404 114.182 97.7684 114.096C97.9992 114.007 98.2413 113.91 98.5185 113.796C98.5833 113.769 98.6494 113.741 98.7142 113.714L98.7311 113.707C98.9239 113.626 99.1153 113.543 99.3067 113.458L99.5009 113.371C99.6473 113.305 99.7936 113.236 99.9386 113.167L100.023 113.127C100.061 113.109 100.099 113.092 100.137 113.074C100.348 112.973 100.558 112.868 100.766 112.763L100.811 112.739C101.005 112.639 101.197 112.539 101.387 112.436C101.432 112.412 101.477 112.387 101.521 112.363L101.592 112.324C101.729 112.249 101.865 112.175 102 112.097L102.141 112.017C102.494 111.814 102.842 111.606 103.173 111.401L103.294 111.325C103.633 111.111 103.968 110.891 104.29 110.67L104.418 110.581C104.736 110.362 105.045 110.141 105.333 109.926L105.453 109.836C105.764 109.602 106.065 109.368 106.349 109.137L106.456 109.05C106.766 108.798 107.049 108.559 107.32 108.321L107.401 108.249C107.709 107.978 107.989 107.723 108.258 107.467L108.301 107.425C108.605 107.136 108.898 106.848 109.17 106.568L109.41 106.774L109.184 106.553C109.47 106.261 109.752 105.958 110.025 105.654C110.027 105.653 110.035 105.643 110.037 105.641C110.339 105.305 110.629 104.969 110.905 104.632C111.187 104.29 111.46 103.944 111.721 103.596L111.816 103.468C111.921 103.328 112.025 103.187 112.127 103.045C112.158 103.001 112.19 102.956 112.221 102.912L112.273 102.838C112.358 102.718 112.442 102.599 112.524 102.479C112.564 102.42 112.604 102.361 112.643 102.302L112.678 102.25C112.756 102.134 112.832 102.02 112.908 101.903C112.96 101.823 113.012 101.743 113.063 101.663C113.136 101.549 113.208 101.433 113.279 101.318C113.326 101.243 113.372 101.169 113.417 101.093C113.538 100.894 113.657 100.693 113.772 100.492L113.825 100.4C113.948 100.185 114.073 99.9583 114.208 99.705L114.308 99.515C114.404 99.3334 114.497 99.1505 114.588 98.9661L114.684 98.7733C114.809 98.5157 114.92 98.2807 115.022 98.0555L115.063 97.964C115.157 97.7543 115.248 97.5432 115.337 97.3307C115.367 97.2589 115.398 97.1857 115.427 97.114C115.505 96.924 115.581 96.7326 115.654 96.5412L115.721 96.368C115.813 96.1231 115.901 95.8754 115.986 95.632L116.041 95.4673C116.107 95.2703 116.17 95.0718 116.232 94.872C116.256 94.7974 116.279 94.7214 116.301 94.6468C116.364 94.4343 116.426 94.2203 116.484 94.0064L116.518 93.884C116.583 93.6405 116.645 93.3914 116.708 93.1226C116.718 93.0789 116.728 93.0353 116.737 92.9917L116.753 92.9199C116.798 92.7228 116.839 92.5258 116.88 92.3288L116.889 92.2809C116.901 92.2218 116.913 92.1641 116.925 92.105C116.981 91.8137 117.026 91.5589 117.063 91.3253C117.192 90.5118 117.281 89.6927 117.324 88.8877C117.331 88.754 117.421 88.64 117.551 88.602C117.679 88.564 117.817 88.6104 117.897 88.7188L121.701 93.9051C121.745 93.9642 121.766 94.036 121.762 94.1091C121.717 94.9353 121.627 95.7783 121.493 96.6115C121.455 96.8508 121.409 97.1126 121.351 97.4095C121.34 97.4686 121.328 97.5263 121.316 97.5854L121.304 97.6389C121.264 97.8416 121.22 98.0443 121.175 98.2455L121.159 98.3159C121.15 98.3609 121.14 98.4074 121.129 98.4524C121.064 98.7297 121 98.9844 120.934 99.2321L120.899 99.3574C120.84 99.5769 120.777 99.7965 120.712 100.013C120.689 100.091 120.665 100.167 120.642 100.244C120.578 100.448 120.513 100.651 120.446 100.853L120.39 101.022C120.304 101.271 120.214 101.525 120.119 101.775C120.105 101.813 120.091 101.85 120.076 101.888L120.05 101.954C119.976 102.15 119.898 102.345 119.818 102.541C119.787 102.616 119.758 102.689 119.727 102.763C119.635 102.98 119.542 103.197 119.447 103.411L119.413 103.488C119.411 103.491 119.407 103.501 119.406 103.504C119.3 103.736 119.188 103.975 119.06 104.238L118.961 104.435C118.867 104.624 118.773 104.81 118.674 104.997L118.573 105.191C118.435 105.45 118.307 105.682 118.181 105.902L118.127 105.995C118.008 106.202 117.887 106.406 117.763 106.608L117.739 106.649C117.728 106.667 117.718 106.686 117.707 106.704C117.692 106.729 117.675 106.756 117.659 106.781L117.624 106.838C117.551 106.955 117.478 107.073 117.403 107.188C117.351 107.27 117.298 107.353 117.244 107.434C117.167 107.553 117.088 107.671 117.009 107.788L116.974 107.84C116.933 107.9 116.892 107.961 116.851 108.02C116.767 108.144 116.681 108.266 116.594 108.389L116.543 108.46C116.511 108.507 116.478 108.552 116.446 108.598C116.342 108.743 116.235 108.888 116.128 109.032L116.09 109.084C116.073 109.106 116.056 109.13 116.039 109.153C116.038 109.156 116.031 109.163 116.029 109.166C115.765 109.517 115.486 109.869 115.205 110.211C114.915 110.563 114.619 110.907 114.319 111.242L114.3 111.263C114.02 111.574 113.731 111.882 113.441 112.18L113.427 112.194C113.149 112.481 112.85 112.774 112.542 113.068L112.51 113.101C112.508 113.102 112.497 113.112 112.495 113.113C112.222 113.372 111.935 113.634 111.621 113.91L111.54 113.982C111.263 114.224 110.966 114.474 110.657 114.725L110.631 114.747C110.617 114.759 110.604 114.77 110.59 114.781L110.548 114.814C110.259 115.047 109.951 115.286 109.636 115.524L109.515 115.616C109.216 115.838 108.902 116.062 108.581 116.284L108.553 116.305C108.538 116.317 108.522 116.328 108.507 116.339L108.451 116.376C108.127 116.597 107.785 116.822 107.436 117.041L107.312 117.12C106.974 117.331 106.62 117.542 106.261 117.749L106.233 117.766C106.218 117.775 106.203 117.785 106.189 117.793L106.117 117.832C105.979 117.911 105.84 117.987 105.701 118.063L105.626 118.104C105.581 118.129 105.534 118.155 105.489 118.179C105.295 118.283 105.1 118.386 104.904 118.485L104.857 118.511C104.645 118.619 104.431 118.725 104.216 118.827C104.172 118.849 104.128 118.868 104.085 118.889L104.01 118.925C103.864 118.994 103.716 119.064 103.568 119.131L103.499 119.164C103.474 119.175 103.449 119.186 103.423 119.198L103.367 119.222C103.173 119.307 102.979 119.392 102.783 119.475L102.563 119.566C102.278 119.685 102.038 119.78 101.81 119.868C101.564 119.962 101.312 120.055 101.025 120.156C100.958 120.18 100.89 120.204 100.821 120.226L100.803 120.232C100.603 120.301 100.402 120.369 100.2 120.433L100.141 120.453C100.115 120.461 100.088 120.471 100.062 120.48L100.005 120.497C99.7106 120.59 99.3996 120.681 99.0829 120.77L98.8915 120.822C98.5411 120.917 98.2286 120.998 97.9373 121.067L97.8768 121.081C97.584 121.15 97.28 121.216 96.9465 121.283L96.7719 121.319C96.4637 121.379 96.1442 121.435 95.8219 121.487L95.6291 121.517C95.266 121.573 94.9437 121.618 94.6439 121.654L94.6172 121.656C94.3118 121.693 93.9951 121.724 93.6391 121.753L93.4547 121.769C93.1352 121.794 92.8101 121.813 92.4864 121.827L92.2964 121.834C91.915 121.848 91.5941 121.855 91.2901 121.855ZM88.046 121.022C89.0974 121.154 90.1881 121.221 91.2901 121.221C91.5871 121.221 91.8995 121.216 92.2767 121.202L92.4625 121.195C92.7777 121.181 93.0958 121.162 93.4082 121.138L93.5884 121.123C93.936 121.093 94.247 121.062 94.5384 121.029C94.5398 121.029 94.5525 121.027 94.5553 121.027L94.5722 121.026C94.8649 120.991 95.1802 120.947 95.5362 120.892L95.7234 120.863C96.0387 120.812 96.3511 120.756 96.6523 120.696L96.8226 120.661C97.1491 120.595 97.4461 120.53 97.7318 120.463L97.7923 120.449C98.0752 120.381 98.3806 120.302 98.7254 120.21L98.9126 120.159C99.2236 120.072 99.5276 119.982 99.8162 119.89L99.871 119.873C99.895 119.866 99.9161 119.858 99.9386 119.851L100.008 119.828C100.205 119.765 100.402 119.699 100.599 119.631L100.617 119.624C100.683 119.602 100.749 119.579 100.815 119.555C101.097 119.455 101.345 119.365 101.573 119.278C101.806 119.188 102.041 119.093 102.323 118.978L102.538 118.888C102.729 118.808 102.919 118.725 103.109 118.639L103.174 118.611C103.195 118.601 103.218 118.592 103.239 118.583L103.308 118.55C103.451 118.484 103.596 118.416 103.741 118.349L103.819 118.312C103.86 118.293 103.902 118.274 103.943 118.255C104.154 118.153 104.363 118.049 104.57 117.944L104.617 117.92C104.81 117.821 105.001 117.721 105.191 117.618C105.235 117.595 105.278 117.571 105.322 117.547L105.398 117.504C105.534 117.43 105.671 117.355 105.806 117.278L105.903 117.223C105.917 117.215 105.933 117.205 105.947 117.196C106.299 116.994 106.646 116.787 106.977 116.58L107.098 116.502C107.44 116.286 107.775 116.066 108.093 115.849L108.22 115.761C108.535 115.543 108.843 115.322 109.136 115.105L109.256 115.015C109.567 114.781 109.868 114.548 110.152 114.317L110.258 114.229C110.56 113.983 110.852 113.738 111.122 113.5L111.202 113.43C111.51 113.158 111.79 112.902 112.061 112.648C112.063 112.646 112.07 112.639 112.073 112.636L112.106 112.605C112.408 112.317 112.701 112.028 112.974 111.748L112.991 111.731C113.272 111.443 113.555 111.14 113.828 110.835C113.83 110.832 113.84 110.824 113.841 110.821C114.142 110.486 114.432 110.149 114.709 109.813C114.711 109.812 114.719 109.802 114.719 109.8C114.991 109.471 115.264 109.125 115.526 108.777C115.527 108.774 115.533 108.767 115.534 108.766L115.619 108.65C115.724 108.51 115.828 108.369 115.931 108.225C115.962 108.182 115.993 108.138 116.024 108.095L116.076 108.02C116.16 107.9 116.245 107.781 116.328 107.66C116.367 107.602 116.407 107.543 116.446 107.484L116.481 107.43C116.559 107.315 116.635 107.201 116.711 107.084C116.763 107.004 116.815 106.924 116.865 106.843C116.939 106.729 117.01 106.614 117.082 106.5L117.22 106.275C117.341 106.076 117.459 105.876 117.575 105.674L117.628 105.582C117.751 105.368 117.876 105.14 118.011 104.887L118.111 104.697C118.207 104.516 118.3 104.333 118.391 104.148L118.487 103.955C118.612 103.698 118.723 103.463 118.825 103.238C118.826 103.235 118.83 103.225 118.832 103.222L118.865 103.145C118.96 102.935 119.051 102.724 119.14 102.511C119.169 102.44 119.2 102.366 119.23 102.295C119.307 102.105 119.383 101.913 119.457 101.722L119.524 101.549C119.616 101.304 119.704 101.056 119.789 100.813L119.844 100.648C119.91 100.451 119.973 100.252 120.035 100.053C120.057 99.978 120.081 99.902 120.104 99.8274C120.167 99.6149 120.229 99.401 120.287 99.1871L120.321 99.0646C120.385 98.8226 120.447 98.5734 120.511 98.3032L120.556 98.1006C120.601 97.9035 120.642 97.7065 120.682 97.5094L120.694 97.456C120.705 97.3997 120.716 97.342 120.727 97.2857C120.784 96.9943 120.829 96.7396 120.865 96.5074C120.989 95.7319 121.075 94.9508 121.12 94.1823L117.891 89.7814C117.842 90.3274 117.773 90.8763 117.686 91.421C117.648 91.6603 117.602 91.922 117.544 92.219C117.533 92.2795 117.52 92.34 117.507 92.4006L117.497 92.4484C117.457 92.6511 117.413 92.8537 117.368 93.055L117.352 93.1254C117.343 93.1718 117.333 93.2168 117.321 93.2633C117.257 93.5391 117.193 93.7939 117.127 94.043L117.092 94.1683C117.033 94.3878 116.97 94.6074 116.905 94.8241C116.882 94.9015 116.858 94.9775 116.835 95.0549C116.771 95.259 116.706 95.4617 116.639 95.6643L116.616 95.7305C116.605 95.7643 116.594 95.7994 116.583 95.8332C116.498 96.0823 116.407 96.3357 116.312 96.5862C116.298 96.6242 116.284 96.6608 116.269 96.6988L116.243 96.7649C116.169 96.9606 116.091 97.1562 116.011 97.3518C115.98 97.4264 115.951 97.4996 115.92 97.5742C115.828 97.7909 115.735 98.0077 115.64 98.2216L115.597 98.3159C115.493 98.5453 115.381 98.786 115.251 99.0492L115.153 99.2462C115.058 99.4348 114.964 99.622 114.866 99.8077L114.764 100.002C114.626 100.261 114.498 100.493 114.373 100.713L114.318 100.807C114.2 101.012 114.079 101.218 113.955 101.421C113.909 101.498 113.861 101.574 113.814 101.65C113.741 101.768 113.668 101.885 113.593 102.002C113.541 102.084 113.488 102.167 113.436 102.248C113.358 102.366 113.281 102.483 113.202 102.601L113.167 102.654C113.126 102.714 113.085 102.776 113.043 102.836C112.959 102.959 112.873 103.081 112.787 103.202L112.736 103.276C112.704 103.322 112.671 103.368 112.638 103.414C112.533 103.558 112.427 103.703 112.32 103.847L112.224 103.976C111.956 104.331 111.678 104.684 111.396 105.025C111.106 105.377 110.811 105.72 110.511 106.055L110.497 106.071C110.214 106.386 109.926 106.694 109.634 106.994L109.62 107.008C109.343 107.294 109.045 107.588 108.735 107.882L108.69 107.926C108.415 108.186 108.13 108.446 107.816 108.722L107.734 108.794C107.457 109.038 107.168 109.28 106.853 109.537L106.745 109.626C106.455 109.861 106.147 110.1 105.831 110.337L105.71 110.428C105.415 110.648 105.101 110.873 104.777 111.097L104.648 111.187C104.32 111.412 103.978 111.636 103.632 111.854L103.509 111.931C103.171 112.142 102.818 112.353 102.458 112.56L102.314 112.643C102.176 112.722 102.038 112.798 101.899 112.874L101.829 112.914C101.782 112.939 101.734 112.966 101.688 112.991C101.494 113.095 101.298 113.198 101.103 113.298L101.055 113.323C100.842 113.431 100.628 113.537 100.414 113.64C100.375 113.659 100.334 113.678 100.295 113.696L100.213 113.734C100.064 113.804 99.9161 113.875 99.7655 113.942L99.5671 114.031C99.3728 114.118 99.1772 114.203 98.9802 114.286L98.9633 114.293C98.8971 114.321 98.8296 114.349 98.7634 114.377C98.4819 114.494 98.2342 114.593 98.0062 114.68C97.7656 114.773 97.5193 114.863 97.2237 114.967C97.1548 114.991 97.0872 115.015 97.0182 115.039L97.0028 115.044C96.8015 115.113 96.6002 115.181 96.3976 115.246L96.2048 115.308C95.9078 115.4 95.5968 115.493 95.2801 115.582L95.0901 115.634C94.7411 115.73 94.4286 115.81 94.1345 115.879L94.0753 115.892C93.7826 115.961 93.4772 116.027 93.1422 116.094L92.9691 116.129C92.6581 116.19 92.3386 116.248 92.0191 116.3L91.8277 116.329C91.4604 116.386 91.1381 116.431 90.8411 116.467L90.8144 116.47C90.509 116.507 90.1923 116.538 89.8362 116.567L89.6519 116.583C89.3324 116.608 89.0073 116.626 88.6836 116.64L88.4936 116.647C88.1093 116.661 87.7885 116.667 87.4845 116.667C86.5612 116.667 85.645 116.621 84.7513 116.529L88.046 121.022Z" fill="#E7EEFB"/>
<path d="M88.4556 67.2734L89.3225 79.4996C84.9497 80.8155 81.1905 84.1145 79.4299 88.2368C79.0386 89.1516 78.7459 90.1086 78.5671 91.0924C78.5502 91.1853 78.5348 91.2782 78.5193 91.3711C77.589 97.2005 80.9513 102.104 86.336 103.479L81.1033 115.56C70.3915 112.772 63.7133 102.998 65.5683 91.3711C65.5824 91.2782 65.5979 91.1853 65.6147 91.0924C67.2023 81.7979 73.8551 73.7222 82.4192 69.5056C84.3445 68.5542 86.3698 67.8012 88.4556 67.2734Z" fill="#9DB8EE"/>
<path d="M81.1019 115.875C81.0751 115.875 81.0484 115.872 81.0216 115.865C69.8947 112.969 63.4108 102.875 65.2545 91.3202C65.2699 91.2259 65.2854 91.1316 65.3009 91.0387C66.849 81.975 73.3541 73.615 82.277 69.2211C84.2446 68.2514 86.298 67.4928 88.3782 66.9664C88.4696 66.9439 88.5653 66.9622 88.6413 67.0171C88.7173 67.072 88.7652 67.1578 88.7722 67.2507L89.6392 79.4769C89.649 79.6247 89.5562 79.7598 89.414 79.802C85.1411 81.087 81.427 84.3676 79.7212 88.3604C79.3342 89.2668 79.0499 90.2056 78.8782 91.1485C78.8613 91.2386 78.8458 91.3287 78.8317 91.4201C77.9465 96.9724 81.0639 101.804 86.4134 103.171C86.5035 103.193 86.5781 103.255 86.6189 103.338C86.6597 103.421 86.6625 103.518 86.6245 103.604L81.3918 115.685C81.3411 115.802 81.2243 115.875 81.1019 115.875ZM88.167 67.6744C86.2558 68.1853 84.3699 68.8946 82.5571 69.7883C73.8129 74.095 67.4388 82.2776 65.9258 91.1443C65.9103 91.2358 65.8948 91.3273 65.8808 91.4187C64.106 102.549 70.2817 112.281 80.9203 115.181L85.8997 103.686C80.4404 102.115 77.2878 97.0821 78.2068 91.3188C78.2223 91.2231 78.2378 91.1288 78.2561 91.0331C78.4362 90.0437 78.7332 89.0599 79.1399 88.1099C80.8865 84.0242 84.6457 80.6563 88.9904 79.2686L88.167 67.6744Z" fill="#E7EEFB"/>
<path d="M102.586 83.2212L106.39 88.4075C104.683 86.0796 101.981 84.4991 98.7015 84.1416C98.2342 84.091 97.7557 84.0642 97.2673 84.0642C96.9352 84.0642 96.5988 84.0755 96.2695 84.1008L92.4653 78.9145C92.7946 78.8906 93.131 78.8779 93.4631 78.8779C93.9515 78.8779 94.43 78.9047 94.8973 78.9553C98.1765 79.3128 100.879 80.8933 102.586 83.2212Z" fill="#749AE7"/>
<path d="M106.39 88.724C106.293 88.724 106.196 88.679 106.134 88.5946C104.425 86.2653 101.774 84.7946 98.6663 84.4554C97.8936 84.3709 97.0745 84.3583 96.2906 84.4146C96.1822 84.4216 96.0767 84.3737 96.0119 84.2865L92.2077 79.1002C92.1402 79.0073 92.1275 78.8849 92.1753 78.7807C92.2232 78.6766 92.3245 78.6062 92.4399 78.5977C93.2619 78.5386 94.1204 78.5513 94.9296 78.64C98.2145 78.9989 101.024 80.5583 102.839 83.0339L106.643 88.2202C106.746 88.3609 106.717 88.5594 106.576 88.6635C106.52 88.7043 106.455 88.724 106.39 88.724ZM97.2659 83.7474C97.7613 83.7474 98.2553 83.7742 98.7353 83.8263C100.701 84.0402 102.497 84.6862 104.01 85.6995L102.33 83.4083C100.621 81.079 97.9696 79.6083 94.8621 79.2691C94.278 79.2057 93.67 79.1818 93.0676 79.2001L96.4215 83.7728C96.7002 83.7559 96.9845 83.7474 97.2659 83.7474Z" fill="#E7EEFB"/>
<mask id="mask2_530_26812" style="mask-type:luminance" maskUnits="userSpaceOnUse" x="92" y="78" width="15" height="11">
<mask id="mask3_530_26812" style="mask-type:luminance" maskUnits="userSpaceOnUse" x="92" y="78" width="15" height="11">
<path d="M102.586 83.2212L106.39 88.4075C104.683 86.0796 101.981 84.4991 98.7015 84.1416C98.2342 84.091 97.7557 84.0642 97.2673 84.0642C96.9352 84.0642 96.5988 84.0755 96.2695 84.1008L92.4653 78.9145C92.7946 78.8906 93.131 78.8779 93.4631 78.8779C93.9515 78.8779 94.43 78.9047 94.8973 78.9553C98.1765 79.3128 100.879 80.8933 102.586 83.2212Z" fill="white"/>
</mask>
<g mask="url(#mask3_530_26812)">
<path d="M106.39 88.724C106.293 88.724 106.196 88.679 106.134 88.5946C104.425 86.2653 101.774 84.7946 98.6663 84.4554C97.8936 84.3709 97.0745 84.3583 96.2906 84.4146C96.1822 84.4216 96.0767 84.3737 96.0119 84.2865L92.2077 79.1002C92.1402 79.0073 92.1275 78.8849 92.1753 78.7807C92.2232 78.6766 92.3245 78.6062 92.4399 78.5977C93.2619 78.5386 94.1204 78.5513 94.9296 78.64C98.2145 78.9989 101.024 80.5583 102.839 83.0339L106.643 88.2202C106.746 88.3609 106.717 88.5594 106.576 88.6635C106.52 88.7043 106.455 88.724 106.39 88.724ZM97.2659 83.7474C97.7613 83.7474 98.2553 83.7742 98.7353 83.8263C100.701 84.0402 102.497 84.6862 104.01 85.6995L102.33 83.4083C100.621 81.079 97.9696 79.6083 94.8621 79.2691C94.278 79.2057 93.67 79.1818 93.0676 79.2001L96.4215 83.7728C96.7002 83.7559 96.9845 83.7474 97.2659 83.7474Z" fill="white"/>
</g>
</mask>
<g mask="url(#mask2_530_26812)">
<path d="M102.586 83.2212L106.39 88.4075C104.683 86.0796 101.981 84.4991 98.7015 84.1416C98.2342 84.091 97.7557 84.0642 97.2673 84.0642C96.9352 84.0642 96.5988 84.0755 96.2695 84.1008L92.4653 78.9145C92.7946 78.8906 93.131 78.8779 93.4631 78.8779C93.9515 78.8779 94.43 78.9047 94.8973 78.9553C98.1765 79.3128 100.879 80.8933 102.586 83.2212Z" fill="#749AE7"/>
<path d="M106.39 88.724C106.293 88.724 106.196 88.679 106.134 88.5946C104.425 86.2653 101.774 84.7946 98.6663 84.4554C97.8936 84.3709 97.0745 84.3583 96.2906 84.4146C96.1822 84.4216 96.0767 84.3737 96.0119 84.2865L92.2077 79.1002C92.1402 79.0073 92.1275 78.8849 92.1753 78.7807C92.2232 78.6766 92.3245 78.6062 92.4399 78.5977C93.2619 78.5386 94.1204 78.5513 94.9296 78.64C98.2145 78.9989 101.024 80.5583 102.839 83.0339L106.643 88.2202C106.746 88.3609 106.717 88.5594 106.576 88.6635C106.52 88.7043 106.455 88.724 106.39 88.724ZM97.2659 83.7474C97.7613 83.7474 98.2553 83.7742 98.7353 83.8263C100.701 84.0402 102.497 84.6862 104.01 85.6995L102.33 83.4083C100.621 81.079 97.9696 79.6083 94.8621 79.2691C94.278 79.2057 93.67 79.1818 93.0676 79.2001L96.4215 83.7728C96.7002 83.7559 96.9845 83.7474 97.2659 83.7474Z" fill="#E7EEFB"/>
</g>
<path d="M95.4546 66.3857C95.9402 66.3857 96.4201 66.3984 96.8958 66.4237C108.517 67.0458 116.864 75.1848 117.625 85.9276L104.558 88.8564C104.287 83.6082 100.407 79.5548 94.8973 78.9539C94.43 78.9032 93.9515 78.8765 93.4631 78.8765C93.131 78.8765 92.7946 78.8877 92.4653 78.9131L91.5955 66.656C92.8678 66.4786 94.157 66.3857 95.4546 66.3857Z" fill="#0F51D5"/>
<path d="M104.558 89.1741C104.489 89.1741 104.421 89.1516 104.366 89.1094C104.292 89.0531 104.247 88.9672 104.241 88.8729C103.975 83.7119 100.206 79.8528 94.8621 79.2688C94.0908 79.1843 93.2703 79.1716 92.4864 79.2279C92.4034 79.2336 92.3203 79.2068 92.2556 79.1519C92.1922 79.0971 92.1528 79.0182 92.1472 78.9352L91.2774 66.6781C91.2662 66.512 91.3844 66.3656 91.549 66.3417C93.3336 66.0926 95.1478 66.0124 96.9113 66.1067C108.511 66.7274 117.158 74.8692 117.941 85.9047C117.952 86.0609 117.846 86.2016 117.694 86.2354L104.627 89.1642C104.604 89.1713 104.58 89.1741 104.558 89.1741ZM93.4631 78.5608C93.9585 78.5608 94.4525 78.5876 94.9325 78.6396C97.7008 78.9422 100.116 80.0836 101.92 81.9428C103.632 83.7063 104.639 85.9554 104.849 88.4676L117.289 85.6795C116.408 75.1113 108.054 67.3396 96.8789 66.74C95.2533 66.6528 93.5814 66.7175 91.9319 66.93L92.758 78.5777C92.9916 78.5665 93.2281 78.5608 93.4631 78.5608Z" fill="#E7EEFB"/>
<path d="M120.3 31.6426C118.991 30.1508 117.082 29.4062 115.056 29.4062C113.027 29.4062 110.881 30.1522 109.098 31.6426C107.312 33.1359 106.227 35.0908 105.914 37.0471C105.602 39.0034 106.064 40.9583 107.371 42.4501C108.68 43.942 110.587 44.6879 112.614 44.6879C114.642 44.6879 116.789 43.9405 118.577 42.4473C120.361 40.9554 121.447 39.002 121.759 37.0457C122.07 35.0908 121.61 33.1345 120.3 31.6426Z" fill="#E7EEFB"/>
<path d="M112.567 35.6123C112.878 35.6123 113.171 35.7263 113.374 35.9543C113.773 36.4103 113.657 37.1506 113.111 37.6066C112.835 37.8346 112.505 37.9486 112.196 37.9486C111.885 37.9486 111.593 37.8346 111.393 37.6066C110.994 37.1506 111.111 36.4103 111.657 35.9543C111.928 35.7263 112.256 35.6123 112.567 35.6123Z" fill="#E7EEFB"/>
<path d="M110.514 32.9297C111.118 32.9297 111.686 33.1521 112.076 33.5968C112.856 34.4849 112.626 35.9247 111.562 36.8127C111.03 37.2589 110.39 37.4812 109.785 37.4812C109.181 37.4812 108.612 37.2589 108.224 36.8155C107.444 35.9275 107.674 34.4849 108.738 33.5968C109.27 33.1521 109.91 32.9297 110.514 32.9297Z" fill="#E7EEFB"/>
<path d="M123.38 29.0667C126.864 33.0342 126.287 39.224 122.288 43.6334L122.033 43.3435C121.721 42.9888 121.265 42.8101 120.782 42.8101C120.3 42.8101 119.787 42.9874 119.361 43.3435C118.511 44.057 118.326 45.2083 118.95 45.9219L119.205 46.2118C116.946 47.6248 114.435 48.3313 112.038 48.3313C109.043 48.3313 106.225 47.2293 104.292 45.0253C100.424 40.6173 101.563 33.4733 106.838 29.0653C109.472 26.8627 112.642 25.7607 115.635 25.7607C118.628 25.7593 121.447 26.8613 123.38 29.0667ZM118.577 42.4456C120.361 40.9537 121.447 39.0002 121.759 37.0439C122.071 35.089 121.61 33.1327 120.301 31.6409C118.992 30.149 117.084 29.4045 115.057 29.4045C113.029 29.4045 110.883 30.1504 109.099 31.6409C107.313 33.1342 106.228 35.089 105.916 37.0453C105.603 39.0016 106.065 40.9565 107.373 42.4484C108.681 43.9402 110.588 44.6862 112.615 44.6862C114.642 44.6862 116.791 43.9388 118.577 42.4456Z" fill="#0F51D5"/>
<path d="M120.782 42.8105C121.265 42.8105 121.721 42.9879 122.033 43.344L122.288 43.6339L127.511 49.59C128.135 50.3008 127.95 51.4548 127.1 52.1656C126.675 52.5203 126.163 52.699 125.68 52.699C125.197 52.699 124.741 52.5217 124.43 52.1656L119.203 46.2108L118.948 45.9209C118.325 45.2074 118.509 44.0561 119.359 43.3425C119.787 42.9879 120.298 42.8105 120.782 42.8105Z" fill="#0F51D5"/>
</svg>
