<svg width="24" height="24" viewBox="0 0 24 24" fill="none" xmlns="http://www.w3.org/2000/svg">
<g clip-path="url(#clip0_1160_90067)">
<path d="M8.68947 1.50168C8.97076 1.22047 9.35223 1.0625 9.74997 1.0625C10.1477 1.0625 10.5292 1.22047 10.8105 1.50168L11.781 2.47068C11.9218 2.61151 12.0009 2.80252 12.0009 3.00168C12.0009 3.20084 11.9218 3.39185 11.781 3.53268C11.6401 3.67351 11.4491 3.75263 11.25 3.75263C11.0508 3.75263 10.8598 3.67351 10.719 3.53268L9.74997 2.56218L2.99997 9.31218V18.7517C2.99997 18.9506 3.07899 19.1414 3.21964 19.282C3.36029 19.4227 3.55106 19.5017 3.74997 19.5017C3.94888 19.5017 4.13965 19.5807 4.2803 19.7213C4.42095 19.862 4.49997 20.0528 4.49997 20.2517C4.49997 20.4506 4.42095 20.6414 4.2803 20.782C4.13965 20.9227 3.94888 21.0017 3.74997 21.0017C3.15323 21.0017 2.58094 20.7646 2.15898 20.3427C1.73702 19.9207 1.49997 19.3484 1.49997 18.7517V10.8122L1.28097 11.0327C1.14014 11.1735 0.949134 11.2526 0.749971 11.2526C0.550807 11.2526 0.359801 11.1735 0.218971 11.0327C0.0781409 10.8919 -0.00097656 10.7008 -0.000976562 10.5017C-0.000976565 10.3025 0.0781409 10.1115 0.218971 9.97068L8.68947 1.50168ZM13.1895 3.00168C13.4708 2.72047 13.8522 2.5625 14.25 2.5625C14.6477 2.5625 15.0292 2.72047 15.3105 3.00168L18 5.69118V3.75168C18 3.55277 18.079 3.362 18.2196 3.22135C18.3603 3.0807 18.5511 3.00168 18.75 3.00168H20.25C20.4489 3.00168 20.6396 3.0807 20.7803 3.22135C20.921 3.362 21 3.55277 21 3.75168V8.69118L23.781 11.4707C23.9218 11.6115 24.0009 11.8025 24.0009 12.0017C24.0009 12.2008 23.9218 12.3919 23.781 12.5327C23.6401 12.6735 23.4491 12.7526 23.25 12.7526C23.0508 12.7526 22.8598 12.6735 22.719 12.5327L22.5 12.3122V20.2517C22.5 20.8484 22.2629 21.4207 21.841 21.8427C21.419 22.2646 20.8467 22.5017 20.25 22.5017H8.24997C7.65323 22.5017 7.08094 22.2646 6.65898 21.8427C6.23702 21.4207 5.99997 20.8484 5.99997 20.2517V12.3122L5.78097 12.5327C5.71124 12.6024 5.62846 12.6577 5.53735 12.6955C5.44624 12.7332 5.34859 12.7526 5.24997 12.7526C5.15135 12.7526 5.0537 12.7332 4.9626 12.6955C4.87149 12.6577 4.7887 12.6024 4.71897 12.5327C4.64924 12.4629 4.59392 12.3802 4.55619 12.2891C4.51845 12.1979 4.49902 12.1003 4.49902 12.0017C4.49902 11.9031 4.51845 11.8054 4.55619 11.7143C4.59392 11.6232 4.64924 11.5404 4.71897 11.4707L13.1895 3.00168ZM14.25 4.06218L7.49997 10.8122V20.2517C7.49997 20.4506 7.57899 20.6414 7.71964 20.782C7.86029 20.9227 8.05106 21.0017 8.24997 21.0017H20.25C20.4489 21.0017 20.6396 20.9227 20.7803 20.782C20.921 20.6414 21 20.4506 21 20.2517V10.8122L14.25 4.06218Z" fill="#A4A4A4"/>
</g>
<defs>
<clipPath id="clip0_1160_90067">
<rect width="24" height="24" fill="white"/>
</clipPath>
</defs>
</svg>
