<svg width="152" height="152" viewBox="0 0 152 152" fill="none" xmlns="http://www.w3.org/2000/svg">
<path d="M76.0001 124.333C104.697 124.333 127.96 115.207 127.96 103.95C127.96 92.6924 104.697 83.5664 76.0001 83.5664C47.3034 83.5664 24.04 92.6924 24.04 103.95C24.04 115.207 47.3034 124.333 76.0001 124.333Z" fill="#E7EEFB"/>
<path d="M77.7072 43.5667C77.6072 43.4316 77.4932 43.3077 77.3666 43.1965C76.919 42.8053 76.3138 42.5801 75.6425 42.5801C75.4356 42.5801 75.2189 42.6026 74.9993 42.6476C74.8923 42.6701 74.7882 42.6983 74.6854 42.7293C74.6742 42.7321 74.6629 42.7349 74.6517 42.7377C74.6094 42.7518 74.5672 42.7673 74.525 42.7827C74.5081 42.7884 74.4898 42.794 74.4729 42.801C74.404 42.8278 74.335 42.8559 74.2674 42.8855C74.2632 42.8869 74.259 42.8897 74.2562 42.8911C74.1633 42.9333 74.0732 42.9798 73.9846 43.029C73.9789 43.0319 73.9747 43.0347 73.9691 43.0375C73.948 43.0502 73.9283 43.0642 73.9072 43.0769C73.8523 43.1107 73.7974 43.1444 73.7439 43.1796C73.734 43.1867 73.7228 43.1923 73.7129 43.1993C73.6918 43.2134 73.6721 43.2303 73.651 43.2458C73.6074 43.2781 73.5637 43.3091 73.5201 43.3429C73.5074 43.3527 73.4934 43.3626 73.4793 43.3724C73.4624 43.3865 73.4455 43.402 73.4286 43.4161C73.3878 43.4499 73.3484 43.485 73.309 43.5202C73.2935 43.5343 73.278 43.547 73.2626 43.561C73.233 43.5892 73.2034 43.6173 73.1753 43.6469C73.1373 43.6863 73.1007 43.7257 73.0641 43.7651C73.0543 43.775 73.0472 43.7862 73.0374 43.7975C72.9952 43.8453 72.9543 43.896 72.9149 43.9453C72.9009 43.9636 72.884 43.9804 72.8713 43.9987C72.8671 44.0044 72.8643 44.01 72.86 44.0156C72.7995 44.0959 72.7432 44.1789 72.6911 44.2647C72.6883 44.269 72.6855 44.2718 72.6827 44.276C72.6461 44.3365 72.6109 44.3984 72.5771 44.4604C72.5701 44.473 72.5645 44.4871 72.5574 44.4998C72.5349 44.5448 72.511 44.5899 72.4913 44.6349C72.4857 44.6462 72.4828 44.6574 72.4772 44.6687C72.4674 44.6926 72.4575 44.7165 72.4477 44.7419C72.428 44.7897 72.4097 44.8376 72.3928 44.8854C72.3829 44.9107 72.3745 44.9375 72.366 44.9628C72.3491 45.0135 72.3351 45.0627 72.321 45.1134C72.3154 45.1373 72.3083 45.1599 72.3027 45.1838C72.2844 45.257 72.2689 45.3316 72.2577 45.4062C72.2253 45.606 72.214 45.8115 72.2295 46.0156L72.3027 47.0824L75.3455 51.23L75.2723 50.1632C75.2569 49.9577 75.2681 49.7536 75.3005 49.5538C75.3117 49.4792 75.3286 49.4046 75.3455 49.3314C75.3511 49.3075 75.3582 49.285 75.3638 49.261C75.3779 49.2104 75.392 49.1597 75.4074 49.1104C75.4159 49.0851 75.4243 49.0584 75.4342 49.033C75.4511 48.9852 75.4694 48.9373 75.4891 48.8895C75.4989 48.8656 75.5088 48.8416 75.5186 48.8177C75.544 48.7614 75.5707 48.7051 75.5989 48.6488C75.6059 48.6362 75.6115 48.6221 75.6186 48.6094C75.6537 48.5433 75.6917 48.4771 75.7312 48.4124C75.7832 48.3279 75.8409 48.2449 75.9 48.1633C75.9183 48.1393 75.9366 48.1168 75.9563 48.0929C75.9957 48.0422 76.0366 47.993 76.0788 47.9451C76.1238 47.8944 76.1689 47.8438 76.2167 47.7945C76.2603 47.7509 76.3054 47.7101 76.3504 47.6679C76.3898 47.6327 76.4292 47.5975 76.47 47.5637C76.4996 47.5384 76.5306 47.513 76.5615 47.4891C76.6037 47.4553 76.6474 47.423 76.6924 47.392C76.7234 47.3695 76.7529 47.347 76.7853 47.3259C76.8388 47.2907 76.8937 47.2569 76.9486 47.2231C76.9753 47.2076 77.0006 47.1907 77.0274 47.1753C77.116 47.126 77.2061 47.0796 77.299 47.0373C77.3708 47.005 77.4426 46.974 77.5172 46.9459C77.534 46.9388 77.5523 46.9332 77.5692 46.9276C77.6227 46.9079 77.6762 46.891 77.7311 46.8741C77.8338 46.8431 77.938 46.8136 78.0449 46.7924C78.2645 46.7474 78.4812 46.7249 78.6881 46.7249C79.3609 46.7249 79.966 46.9501 80.4122 47.3413C80.5389 47.4525 80.6529 47.575 80.7528 47.7115L77.7072 43.5667Z" fill="#386FDC"/>
<path d="M75.3442 51.5126C75.2569 51.5126 75.1711 51.4718 75.1176 51.3972L72.0748 47.2481C72.0438 47.2045 72.0241 47.1538 72.0213 47.1004L71.9481 46.0335C71.9312 45.8168 71.9425 45.5888 71.9791 45.3594C71.9917 45.2834 72.0072 45.2046 72.0283 45.1159C72.0326 45.0976 72.0382 45.0793 72.0424 45.061L72.048 45.0399C72.0635 44.985 72.079 44.9287 72.0973 44.8752C72.1071 44.8471 72.117 44.8189 72.1268 44.7894C72.1451 44.7373 72.1648 44.6852 72.1874 44.6332L72.1944 44.6149C72.2029 44.5952 72.2113 44.5741 72.2197 44.5544L72.2352 44.5178C72.2563 44.4699 72.2803 44.4249 72.3042 44.3784L72.3295 44.3292C72.3647 44.2616 72.4027 44.1941 72.4435 44.1279C72.4463 44.1223 72.4548 44.111 72.459 44.1054C72.5069 44.0266 72.5688 43.9351 72.6349 43.8464C72.6349 43.845 72.642 43.8366 72.6476 43.8267C72.6574 43.8141 72.6687 43.8 72.6814 43.7859L72.694 43.7704C72.7363 43.7155 72.7799 43.6621 72.8263 43.61C72.8376 43.5945 72.846 43.5847 72.8545 43.5762C72.8939 43.5326 72.9333 43.4904 72.9741 43.4481C73.0051 43.4172 73.036 43.3862 73.0684 43.3567C73.0811 43.3454 73.0923 43.3341 73.105 43.3243L73.1177 43.313C73.1585 43.275 73.2021 43.237 73.2457 43.2004L73.2612 43.1864C73.2739 43.1751 73.2866 43.1638 73.3006 43.1526C73.3119 43.1441 73.3231 43.1357 73.3344 43.1272C73.3893 43.0836 73.4371 43.0498 73.485 43.0147L73.5033 43.0006C73.5188 42.9879 73.5343 42.9767 73.5511 42.9654C73.561 42.9584 73.5708 42.9527 73.5807 42.9457C73.6412 42.9049 73.7003 42.8697 73.7594 42.8331L73.7777 42.8218C73.7932 42.812 73.8101 42.8007 73.827 42.7909C73.8326 42.7881 73.8453 42.781 73.8509 42.7782C73.9396 42.7275 74.0381 42.6783 74.1352 42.6332C74.1352 42.6332 74.1479 42.6276 74.1479 42.6262C74.2211 42.5938 74.2957 42.5629 74.3703 42.5347C74.3829 42.5305 74.397 42.5249 74.4097 42.5207L74.4491 42.5066C74.4871 42.4925 74.5251 42.4798 74.5631 42.4672C74.5757 42.4629 74.5884 42.4601 74.6011 42.4573C74.7249 42.4193 74.8361 42.3912 74.9403 42.3701C75.1781 42.3222 75.4131 42.2969 75.6397 42.2969C76.3646 42.2969 77.0429 42.5404 77.5496 42.9823C77.6917 43.1075 77.8212 43.2469 77.931 43.3975L80.9724 47.5437L80.9738 47.5451C81.0653 47.6704 81.0386 47.8463 80.9133 47.9392C80.788 48.0307 80.6121 48.0039 80.5192 47.8787C80.4334 47.7618 80.3334 47.6521 80.2208 47.555C79.8169 47.2017 79.2708 47.0075 78.6811 47.0075C78.4911 47.0075 78.2941 47.0286 78.0943 47.0694C78.0084 47.0877 77.9141 47.1116 77.8072 47.144C77.7565 47.1595 77.7072 47.175 77.658 47.1932L77.6101 47.2101C77.5426 47.2355 77.475 47.2636 77.4103 47.2932C77.3272 47.3312 77.2428 47.3734 77.1597 47.4212C77.1471 47.4283 77.1344 47.4367 77.1217 47.4452L77.088 47.4663C77.0373 47.4972 76.9866 47.5282 76.9374 47.5606C76.9134 47.5761 76.8895 47.5929 76.867 47.6098L76.8529 47.6197C76.8121 47.6492 76.7713 47.6788 76.7319 47.7098C76.7037 47.7323 76.6756 47.7548 76.6474 47.7787C76.6108 47.8097 76.5743 47.8421 76.5377 47.8758L76.5236 47.8885C76.487 47.9223 76.4504 47.9561 76.4152 47.9912C76.3716 48.0363 76.3294 48.0827 76.2886 48.1292C76.2491 48.1742 76.2126 48.2192 76.176 48.2657L76.1534 48.2952C76.1436 48.3065 76.1337 48.3192 76.1253 48.3304C76.069 48.4064 76.0169 48.4838 75.9691 48.5584C75.9325 48.6175 75.8973 48.6781 75.8649 48.7386L75.848 48.7738C75.8227 48.8244 75.7974 48.8751 75.7749 48.9272L75.7467 48.9933C75.7284 49.0369 75.7115 49.0792 75.696 49.1242C75.6876 49.1481 75.6791 49.1707 75.6721 49.1946C75.658 49.2396 75.644 49.2861 75.6313 49.3311L75.6144 49.3944C75.5989 49.4606 75.5848 49.5267 75.5736 49.5943C75.544 49.7801 75.5356 49.963 75.5483 50.1389L75.6214 51.2072C75.6299 51.3324 75.5553 51.4478 75.4371 51.4901C75.4089 51.507 75.3766 51.5126 75.3442 51.5126ZM72.5772 46.9821L74.998 50.2825L74.9909 50.184C74.974 49.9672 74.9853 49.7392 75.0219 49.5098C75.0346 49.4338 75.05 49.3536 75.0711 49.2664C75.0754 49.2481 75.081 49.2298 75.0852 49.2115L75.0908 49.1889C75.1063 49.1341 75.1218 49.0792 75.1387 49.0243C75.1486 48.9961 75.1584 48.9666 75.1683 48.9384C75.1866 48.8864 75.2077 48.8343 75.2288 48.7822L75.2372 48.7625C75.2457 48.7428 75.2541 48.7231 75.2626 48.7034C75.2893 48.6415 75.3189 48.5809 75.3498 48.5204L75.3709 48.4782C75.4089 48.4064 75.4497 48.3347 75.4934 48.2657C75.5483 48.1756 75.6102 48.0855 75.6763 47.9969C75.689 47.9786 75.7031 47.9617 75.7171 47.9434L75.7354 47.9195C75.7777 47.8646 75.8213 47.8111 75.8677 47.759C75.9156 47.7041 75.9648 47.6492 76.0169 47.5972C76.0591 47.555 76.1028 47.5141 76.1464 47.4747L76.1605 47.4621C76.2027 47.4241 76.2449 47.3861 76.2886 47.3495C76.3209 47.3227 76.3533 47.2946 76.3871 47.2692C76.4321 47.2327 76.48 47.1989 76.5278 47.1651L76.5419 47.1552C76.57 47.1341 76.5982 47.1144 76.6277 47.0947C76.6854 47.0567 76.7446 47.0201 76.8037 46.9835L76.8304 46.9681C76.8501 46.9568 76.8684 46.9441 76.8881 46.9329C76.9852 46.878 77.0837 46.8287 77.1809 46.7837C77.2583 46.7485 77.3357 46.7161 77.4159 46.6852L77.4722 46.6655C77.5299 46.6444 77.5876 46.6261 77.6467 46.6078C77.7706 46.5698 77.8817 46.5416 77.9859 46.5191C78.5404 46.4051 79.0766 46.4276 79.5636 46.5712L77.4806 43.7324C77.3948 43.6142 77.2934 43.5058 77.1823 43.4087C76.7783 43.0555 76.2309 42.8612 75.6426 42.8612C75.4526 42.8612 75.2555 42.8824 75.0557 42.9232C74.9684 42.9415 74.8769 42.9654 74.7686 42.9978C74.7573 43.0006 74.746 43.0034 74.7348 43.0062C74.7066 43.0147 74.6757 43.0259 74.6447 43.0372L74.5729 43.0625C74.5082 43.0864 74.4449 43.1132 74.3829 43.1413C74.2886 43.1849 74.2042 43.2286 74.1211 43.275C74.1155 43.2778 74.1028 43.2849 74.0972 43.2877C74.1 43.2863 74.0916 43.2919 74.086 43.2961C74.0747 43.3032 74.062 43.3116 74.0494 43.3187C73.9973 43.3496 73.9466 43.3806 73.8974 43.4129C73.8889 43.4186 73.8791 43.4242 73.8706 43.4298C73.8608 43.4369 73.8537 43.4425 73.8467 43.4481L73.8129 43.4735C73.7721 43.503 73.7313 43.5326 73.6919 43.5635C73.6834 43.5706 73.6736 43.5776 73.6637 43.5847L73.6384 43.6058C73.6285 43.6142 73.6187 43.6241 73.6074 43.6325C73.5708 43.6635 73.5343 43.6958 73.4977 43.7282L73.454 43.7662C73.4273 43.7915 73.4006 43.8183 73.3738 43.845C73.3386 43.8802 73.3048 43.9168 73.2711 43.9548C73.2612 43.9675 73.2542 43.9759 73.2457 43.9844C73.2077 44.028 73.1697 44.0744 73.1346 44.1195C73.1261 44.1307 73.1163 44.142 73.1078 44.1518L73.0937 44.1687C73.0937 44.1687 73.0895 44.1758 73.0839 44.1828C73.0262 44.2602 72.9741 44.3362 72.9277 44.4122C72.9248 44.4164 72.9206 44.4235 72.9164 44.4277C72.8826 44.4826 72.8531 44.5375 72.8235 44.5924L72.8052 44.629C72.7827 44.674 72.763 44.7134 72.7447 44.7514L72.7053 44.8485C72.687 44.8921 72.6701 44.9344 72.6546 44.9794C72.6462 45.0033 72.6377 45.0272 72.6307 45.0498C72.6166 45.0948 72.6026 45.1412 72.5913 45.1863L72.5744 45.2496C72.5589 45.3158 72.5448 45.3819 72.5336 45.4495C72.504 45.6352 72.4956 45.8182 72.5083 45.9941L72.5772 46.9821Z" fill="#E7EEFB"/>
<path d="M79.0863 49.5716L76.0435 45.424C76.0112 45.3803 75.9746 45.3395 75.9338 45.3043C75.7874 45.1777 75.5932 45.1045 75.3778 45.1045C75.3089 45.1059 75.2399 45.1129 75.1681 45.127C75.1301 45.1355 75.0921 45.1453 75.0555 45.1566C75.0443 45.1608 75.0344 45.165 75.0232 45.1692C75.0063 45.1749 74.9908 45.1819 74.9753 45.1875C74.9612 45.1932 74.9457 45.1974 74.9317 45.2044C74.9063 45.2157 74.8838 45.2283 74.8599 45.241C74.8543 45.2438 74.8486 45.2466 74.8444 45.2495C74.8416 45.2509 74.8402 45.2523 74.8374 45.2537C74.8092 45.2692 74.7825 45.286 74.7557 45.3043C74.7431 45.3128 74.7304 45.3226 74.7192 45.3325C74.7135 45.3367 74.7065 45.3423 74.7009 45.3466C74.6952 45.3508 74.6882 45.355 74.6826 45.3592C74.6586 45.3789 74.6361 45.3986 74.6136 45.4197C74.6023 45.4296 74.5925 45.4409 74.5826 45.4507C74.57 45.4634 74.5573 45.4775 74.5446 45.4901C74.5221 45.514 74.501 45.5408 74.4813 45.5661C74.4799 45.5675 74.4785 45.5703 74.4771 45.5732C74.4729 45.5788 74.47 45.5844 74.4658 45.59C74.4503 45.6126 74.4349 45.6337 74.4208 45.6576C74.4138 45.6689 74.4081 45.6815 74.4025 45.6928C74.3941 45.7083 74.3856 45.7237 74.3772 45.7392C74.3715 45.7505 74.3645 45.7618 74.3589 45.773C74.3504 45.7927 74.3434 45.8138 74.3363 45.8335C74.3307 45.8476 74.3251 45.8617 74.3195 45.8772C74.304 45.9236 74.2913 45.97 74.2843 46.0179C74.2744 46.0826 74.2716 46.1488 74.2758 46.2149L74.3349 47.0847L77.3777 51.2323L77.3186 50.3626C77.3144 50.2964 77.3172 50.2303 77.3271 50.1655C77.3341 50.1177 77.3468 50.0712 77.3623 50.0248C77.3665 50.0107 77.3735 49.9966 77.3792 49.9812C77.3918 49.9488 77.4045 49.9178 77.42 49.8869C77.4284 49.8714 77.4369 49.8559 77.4453 49.8404C77.465 49.8052 77.4861 49.7715 77.51 49.7377C77.5143 49.732 77.5171 49.7264 77.5213 49.7208C77.5537 49.6786 77.5875 49.6363 77.6255 49.5983C77.662 49.5603 77.7015 49.5266 77.7437 49.4928C77.7493 49.4886 77.7563 49.4829 77.762 49.4787C77.8014 49.4492 77.8436 49.421 77.8872 49.3957C77.8929 49.3929 77.8985 49.39 77.9027 49.3872C77.9407 49.3675 77.9787 49.3492 78.0195 49.3337C78.035 49.3267 78.0519 49.3211 78.0674 49.3155C78.1138 49.2986 78.1617 49.2845 78.2123 49.2732C78.2841 49.2592 78.3531 49.2521 78.422 49.2507C78.6374 49.2507 78.8316 49.3239 78.978 49.4506C79.0174 49.4886 79.054 49.528 79.0863 49.5716Z" fill="#386FDC"/>
<path d="M77.3764 51.5125C77.2892 51.5125 77.2033 51.4717 77.1498 51.3971L74.107 47.2481C74.076 47.2045 74.0563 47.1538 74.0535 47.1003L73.9944 46.2305C73.9888 46.1419 73.9916 46.0546 74.0057 45.9702C74.0155 45.9125 74.0296 45.8519 74.0507 45.7858C74.0563 45.7703 74.062 45.7548 74.0676 45.7393L74.076 45.7154C74.0831 45.6943 74.0915 45.6732 74.1 45.6535C74.1056 45.6394 74.1141 45.6254 74.1211 45.6127C74.1323 45.5902 74.1422 45.5705 74.1535 45.5508C74.1619 45.5339 74.1689 45.5198 74.1774 45.5071C74.1943 45.479 74.214 45.4508 74.2337 45.4241C74.2379 45.4171 74.2421 45.41 74.2477 45.403C74.2787 45.3622 74.3041 45.3298 74.3322 45.3002C74.3477 45.2834 74.3632 45.2665 74.3786 45.251C74.3899 45.2397 74.404 45.2256 74.4166 45.213C74.4434 45.1876 74.4729 45.1623 74.5011 45.1384C74.5053 45.1356 74.5194 45.1243 74.5236 45.1215L74.556 45.0962C74.5672 45.0877 74.5799 45.0779 74.5926 45.0694C74.6263 45.0469 74.6601 45.0258 74.6939 45.0061C74.6995 45.0033 74.708 44.9991 74.7136 44.9962L74.7249 44.9906C74.7516 44.9765 74.7812 44.9596 74.8121 44.9456C74.8276 44.9385 74.8431 44.9329 74.8586 44.9273C74.8867 44.916 74.9064 44.909 74.9275 44.9005C74.9416 44.8949 74.9543 44.8893 74.9683 44.8851C75.0148 44.871 75.0612 44.8583 75.1091 44.8485C75.1949 44.8316 75.2794 44.8217 75.3695 44.8203C75.6538 44.8203 75.9155 44.916 76.1154 45.0891C76.1731 45.1398 76.2238 45.1961 76.2674 45.2552L79.3088 49.4028C79.3088 49.4028 79.3088 49.4042 79.3102 49.4042C79.4017 49.5295 79.3749 49.7054 79.2497 49.7983C79.1244 49.8898 78.9485 49.8631 78.8556 49.7378C78.8359 49.7111 78.8134 49.6857 78.7866 49.6632C78.6895 49.5788 78.5586 49.5323 78.4165 49.5323C78.3658 49.5337 78.3123 49.5394 78.2617 49.5492C78.2335 49.5548 78.1998 49.5647 78.1547 49.5802C78.142 49.5844 78.1294 49.59 78.1181 49.5942C78.0886 49.6055 78.059 49.6196 78.0309 49.6351C78.028 49.6365 78.0168 49.6421 78.014 49.6435C77.9886 49.6576 77.9577 49.6787 77.9239 49.704L77.7381 49.4915L77.9098 49.7139C77.8746 49.7406 77.8465 49.7674 77.8198 49.7927C77.7916 49.8222 77.7649 49.8532 77.7395 49.887L77.7311 49.8996C77.7128 49.925 77.6973 49.9503 77.6832 49.9771C77.6762 49.9883 77.6706 49.9996 77.6649 50.0122C77.6537 50.0348 77.6438 50.0573 77.6354 50.0798L77.6283 50.0981C77.6115 50.1474 77.603 50.1797 77.5988 50.2079C77.5918 50.2487 77.5903 50.2951 77.5932 50.3416L77.6523 51.2114C77.6607 51.3366 77.5861 51.452 77.4679 51.4942C77.4412 51.5069 77.4088 51.5125 77.3764 51.5125ZM74.6095 46.9821L77.0344 50.2881C77.0344 50.2318 77.0401 50.1755 77.0485 50.1206C77.0583 50.0629 77.0724 50.0024 77.0935 49.9362C77.0978 49.9208 77.1048 49.9067 77.1104 49.8912C77.1301 49.8405 77.147 49.7997 77.1667 49.7603C77.1766 49.7406 77.1878 49.7209 77.1977 49.7012C77.223 49.6576 77.2498 49.6139 77.2793 49.5717C77.2835 49.5661 77.2892 49.5576 77.2948 49.5492C77.3342 49.4971 77.3778 49.4451 77.4243 49.3986C77.4665 49.355 77.5158 49.3128 77.5692 49.2691C77.5706 49.2677 77.5847 49.2579 77.5861 49.2565C77.6452 49.2128 77.6959 49.1791 77.748 49.1495C77.7522 49.1467 77.7649 49.1411 77.7691 49.1382C77.8141 49.1143 77.862 49.0918 77.9126 49.0721C77.9323 49.0637 77.9535 49.0566 77.9732 49.0482C78.0407 49.0242 78.097 49.0088 78.1533 48.9961C78.2026 48.9862 78.2504 48.9792 78.3011 48.975L75.817 45.5888C75.7973 45.562 75.7748 45.5367 75.7481 45.5142C75.6509 45.4311 75.5201 45.3833 75.3779 45.3833C75.3272 45.3847 75.2737 45.3903 75.2231 45.4002C75.1963 45.4058 75.1682 45.4128 75.1415 45.4213C75.1358 45.4241 75.126 45.4283 75.1175 45.4311C75.1049 45.4353 75.0936 45.441 75.0809 45.4452L75.0528 45.4551C75.0289 45.4649 75.0106 45.4748 74.9937 45.4846C74.9909 45.486 74.9796 45.4916 74.9754 45.4931C74.974 45.4945 74.9712 45.4959 74.9698 45.4959C74.9515 45.5071 74.9317 45.5184 74.9149 45.5311L74.8867 45.5522L74.7009 45.3396L74.874 45.562C74.8712 45.5634 74.86 45.5733 74.8572 45.5747C74.8417 45.5874 74.8234 45.6028 74.8065 45.6183L74.7826 45.6422C74.7713 45.6535 74.7615 45.6633 74.753 45.6732C74.7375 45.6901 74.7235 45.707 74.7094 45.7253C74.7066 45.7281 74.7052 45.7309 74.7037 45.7337C74.7023 45.7365 74.6967 45.745 74.6939 45.7478C74.6812 45.7647 74.67 45.7802 74.6601 45.7971L74.646 45.8238C74.639 45.8365 74.6334 45.8477 74.6278 45.859L74.5912 45.9462C74.5743 45.9955 74.5658 46.0279 74.5616 46.056C74.5546 46.0968 74.5532 46.1433 74.556 46.1897L74.6095 46.9821Z" fill="#E7EEFB"/>
<path d="M80.1602 49.7786C80.156 49.7096 80.1462 49.642 80.1335 49.5759C80.1335 49.5731 80.1321 49.5703 80.1307 49.5674C80.1152 49.4943 80.0969 49.4225 80.0716 49.3535C80.0505 49.2958 80.0265 49.2395 79.9984 49.1846C79.997 49.1804 79.9942 49.1776 79.9913 49.1734C79.9843 49.1593 79.9745 49.1452 79.9674 49.1311C79.9505 49.1016 79.9336 49.0706 79.9153 49.0425C79.9041 49.0256 79.8914 49.0073 79.8788 48.9904L76.8359 44.8428C76.8683 44.8878 76.8965 44.9357 76.9246 44.9835C76.933 44.9976 76.9415 45.0103 76.9485 45.0257C76.9795 45.0834 77.0062 45.144 77.0288 45.2059C77.0541 45.2748 77.0724 45.3452 77.0879 45.4198C77.1019 45.4874 77.1118 45.5577 77.116 45.6295L77.2145 47.082L80.2573 51.2296L80.1602 49.7786Z" fill="#0F51D5"/>
<path d="M80.2589 51.5125C80.1717 51.5125 80.0858 51.4717 80.0323 51.3971L76.9895 47.2481C76.9586 47.2045 76.9389 47.1538 76.936 47.1003L76.8375 45.6479C76.8333 45.5902 76.8263 45.5339 76.8136 45.4748C76.8009 45.4128 76.7854 45.3537 76.7657 45.3002C76.7489 45.2524 76.7277 45.2045 76.701 45.1553L76.6813 45.1229C76.6588 45.0835 76.6363 45.0441 76.6109 45.0103V45.0089C76.5195 44.8837 76.5462 44.7077 76.6715 44.6148C76.7967 44.5234 76.9726 44.5501 77.0655 44.6754L77.0669 44.6768L80.1083 48.823C80.1238 48.8427 80.1379 48.8638 80.152 48.8849C80.1717 48.9131 80.1886 48.944 80.2054 48.9736L80.2153 48.9905C80.2266 49.0088 80.2336 49.0214 80.2406 49.0341C80.2449 49.0411 80.2491 49.0496 80.2519 49.0538C80.2857 49.12 80.3152 49.1875 80.3406 49.2565C80.3687 49.3339 80.3912 49.4155 80.4095 49.5014C80.4109 49.5098 80.4137 49.5168 80.4151 49.5239C80.4292 49.5971 80.4405 49.6773 80.4447 49.7575L80.5432 51.2099C80.5517 51.3352 80.4771 51.4506 80.3588 51.4928C80.3237 51.5069 80.2913 51.5125 80.2589 51.5125ZM77.492 46.9821L79.9127 50.2825L79.8803 49.7983C79.8761 49.7448 79.8705 49.6914 79.8606 49.6407C79.8592 49.6351 79.8578 49.6294 79.8564 49.6252C79.8437 49.5633 79.8283 49.5056 79.8086 49.4521C79.7931 49.4071 79.7734 49.3634 79.7523 49.3226C79.7494 49.317 79.7452 49.31 79.7438 49.3071L79.7129 49.2537C79.703 49.2368 79.6931 49.2185 79.6833 49.203C79.6734 49.1889 79.6636 49.1748 79.6537 49.1622L77.4357 46.1377L77.492 46.9821Z" fill="#E7EEFB"/>
<path d="M59.8152 47.084H71.3573L71.6402 51.2302L58.7314 53.8747L59.8152 47.084Z" fill="#E7EEFB"/>
<path d="M58.7313 54.1559C58.6595 54.1559 58.5891 54.1277 58.5371 54.0785C58.4709 54.0152 58.4385 53.9223 58.454 53.8308L59.5377 47.0386C59.5588 46.9021 59.6771 46.8008 59.8164 46.8008H71.3585C71.5063 46.8008 71.6288 46.9148 71.64 47.0626L71.9229 51.2088C71.9328 51.3495 71.8371 51.4748 71.6991 51.5043L58.7904 54.1503C58.7693 54.1545 58.7496 54.1559 58.7313 54.1559ZM60.0542 47.3652L59.0733 53.5183L71.3416 51.0033L71.0939 47.3652H60.0542Z" fill="#E7EEFB"/>
<path d="M71.6397 51.2295L74.6825 55.3771L61.7738 58.023L58.731 53.874L71.6397 51.2295Z" fill="#787070"/>
<path d="M61.774 58.3044C61.6853 58.3044 61.6009 58.2622 61.5474 58.189L58.5046 54.04C58.4483 53.9626 58.4342 53.8613 58.4694 53.7726C58.5046 53.6825 58.582 53.6178 58.6749 53.5981L71.5836 50.9521C71.6906 50.9296 71.8018 50.9733 71.8665 51.0619L74.9093 55.211C74.9656 55.2884 74.9797 55.3897 74.9445 55.4784C74.9093 55.5684 74.8319 55.6332 74.739 55.6529L61.8303 58.2988C61.812 58.303 61.7923 58.3044 61.774 58.3044ZM59.2181 54.0625L61.895 57.7119L74.1972 55.1913L71.5203 51.5419L59.2181 54.0625Z" fill="#E7EEFB"/>
<path d="M73.6634 60.537C73.3679 60.2781 73.1765 59.9121 73.1469 59.473L72.5713 51.037L73.6437 50.8175L73.9351 55.0791C73.9491 55.2874 74.1166 55.4295 74.3291 55.4295C74.3615 55.4295 74.3953 55.4267 74.4305 55.4183C74.688 55.3648 74.8837 55.1284 74.8668 54.8877L74.5754 50.6261L76.4881 50.2334L77.0651 58.6694C77.0736 58.8059 77.0665 58.9396 77.0454 59.0733C76.9765 59.5026 76.7569 59.9107 76.4388 60.2358C76.118 60.5609 75.7014 60.8016 75.2313 60.8987C75.0877 60.9269 74.9442 60.9424 74.8063 60.9424C74.3601 60.9438 73.9604 60.796 73.6634 60.537Z" fill="#0F51D5"/>
<path d="M74.8034 61.2254C74.3024 61.2254 73.8323 61.0565 73.4791 60.7497L73.4777 60.7482C73.1117 60.4274 72.9006 59.9925 72.8668 59.4928L72.2912 51.0568C72.2814 50.9161 72.3771 50.7908 72.515 50.7613L73.5874 50.5417C73.6663 50.5248 73.7493 50.5445 73.814 50.5938C73.8788 50.6431 73.9196 50.7177 73.9238 50.7993L74.2151 55.0609C74.2208 55.1397 74.2968 55.1482 74.3291 55.1482C74.3432 55.1482 74.3587 55.1468 74.3742 55.1439C74.5037 55.1172 74.5923 54.9976 74.5867 54.9089L74.2954 50.6473C74.2855 50.5065 74.3812 50.3813 74.5191 50.3517L76.4318 49.9591C76.512 49.9422 76.5937 49.9619 76.6584 50.0111C76.7231 50.0604 76.764 50.135 76.7682 50.2166L77.3452 58.6526C77.3551 58.8102 77.3466 58.9679 77.3227 59.1199C77.2467 59.5956 77.0032 60.0628 76.6387 60.4358C76.2643 60.8144 75.7971 61.0705 75.2876 61.1775C75.1229 61.2099 74.9611 61.2254 74.8034 61.2254ZM73.8478 60.326C74.1828 60.616 74.6697 60.7271 75.1736 60.6258C75.5733 60.5428 75.9406 60.3401 76.2362 60.0417C76.5191 59.7532 76.7077 59.3943 76.7654 59.0326C76.7837 58.92 76.7893 58.806 76.7823 58.6906L76.2277 50.5783L74.8724 50.8556L75.1469 54.8723C75.1736 55.2537 74.8823 55.6154 74.4868 55.6971C74.4347 55.7083 74.3812 55.7139 74.3291 55.7139C73.9618 55.7139 73.6789 55.4564 73.6536 55.1017L73.3848 51.161L72.8697 51.2665L73.4284 59.4562C73.4523 59.8039 73.5973 60.1051 73.8478 60.326Z" fill="#E7EEFB"/>
<path d="M72.3013 47.083H73.3892L73.6439 50.8183L72.5715 51.0378L72.3013 47.083Z" fill="#E7EEFB"/>
<path d="M72.5715 51.3195C72.511 51.3195 72.4505 51.2998 72.4012 51.2618C72.3365 51.2126 72.2957 51.138 72.2914 51.0563L72.0212 47.1015C72.0156 47.0241 72.0437 46.9467 72.0958 46.8904C72.1493 46.8341 72.2239 46.8018 72.3013 46.8018H73.3878C73.5356 46.8018 73.658 46.9158 73.6693 47.0635L73.924 50.7988C73.9339 50.9395 73.8382 51.0648 73.7003 51.0944L72.6278 51.3139C72.6095 51.3181 72.5912 51.3195 72.5715 51.3195ZM72.6025 47.3647L72.8305 50.6975L73.3456 50.5919L73.1246 47.3647H72.6025Z" fill="#E7EEFB"/>
<path d="M82.2911 51.5125C82.2039 51.5125 82.118 51.4717 82.0645 51.3971L79.0217 47.2481C78.9908 47.2044 78.9711 47.1538 78.9682 47.1003L78.7994 44.6289C78.7951 44.5599 78.7881 44.4924 78.7782 44.4248L78.7684 44.3615C78.7614 44.3179 78.7543 44.2728 78.7459 44.2292C78.7374 44.1856 78.7262 44.1433 78.7149 44.1011L78.6966 44.0251C78.6783 43.959 78.6572 43.8928 78.6333 43.8295C78.5995 43.738 78.5587 43.6423 78.5066 43.5381L78.4883 43.5001C78.4475 43.4227 78.4025 43.3439 78.3518 43.2679C78.3222 43.2229 78.2983 43.1863 78.2716 43.1511C78.1801 43.0259 78.2068 42.8499 78.3321 42.757C78.3828 42.7204 78.4405 42.7021 78.4982 42.7021C78.5854 42.7021 78.6699 42.7416 78.7248 42.8176L81.7676 46.9666C81.7957 47.0046 81.8225 47.044 81.8492 47.0834C81.8534 47.0904 81.8647 47.1087 81.8689 47.1158C81.9238 47.2002 81.9787 47.2917 82.0251 47.3818C82.0308 47.3902 82.035 47.3987 82.0392 47.4085C82.0434 47.417 82.0491 47.4296 82.0547 47.4437C82.1138 47.5605 82.1631 47.6759 82.2039 47.7871C82.232 47.8645 82.2574 47.9433 82.2799 48.0236C82.2855 48.0433 82.2897 48.0616 82.2939 48.0813L82.2996 48.1066C82.3137 48.1601 82.3263 48.2136 82.3376 48.2699C82.3376 48.2713 82.3404 48.2797 82.3418 48.2881C82.3488 48.3219 82.3545 48.3571 82.3587 48.3923C82.3587 48.3923 82.3742 48.4852 82.3756 48.5035C82.3868 48.5823 82.3939 48.6625 82.3995 48.7441L82.5684 51.2141C82.5768 51.3394 82.5022 51.4548 82.384 51.497C82.3559 51.5069 82.3235 51.5125 82.2911 51.5125Z" fill="#386FDC"/>
<path d="M78.498 42.9869L81.5409 47.1359C81.5662 47.1711 81.5915 47.2063 81.6155 47.2429C81.6211 47.2499 81.6239 47.2584 81.6295 47.2654C81.683 47.3484 81.7337 47.4329 81.7801 47.5215C81.7829 47.5272 81.7858 47.5314 81.7886 47.537C81.7928 47.5455 81.7956 47.5553 81.8012 47.5652C81.8533 47.6693 81.9012 47.7749 81.9406 47.8861C81.9659 47.9564 81.9884 48.0296 82.0095 48.1028C82.0166 48.1281 82.0222 48.1535 82.0278 48.1788C82.0405 48.2281 82.0532 48.2773 82.063 48.328C82.0644 48.3336 82.0658 48.3392 82.0672 48.3449C82.0757 48.3871 82.0813 48.4293 82.0883 48.4715C82.0926 48.4955 82.0968 48.518 82.0996 48.5419C82.1095 48.6151 82.1165 48.6883 82.1221 48.7629L82.291 51.2343L79.2482 47.0867L79.0793 44.6152C79.0737 44.5407 79.0666 44.4661 79.0568 44.3943C79.054 44.3704 79.0483 44.3478 79.0455 44.3239C79.0385 44.2761 79.03 44.2282 79.0216 44.1804C79.0117 44.1297 78.9991 44.0804 78.9864 44.0312C78.9794 44.0058 78.9752 43.9805 78.9681 43.9566C78.947 43.8834 78.9245 43.8102 78.8992 43.7398C78.8583 43.6287 78.8119 43.5231 78.7598 43.419C78.7528 43.4049 78.7458 43.3908 78.7387 43.3767C78.6923 43.2881 78.6416 43.2036 78.5881 43.1206C78.5572 43.0727 78.529 43.0291 78.498 42.9869ZM78.9526 42.6533L78.498 42.9869L78.0435 43.3204C78.0674 43.3528 78.0899 43.3866 78.111 43.4204C78.1589 43.495 78.2011 43.5639 78.2363 43.6315L78.2405 43.6399L78.2532 43.6667C78.301 43.7624 78.3376 43.8468 78.3672 43.9284C78.3869 43.9847 78.4066 44.0438 78.4235 44.1058C78.4249 44.1128 78.4263 44.1198 78.4291 44.1269C78.4319 44.141 78.4361 44.1536 78.4389 44.1677C78.4502 44.2099 78.46 44.2507 78.4685 44.2901C78.4769 44.3281 78.4826 44.3675 78.4882 44.4084L78.4938 44.4464C78.4952 44.4534 78.4966 44.4604 78.4966 44.4675C78.5051 44.5322 78.5107 44.5927 78.5149 44.6518L78.6838 47.1232C78.6909 47.2302 78.7289 47.3315 78.7922 47.4174L81.835 51.565C81.9434 51.7128 82.1137 51.7944 82.2896 51.7944C82.3543 51.7944 82.4191 51.7832 82.4824 51.7607C82.7175 51.6748 82.868 51.444 82.8512 51.1935L82.6823 48.7221C82.6766 48.639 82.6682 48.5518 82.6569 48.4645C82.6541 48.442 82.6499 48.4209 82.6471 48.3998L82.6443 48.3815L82.64 48.3561C82.6344 48.3153 82.6274 48.2745 82.6189 48.2337C82.6175 48.2252 82.6147 48.214 82.6119 48.2027C82.6006 48.1464 82.5866 48.093 82.5739 48.0409L82.5683 48.0184C82.5626 47.9944 82.557 47.9719 82.5514 47.9494C82.526 47.8607 82.4993 47.7749 82.4697 47.6932C82.4261 47.575 82.3755 47.4554 82.3121 47.3273C82.3051 47.3104 82.298 47.2949 82.2896 47.2795C82.284 47.2696 82.2783 47.257 82.2713 47.2457C82.222 47.1528 82.1686 47.0613 82.1095 46.9698C82.101 46.9558 82.0926 46.9417 82.0841 46.929C82.056 46.8868 82.0264 46.8446 81.9969 46.8038L78.9526 42.6533Z" fill="#E7EEFB"/>
<path d="M74.3335 47.083H76.2729L76.4882 50.2356L74.5756 50.6269L74.3335 47.083Z" fill="#E7EEFB"/>
<path d="M74.5756 50.9086C74.5151 50.9086 74.4546 50.8889 74.4053 50.8509C74.3406 50.8016 74.2997 50.727 74.2955 50.6454L74.0534 47.1015C74.0478 47.0241 74.076 46.9467 74.128 46.8904C74.1815 46.8341 74.2561 46.8018 74.3335 46.8018H76.2715C76.4193 46.8018 76.5417 46.9158 76.553 47.0635L76.7683 50.2161C76.7782 50.3569 76.6825 50.4821 76.5446 50.5117L74.6319 50.9029C74.6136 50.9072 74.5939 50.9086 74.5756 50.9086ZM74.6347 47.3647L74.8346 50.2879L76.1899 50.0106L76.0097 47.3661H74.6347V47.3647Z" fill="#E7EEFB"/>
<path d="M77.2158 47.083H78.3037L78.4909 49.8246L77.4185 50.0442L77.2158 47.083Z" fill="#E7EEFB"/>
<path d="M77.4185 50.3259C77.358 50.3259 77.2975 50.3062 77.2482 50.2682C77.1835 50.2189 77.1427 50.1444 77.1384 50.0627L76.9358 47.1015C76.9301 47.0241 76.9583 46.9467 77.0104 46.8904C77.0638 46.8341 77.1384 46.8018 77.2158 46.8018H78.3038C78.4515 46.8018 78.574 46.9158 78.5852 47.0635L78.7724 49.8052C78.7823 49.9459 78.6866 50.0712 78.5487 50.1007L77.4762 50.3203C77.4565 50.3245 77.4368 50.3259 77.4185 50.3259ZM77.517 47.3647L77.6775 49.7052L78.194 49.5997L78.042 47.3661H77.517V47.3647Z" fill="#E7EEFB"/>
<path d="M79.2485 47.083H105.623L98.1711 93.8103H86.1434L84.2927 105.413L84.052 105.613H82.7234C83.6734 105.077 84.2997 104.052 84.2068 103.03L82.2463 81.3492H91.5732C91.9799 81.3492 92.3613 81.0311 92.4233 80.6384C92.4866 80.2443 92.2065 79.9277 91.7998 79.9277H82.1182L81.5919 74.101H92.7301C93.1368 74.101 93.5182 73.7829 93.5816 73.3889C93.6435 72.9962 93.3648 72.6781 92.9581 72.6781H81.4638L80.9374 66.8515H93.887C94.2937 66.8515 94.6751 66.5334 94.7385 66.1393C94.8004 65.7466 94.5217 65.4286 94.115 65.4286H80.8206C80.8389 64.2013 81.8579 63.0275 83.178 62.7559C84.5671 62.4702 85.6213 61.1909 85.5312 59.896L85.5115 59.6019H95.0439C95.4506 59.6019 95.832 59.2838 95.8953 58.8897C95.9573 58.4971 95.6786 58.179 95.2719 58.179H85.4144L84.9162 50.89C84.8402 49.7683 83.9324 49.0027 82.7896 49.0027C82.6122 49.0027 82.4293 49.021 82.2435 49.059L79.7313 49.5741L79.4259 49.636L79.2485 47.083Z" fill="#E7EEFB"/>
<path d="M84.0518 105.896H82.7232C82.5952 105.896 82.484 105.81 82.4516 105.686C82.4192 105.563 82.4741 105.433 82.5853 105.37C83.4678 104.872 84.0068 103.941 83.9266 103.057L81.9661 81.3762C81.959 81.2974 81.9858 81.22 82.0392 81.1609C82.0927 81.1032 82.1673 81.0694 82.2475 81.0694H91.5744C91.8432 81.0694 92.1064 80.8527 92.1472 80.5951C92.1641 80.4896 92.1416 80.3967 92.0811 80.3249C92.0178 80.2503 91.9178 80.2095 91.801 80.2095H82.1195C81.9745 80.2095 81.8521 80.0983 81.8394 79.9534L81.313 74.1267C81.306 74.0479 81.3327 73.9705 81.3862 73.9114C81.4397 73.8536 81.5143 73.8199 81.5945 73.8199H92.7327C93.0015 73.8199 93.2647 73.6017 93.3055 73.3442C93.3224 73.24 93.2985 73.1443 93.2394 73.074C93.1761 72.9994 93.0761 72.9585 92.9607 72.9585H81.4664C81.3215 72.9585 81.199 72.8474 81.1864 72.7024L80.66 66.8757C80.6529 66.7969 80.6797 66.7195 80.7332 66.6604C80.7867 66.6027 80.8612 66.5689 80.9415 66.5689H93.891C94.1598 66.5689 94.423 66.3508 94.4638 66.0932C94.4807 65.9891 94.4568 65.8934 94.3977 65.823C94.3343 65.7484 94.2344 65.7076 94.119 65.7076H80.8247C80.7487 65.7076 80.6769 65.678 80.6248 65.6231C80.5713 65.5697 80.5432 65.4965 80.5446 65.4219C80.5657 64.0412 81.6747 62.776 83.1272 62.4776C84.3812 62.22 85.3368 61.0702 85.2566 59.9133L85.2369 59.6191C85.2312 59.5417 85.2594 59.4643 85.3115 59.408C85.3649 59.3517 85.4395 59.3194 85.5169 59.3194H95.0493C95.3181 59.3194 95.5813 59.1012 95.6221 58.8437C95.639 58.7395 95.6151 58.6438 95.556 58.5748C95.4927 58.5002 95.3927 58.4594 95.2773 58.4594H85.4198C85.2721 58.4594 85.1496 58.3454 85.1384 58.1977L84.6401 50.9087C84.5754 49.9517 83.8168 49.2845 82.7936 49.2845C82.6332 49.2845 82.4685 49.3014 82.3038 49.3352L79.4862 49.9137C79.406 49.9305 79.3244 49.9108 79.2596 49.8616C79.1949 49.8123 79.1541 49.7377 79.1498 49.6561L78.9753 47.1045C78.9697 47.0271 78.9978 46.9497 79.0499 46.8934C79.1034 46.8371 79.178 46.8047 79.2554 46.8047H105.63C105.713 46.8047 105.791 46.8413 105.844 46.9032C105.898 46.9651 105.922 47.0482 105.907 47.1298L98.4552 93.8571C98.4341 93.9937 98.3159 94.095 98.1766 94.095H86.3895L84.5768 105.461C84.5655 105.529 84.5318 105.589 84.4783 105.633L84.2376 105.833C84.1813 105.872 84.118 105.896 84.0518 105.896ZM83.5621 105.333H83.9505L84.0321 105.266L84.1433 104.565C83.9927 104.842 83.7957 105.102 83.5621 105.333ZM82.5544 81.631L84.4529 102.627L85.866 93.7671C85.8871 93.6305 86.0053 93.5292 86.1447 93.5292H97.9317L105.294 47.3648H79.5495L79.6818 49.2944L82.1842 48.7807C82.3855 48.7399 82.5895 48.7188 82.7866 48.7188C84.0983 48.7188 85.1102 49.6223 85.1947 50.8679L85.6746 57.8951H95.2689C95.5489 57.8951 95.8065 58.0091 95.9768 58.2089C96.1457 58.4059 96.2147 58.6635 96.171 58.9323C96.0866 59.4643 95.5898 59.8823 95.0423 59.8823H85.8111C85.9054 61.308 84.7499 62.7197 83.2327 63.0307C82.1561 63.2517 81.2821 64.151 81.1244 65.146H94.112C94.3921 65.146 94.6496 65.26 94.8199 65.4599C94.9888 65.6569 95.0578 65.9145 95.0141 66.1833C94.9297 66.7153 94.4329 67.1333 93.8854 67.1333H81.2441L81.7198 72.397H92.9565C93.2366 72.397 93.4941 72.511 93.6644 72.7108C93.8333 72.9079 93.9023 73.1654 93.8587 73.4342C93.7742 73.9662 93.2774 74.3842 92.7299 74.3842H81.8999L82.3756 79.6479H91.801C92.0811 79.6479 92.3386 79.762 92.5089 79.9604C92.6764 80.1574 92.7454 80.415 92.7032 80.6838C92.6187 81.2158 92.1233 81.6324 91.5744 81.6324H82.5544V81.631Z" fill="#E7EEFB"/>
<path d="M95.2686 58.1748C95.6754 58.1748 95.9554 58.4929 95.8921 58.8855C95.8288 59.2796 95.4474 59.5977 95.0406 59.5977H85.5082L85.4111 58.1748H95.2686Z" fill="#386FDC"/>
<path d="M95.042 59.8809H85.5097C85.3619 59.8809 85.2395 59.7669 85.2282 59.6191L85.1311 58.1963C85.1255 58.1189 85.1536 58.0414 85.2057 57.9852C85.2592 57.9289 85.3337 57.8965 85.4112 57.8965H95.2672C95.5473 57.8965 95.8049 58.0105 95.9752 58.2103C96.144 58.4074 96.213 58.6649 96.1694 58.9337C96.0849 59.4629 95.5895 59.8809 95.042 59.8809ZM85.7714 59.318H95.0406C95.3094 59.318 95.5726 59.0998 95.6135 58.8423C95.6303 58.7381 95.6064 58.6424 95.5473 58.572C95.484 58.4974 95.384 58.4566 95.2686 58.4566H85.7137L85.7714 59.318Z" fill="#386FDC"/>
<path d="M94.1118 65.4258C94.5185 65.4258 94.7986 65.7439 94.7352 66.1365C94.6719 66.5306 94.2905 66.8487 93.8838 66.8487H80.9342L80.823 65.613C80.8188 65.551 80.8174 65.4877 80.8174 65.4258H94.1118Z" fill="#386FDC"/>
<path d="M93.885 67.1304H80.9355C80.7905 67.1304 80.6681 67.0192 80.6554 66.8742L80.5442 65.6385C80.5386 65.5625 80.5372 65.4922 80.5386 65.4218C80.5414 65.2684 80.6667 65.1445 80.8201 65.1445H94.1144C94.3945 65.1445 94.6521 65.2585 94.8224 65.4584C94.9913 65.6554 95.0602 65.913 95.0166 66.1818C94.9293 66.7138 94.4339 67.1304 93.885 67.1304ZM81.1916 66.5674H93.885C94.1539 66.5674 94.417 66.3493 94.4579 66.0917C94.4747 65.9876 94.4508 65.8919 94.3917 65.8215C94.3284 65.7469 94.2284 65.7061 94.113 65.7061H81.1156L81.1916 66.5674Z" fill="#386FDC"/>
<path d="M92.9562 72.6768C93.3629 72.6768 93.643 72.9948 93.5797 73.3875C93.5164 73.7816 93.1349 74.0996 92.7282 74.0996H81.59L81.4619 72.6768H92.9562Z" fill="#386FDC"/>
<path d="M92.7281 74.3814H81.5899C81.445 74.3814 81.3225 74.2702 81.3098 74.1252L81.1818 72.7023C81.1747 72.6235 81.2015 72.5461 81.255 72.487C81.3084 72.4293 81.383 72.3955 81.4633 72.3955H92.9575C93.2376 72.3955 93.4952 72.5095 93.6655 72.7094C93.8344 72.9064 93.9033 73.164 93.8597 73.4328C93.7724 73.9648 93.277 74.3814 92.7281 74.3814ZM81.8475 73.8184H92.7281C92.9969 73.8184 93.2601 73.6002 93.3009 73.3427C93.3178 73.2385 93.2939 73.1428 93.2348 73.0725C93.1715 72.9979 93.0715 72.9571 92.9561 72.9571H81.7701L81.8475 73.8184Z" fill="#386FDC"/>
<path d="M91.7997 79.9277C92.2065 79.9277 92.4865 80.2444 92.4232 80.6385C92.3613 81.0311 91.9799 81.3492 91.5731 81.3492H82.2462L82.1182 79.9277H91.7997Z" fill="#386FDC"/>
<path d="M91.5731 81.6309H82.2462C82.1012 81.6309 81.9788 81.5197 81.9661 81.3748L81.838 79.9533C81.831 79.8745 81.8577 79.7971 81.9112 79.738C81.9647 79.6803 82.0393 79.6465 82.1195 79.6465H91.8011C92.0811 79.6465 92.3387 79.7605 92.509 79.9589C92.6765 80.156 92.7454 80.4135 92.7032 80.6823C92.6174 81.2143 92.1205 81.6309 91.5731 81.6309ZM82.5037 81.068H91.5731C91.8419 81.068 92.1051 80.8512 92.1459 80.5937C92.1628 80.4881 92.1402 80.3952 92.0797 80.3234C92.0164 80.2489 91.9165 80.208 91.7997 80.208H82.4263L82.5037 81.068Z" fill="#386FDC"/>
<path d="M105.623 47.084L108.666 51.2316L101.214 97.9604L98.1709 93.8113L105.623 47.084Z" fill="#9DB8EE"/>
<path d="M101.214 98.242C101.125 98.242 101.041 98.1998 100.987 98.1266L97.9442 93.9775C97.8992 93.917 97.8809 93.841 97.8936 93.7664L105.346 47.0391C105.364 46.9265 105.447 46.8364 105.557 46.8097C105.667 46.7829 105.784 46.8252 105.85 46.9166L108.892 51.0657C108.938 51.1262 108.956 51.2022 108.943 51.2768L101.491 98.0041C101.473 98.1167 101.39 98.2068 101.28 98.2335C101.257 98.2392 101.235 98.242 101.214 98.242ZM98.4678 93.7397L101.042 97.2498L108.37 51.3035L105.796 47.7935L98.4678 93.7397Z" fill="#E7EEFB"/>
<path d="M98.171 93.8105L84.2939 105.413L86.1433 93.8105H98.171Z" fill="#386FDC"/>
<path d="M84.2939 105.695C84.246 105.695 84.1982 105.682 84.1545 105.658C84.0518 105.601 83.9969 105.485 84.0152 105.37L85.8659 93.7671C85.887 93.6306 86.0053 93.5293 86.1446 93.5293H98.1723C98.2905 93.5293 98.3961 93.6039 98.4369 93.7151C98.4777 93.8263 98.4439 93.9515 98.3525 94.0275L84.4754 105.63C84.4219 105.674 84.3572 105.695 84.2939 105.695ZM86.3839 94.0923L84.6893 104.715L97.3954 94.0923H86.3839Z" fill="#E7EEFB"/>
<path d="M98.171 93.8115L101.214 97.9606L87.3354 109.563L84.2939 105.414L98.171 93.8115Z" fill="#386FDC"/>
<path d="M87.3354 109.844C87.3241 109.844 87.3129 109.844 87.3016 109.843C87.2242 109.833 87.1553 109.792 87.1088 109.73L84.066 105.581C83.9787 105.462 83.9984 105.294 84.1124 105.198L97.9895 93.5958C98.0486 93.5465 98.1274 93.5226 98.2034 93.5325C98.2808 93.5423 98.3498 93.5831 98.3962 93.645L101.439 97.7941C101.526 97.9137 101.507 98.0812 101.393 98.1769L87.517 109.778C87.4663 109.822 87.4016 109.844 87.3354 109.844ZM84.6768 105.46L87.3861 109.153L100.831 97.9123L98.1218 94.2193L84.6768 105.46Z" fill="#E7EEFB"/>
<path d="M84.2938 105.413L87.3352 109.562L84.0518 105.614L84.2938 105.413Z" fill="#9DB8EE"/>
<path d="M87.3368 109.844C87.2566 109.844 87.1763 109.809 87.12 109.742L83.8366 105.795C83.7887 105.737 83.7662 105.664 83.7732 105.589C83.7803 105.515 83.8169 105.446 83.8732 105.399L84.1138 105.199C84.1729 105.15 84.2503 105.126 84.3278 105.136C84.4052 105.146 84.4741 105.187 84.5206 105.249L87.5634 109.396C87.6535 109.519 87.6295 109.69 87.5099 109.785C87.4578 109.824 87.3973 109.844 87.3368 109.844Z" fill="#E7EEFB"/>
<path d="M84.0517 105.615L87.3352 109.563L85.766 109.763L82.7231 105.615H84.0517Z" fill="#9DB8EE"/>
<path d="M85.7658 110.044C85.6772 110.044 85.5927 110.002 85.5393 109.929L82.4964 105.78C82.4331 105.694 82.4247 105.582 82.4725 105.486C82.5204 105.392 82.6175 105.331 82.723 105.331H84.0516C84.1347 105.331 84.2149 105.368 84.2684 105.432L87.5519 109.38C87.618 109.459 87.6349 109.567 87.5969 109.663C87.5589 109.759 87.473 109.826 87.3703 109.839L85.7996 110.039C85.7898 110.043 85.7771 110.044 85.7658 110.044ZM83.279 105.897L85.8953 109.463L86.7918 109.349L83.9207 105.897H83.279Z" fill="#E7EEFB"/>
<path d="M83.1478 105.325C83.0845 105.376 83.0184 105.425 82.9508 105.472C82.8804 105.519 82.8073 105.566 82.7327 105.608C82.7284 105.611 82.7256 105.612 82.7214 105.615C82.6426 105.66 82.5624 105.701 82.4793 105.738C82.3738 105.785 82.264 105.828 82.1528 105.863C82.0557 105.894 81.9572 105.919 81.8573 105.94L50.3496 112.399C50.1638 112.437 49.9809 112.455 49.8035 112.455C49.0717 112.455 48.4341 112.141 48.0527 111.619L51.0955 115.767C51.4784 116.289 52.1145 116.603 52.8464 116.603C53.0237 116.603 53.2067 116.584 53.3924 116.546L84.9001 110.088C85 110.067 85.0999 110.041 85.1956 110.01C85.3068 109.975 85.4166 109.933 85.5221 109.885C85.6052 109.847 85.6854 109.806 85.7642 109.763C85.7684 109.76 85.7713 109.759 85.7755 109.756C85.8501 109.713 85.9233 109.667 85.9936 109.619C86.0612 109.573 86.1273 109.523 86.1907 109.473L83.1478 105.325Z" fill="#0B3995"/>
<path d="M52.8464 116.884C52.0329 116.884 51.3109 116.538 50.8676 115.934L47.8248 111.785C47.7333 111.66 47.7601 111.484 47.8853 111.391C48.0106 111.299 48.1865 111.326 48.2794 111.451C48.6158 111.909 49.1703 112.172 49.8036 112.172C49.9641 112.172 50.1287 112.155 50.2934 112.121L81.801 105.663C81.8911 105.644 81.9812 105.62 82.0684 105.592C82.1684 105.56 82.2683 105.522 82.364 105.478C82.4386 105.444 82.5118 105.406 82.5835 105.367C82.6609 105.323 82.7271 105.281 82.7918 105.238C82.8524 105.195 82.9129 105.152 82.9706 105.104C83.0311 105.056 83.1071 105.033 83.1845 105.043C83.2605 105.053 83.3295 105.094 83.3759 105.156L86.4187 109.304C86.5074 109.425 86.4863 109.595 86.3695 109.689C86.3005 109.745 86.2287 109.799 86.1555 109.85C86.0781 109.903 85.9979 109.952 85.9177 109.999L85.905 110.006C85.8192 110.054 85.7305 110.099 85.6404 110.14C85.5236 110.192 85.404 110.238 85.2829 110.276C85.176 110.31 85.0676 110.338 84.9578 110.36L53.4502 116.819C53.2475 116.863 53.0449 116.884 52.8464 116.884ZM49.1661 112.66L51.3222 115.6C51.6586 116.058 52.2131 116.321 52.8464 116.321C53.0069 116.321 53.1715 116.304 53.3362 116.27L84.8438 109.812C84.9339 109.793 85.024 109.769 85.1112 109.741C85.2112 109.71 85.3111 109.671 85.4068 109.627C85.4814 109.593 85.556 109.555 85.6264 109.516C85.6883 109.481 85.7446 109.447 85.7966 109.412L83.0874 105.717C83.017 105.764 82.9452 105.809 82.8721 105.851C82.8707 105.851 82.8594 105.858 82.858 105.86C82.7735 105.907 82.6849 105.952 82.5948 105.993C82.4794 106.045 82.3584 106.092 82.2373 106.13C82.1304 106.164 82.022 106.192 81.9122 106.214L50.4046 112.673C49.981 112.76 49.5531 112.754 49.1661 112.66Z" fill="#E7EEFB"/>
<path d="M84.2066 103.03C84.2994 104.052 83.6732 105.077 82.7232 105.613C82.4572 105.764 82.1658 105.875 81.859 105.938L50.3514 112.397C50.1656 112.435 49.9826 112.453 49.8053 112.453C48.6752 112.453 47.7744 111.706 47.6801 110.601L43.3397 59.4078C43.251 58.113 44.3052 56.8308 45.6943 56.5465L58.7325 53.8739L71.6412 51.2279L72.2169 59.6653C72.2619 60.3071 72.5462 60.8518 72.9811 61.2332C73.4174 61.6132 74.0057 61.8327 74.6629 61.8341C74.867 61.8341 75.0767 61.8116 75.2906 61.768C75.9789 61.6273 76.6009 61.2698 77.0724 60.7913C77.5425 60.3127 77.8676 59.7104 77.9689 59.0742C77.9999 58.8786 78.0098 58.6787 77.9957 58.4803L77.4201 50.0443L78.4925 49.8247L78.8486 55.0547C78.8626 55.263 79.0315 55.4037 79.244 55.4037C79.6015 55.3404 79.7972 55.1025 79.7803 54.8633L79.4228 49.6333L79.7282 49.5714L82.2404 49.0563C82.4262 49.0183 82.6091 49 82.7865 49C83.9307 49 84.8385 49.7656 84.9131 50.8873L85.4113 58.1763L85.5084 59.5992L85.5281 59.8933C85.6168 61.1881 84.5626 62.4689 83.1749 62.7532C81.8548 63.0248 80.8358 64.1972 80.8175 65.4258C80.8161 65.4878 80.8175 65.5511 80.8232 65.613L80.9343 66.8487L81.4607 72.6754L81.5888 74.0983L82.1152 79.925L82.2432 81.3464L84.2066 103.03Z" fill="#0F51D5"/>
<path d="M49.8053 112.735C48.5147 112.735 47.5042 111.848 47.4 110.625L43.0596 59.4319C42.961 57.9992 44.1179 56.5833 45.6379 56.2709L71.5849 50.9537C71.6651 50.9368 71.7467 50.9565 71.8115 51.0058C71.8762 51.055 71.917 51.1296 71.9213 51.2113L72.4969 59.6487C72.5349 60.1919 72.7727 60.6803 73.1654 61.0237C73.5567 61.3643 74.0887 61.5529 74.6629 61.5543C74.8445 61.5543 75.0373 61.5346 75.2343 61.4938C75.8409 61.3699 76.4222 61.0505 76.8711 60.5959C77.3102 60.1497 77.6002 59.5938 77.6902 59.0322C77.7184 58.8521 77.7268 58.6747 77.7142 58.503L77.1385 50.0642C77.1287 49.9235 77.2244 49.7982 77.3623 49.7687L78.4347 49.5491C78.5136 49.5322 78.5966 49.5519 78.6613 49.6012C78.7261 49.6505 78.7669 49.725 78.7711 49.8067L79.1272 55.0366C79.1314 55.1013 79.1849 55.1182 79.2215 55.1225C79.4115 55.0816 79.5044 54.9733 79.4973 54.8846L79.1399 49.6547C79.13 49.5139 79.2257 49.3887 79.3636 49.3591L82.1813 48.7807C82.3839 48.7399 82.5866 48.7188 82.7836 48.7188C84.0953 48.7188 85.1073 49.6223 85.1917 50.8679L85.8068 59.8753C85.9053 61.3024 84.7484 62.7182 83.2284 63.0307C82.049 63.2728 81.1131 64.3269 81.0962 65.4317C81.0948 65.4866 81.0962 65.5401 81.1004 65.595L84.4824 103.007C84.5823 104.107 83.9293 105.254 82.8568 105.859C82.5585 106.028 82.2404 106.148 81.9096 106.216L50.402 112.674C50.2064 112.714 50.0037 112.735 49.8053 112.735ZM71.3808 51.5702L45.7505 56.8226C44.4965 57.0802 43.5409 58.2314 43.6211 59.3897L47.9616 110.579C48.0418 111.517 48.799 112.173 49.8053 112.173C49.9657 112.173 50.1304 112.156 50.295 112.122L81.8027 105.664C82.0743 105.608 82.3375 105.509 82.5852 105.37C83.4676 104.871 84.0067 103.943 83.9265 103.057L80.5431 65.64C80.5374 65.564 80.536 65.4936 80.5374 65.4233C80.5585 64.0426 81.669 62.7773 83.12 62.479C84.374 62.2214 85.3296 61.0716 85.2494 59.9147L84.6344 50.9073C84.5696 49.9502 83.811 49.2831 82.7879 49.2831C82.6274 49.2831 82.4628 49.3 82.2981 49.3338L79.7211 49.863L80.0617 54.8466C80.0899 55.2477 79.7676 55.5996 79.2933 55.6826C79.2778 55.6854 79.2609 55.6868 79.244 55.6868C78.8767 55.6868 78.591 55.4293 78.567 55.0746L78.2321 50.1656L77.7156 50.2711L78.2743 58.4622C78.2898 58.6748 78.2799 58.8971 78.2448 59.1195C78.1364 59.795 77.7916 60.4593 77.2708 60.9885C76.7445 61.5233 76.0605 61.8977 75.3455 62.0441C75.1105 62.0919 74.8796 62.1159 74.6615 62.1159C73.9508 62.1145 73.2879 61.8766 72.7939 61.4459C72.2872 61.0026 71.9818 60.3777 71.9339 59.6853L71.3808 51.5702Z" fill="#E7EEFB"/>
<path d="M74.6615 62.1164C73.9521 62.115 73.2892 61.8771 72.7952 61.4464C72.2886 61.0031 71.9832 60.3782 71.9353 59.6858L71.0163 46.2267C70.9966 45.9424 71.0092 45.6511 71.0557 45.3626C71.1978 44.4703 71.6538 43.5949 72.3407 42.8982C73.0345 42.1917 73.9381 41.6963 74.8852 41.5021C75.1892 41.4401 75.4918 41.4092 75.786 41.4092C76.7177 41.4092 77.5889 41.7216 78.2377 42.2874C78.902 42.8673 79.3017 43.6864 79.3608 44.5927L80.0617 54.8443C80.0884 55.2257 79.7985 55.5874 79.4016 55.669C79.3481 55.6789 79.2961 55.6845 79.2454 55.6845C78.8781 55.6845 78.5938 55.427 78.5684 55.0723L77.8689 44.8207C77.8295 44.2535 77.5931 43.7652 77.1835 43.4077C76.7796 43.0544 76.2335 42.8602 75.6438 42.8602C75.4538 42.8602 75.2568 42.8813 75.0569 42.9221C74.425 43.0516 73.8438 43.3711 73.3765 43.8454C72.9261 44.3028 72.6278 44.8728 72.5363 45.4498C72.5067 45.6356 72.4983 45.82 72.5109 45.9945L73.43 59.4536C73.4539 59.8026 73.5989 60.1038 73.8508 60.3247C74.1013 60.5415 74.4405 60.6611 74.805 60.6611C74.9247 60.6611 75.0499 60.6484 75.1752 60.6231C75.5749 60.5401 75.9422 60.3374 76.2378 60.039C76.5206 59.7505 76.7092 59.3916 76.7669 59.0299C76.7852 58.9187 76.7909 58.8033 76.7838 58.6879L75.9056 45.8411C75.8958 45.7088 75.8437 45.5976 75.748 45.5146C75.6523 45.4316 75.52 45.3837 75.3778 45.3837C75.3272 45.3851 75.2737 45.3907 75.223 45.4006C75.0569 45.4358 74.9035 45.5202 74.7811 45.6455C74.6615 45.7665 74.5841 45.9129 74.5601 46.0593C74.5531 46.1001 74.5517 46.1465 74.5545 46.193L75.147 54.8682C75.1738 55.2496 74.8824 55.6113 74.4869 55.693C74.4349 55.7042 74.3814 55.7098 74.3293 55.7098C73.962 55.7098 73.6791 55.4523 73.6538 55.0976L73.0612 46.4238C73.0514 46.2788 73.0584 46.1268 73.0824 45.9706C73.1555 45.509 73.392 45.0558 73.7452 44.6969C74.0985 44.3352 74.5629 44.0804 75.0513 43.9791C75.2132 43.9481 75.3694 43.9313 75.5186 43.9313C76.0055 43.9313 76.4601 44.0959 76.8021 44.3929C77.154 44.6983 77.3651 45.1304 77.3975 45.6089L78.2743 58.4585C78.2898 58.671 78.2799 58.8934 78.2447 59.1158C78.1378 59.7913 77.7915 60.4556 77.2708 60.9848C76.7444 61.5182 76.0618 61.894 75.3455 62.0404C75.1118 62.0924 74.881 62.1164 74.6615 62.1164Z" fill="#386FDC"/>
<path d="M75.7844 41.6919C76.671 41.6919 77.4634 41.9874 78.0517 42.5011C78.6386 43.0134 79.0228 43.7453 79.0791 44.6136L79.248 47.0851L79.4225 49.6367L79.78 54.8666C79.7969 55.1045 79.6013 55.3437 79.3437 55.3972C79.3099 55.4042 79.2762 55.4071 79.2438 55.4071C79.0313 55.4071 78.8624 55.2663 78.8483 55.058L78.4908 49.8281L78.3036 47.0865L78.1474 44.8065C78.1024 44.1436 77.8139 43.5905 77.3663 43.2006C76.9187 42.8094 76.3136 42.5842 75.6422 42.5842C75.4353 42.5842 75.2186 42.6067 74.999 42.6517C74.2897 42.7981 73.6592 43.1612 73.1736 43.6524C72.6895 44.1436 72.3587 44.7614 72.256 45.4102C72.2236 45.6101 72.2124 45.8156 72.2279 46.0196L72.301 47.0865L72.5713 51.0413L73.1469 59.4773C73.1764 59.9164 73.3679 60.2809 73.6634 60.5399C73.9604 60.7974 74.3601 60.9466 74.8034 60.9466C74.9413 60.9466 75.0849 60.9325 75.2285 60.903C75.6985 60.8059 76.1151 60.5652 76.436 60.2401C76.7555 59.915 76.975 59.5068 77.0426 59.0776C77.0637 58.9453 77.0707 58.8102 77.0623 58.6736L76.4853 50.2376L76.2699 47.0851L76.1841 45.8254C76.1686 45.6087 76.0757 45.4328 75.9307 45.3061C75.7844 45.1794 75.5902 45.1062 75.3748 45.1062C75.3059 45.1076 75.2369 45.1147 75.1651 45.1288C74.9343 45.1766 74.7345 45.292 74.5768 45.4525C74.4206 45.6115 74.3122 45.8113 74.2785 46.0196C74.2686 46.0844 74.2658 46.1505 74.27 46.2167L74.3291 47.0865L74.5712 50.6303L74.8625 54.8919C74.8794 55.1326 74.6838 55.3691 74.4262 55.4225C74.391 55.4296 74.3573 55.4324 74.3249 55.4324C74.1124 55.4324 73.9449 55.2902 73.9308 55.0819L73.6395 50.8203L73.3847 47.0851L73.3383 46.4081C73.3285 46.2786 73.3369 46.1477 73.3566 46.0196C73.4227 45.6045 73.6353 45.2104 73.9421 44.8993C74.2475 44.5869 74.6556 44.3533 75.1046 44.2604C75.2439 44.2336 75.3804 44.2182 75.5142 44.2182C75.9448 44.2182 76.3276 44.3617 76.6119 44.6108C76.8976 44.8585 77.0834 45.2146 77.1116 45.634L77.2101 47.0865L77.4127 50.0476L77.9884 58.4836C78.0039 58.6821 77.9926 58.8819 77.9616 59.0776C77.8603 59.7137 77.5352 60.3147 77.0651 60.7946C76.5936 61.2731 75.9716 61.6306 75.2833 61.7713C75.0694 61.815 74.8597 61.8375 74.6556 61.8375C73.9984 61.8361 73.4087 61.6165 72.9738 61.2365C72.5375 60.8551 72.2546 60.3105 72.2096 59.6687L71.6396 51.2299L71.3567 47.0836L71.2976 46.2082C71.2793 45.9408 71.2919 45.672 71.3342 45.4074C71.4707 44.5517 71.907 43.7411 72.5417 43.0965C73.1764 42.4505 74.0139 41.9691 74.9413 41.7791C75.227 41.72 75.5099 41.6919 75.7844 41.6919ZM75.7844 41.1289C75.4719 41.1289 75.151 41.1613 74.8287 41.226C73.8253 41.4315 72.871 41.9551 72.1378 42.701C71.4116 43.4385 70.9274 44.3673 70.7768 45.3173C70.7276 45.627 70.7135 45.9394 70.7346 46.2462L70.7937 47.1216L71.0766 51.2679L71.6522 59.7053C71.7071 60.4737 72.0463 61.1662 72.6079 61.6588C73.1539 62.1345 73.883 62.3962 74.6599 62.399C74.8991 62.399 75.1482 62.3737 75.4002 62.3216C76.1714 62.164 76.9061 61.7615 77.4719 61.1887C78.0334 60.6173 78.4064 59.8981 78.5232 59.1662C78.5626 58.9213 78.5724 58.6779 78.5556 58.4414L78.3459 55.3662C78.4824 55.7237 78.83 55.9686 79.2438 55.9686C79.3127 55.9686 79.3831 55.9616 79.4535 55.9475C79.9897 55.8377 80.3781 55.3451 80.3416 54.8258L79.9841 49.5973L79.8096 47.0456L79.6407 44.5742C79.5759 43.5933 79.1425 42.7052 78.4219 42.0761C77.721 41.4653 76.7836 41.1289 75.7844 41.1289ZM72.7922 46.0154L72.7894 45.9788C72.7782 45.8212 72.7852 45.6608 72.8119 45.4961C72.895 44.9753 73.1666 44.4602 73.5747 44.0436C74.0026 43.6102 74.5346 43.3188 75.1116 43.1992C75.2918 43.1626 75.4705 43.1429 75.6422 43.1429C76.163 43.1429 76.6443 43.3132 76.9962 43.62C77.3494 43.9282 77.5535 44.3505 77.5859 44.8402L77.6084 45.1794C77.5042 44.7924 77.2903 44.4462 76.9849 44.1816C76.5936 43.8396 76.0729 43.651 75.5184 43.651C75.3509 43.651 75.1764 43.6679 75.0005 43.7031C74.4516 43.8171 73.9364 44.0985 73.5438 44.5011C73.1497 44.9008 72.8879 45.4074 72.8049 45.9268C72.8007 45.9577 72.7965 45.9859 72.7922 46.0154ZM74.3291 55.9925C74.4009 55.9925 74.4727 55.9855 74.543 55.97C75.075 55.8602 75.4635 55.3691 75.4283 54.8497L75.137 50.5881L74.8949 47.0442L74.8358 46.1745C74.8344 46.1505 74.8344 46.1252 74.8386 46.1041C74.8527 46.0168 74.9047 45.9211 74.9807 45.8437C75.0652 45.7565 75.1693 45.7002 75.2833 45.6762C75.3115 45.6706 75.3453 45.6664 75.3833 45.6664C75.4564 45.6678 75.5184 45.6889 75.5648 45.7283C75.6014 45.7607 75.6211 45.8029 75.6253 45.862L75.7112 47.1202L75.9265 50.2728L76.5036 58.7088C76.5092 58.7989 76.505 58.8932 76.4895 58.9861C76.4402 59.2901 76.2798 59.5955 76.0363 59.8432C75.7816 60.1022 75.4621 60.2767 75.1159 60.3499C75.0131 60.371 74.9062 60.3808 74.8048 60.3808C74.5079 60.3808 74.2334 60.2851 74.0336 60.112C73.8422 59.9431 73.7296 59.7095 73.7099 59.4365L73.434 55.393C73.5691 55.749 73.9167 55.9925 74.3291 55.9925Z" fill="#E7EEFB"/>
<path d="M92.5976 84.4951L92.7158 85.2368C92.7876 85.6802 93.093 86.0292 93.5321 86.1657L94.264 86.3937L93.4589 86.6217C92.9762 86.7596 92.5596 87.1073 92.3457 87.5506L91.9896 88.2923L91.8714 87.5506C91.7996 87.1073 91.4956 86.7582 91.0565 86.6217L90.3232 86.3937L91.1297 86.1657C91.6124 86.0278 92.0276 85.6802 92.2415 85.2368L92.5976 84.4951Z" fill="#0F51D5"/>
</svg>
