<svg width="104" height="104" viewBox="0 0 104 104" fill="none" xmlns="http://www.w3.org/2000/svg">
<path d="M52 85.0709C71.6346 85.0709 87.5516 78.8268 87.5516 71.1243C87.5516 63.4218 71.6346 57.1777 52 57.1777C32.3654 57.1777 16.4484 63.4218 16.4484 71.1243C16.4484 78.8268 32.3654 85.0709 52 85.0709Z" fill="#F5F5F5"/>
<path d="M72.7268 43.6387H79.8325H80.4652L76.7029 67.2265L65.6038 60.3894L65.7983 59.1674H68.3887L68.8297 56.4027H70.6901L72.3339 46.0981C73.4047 46.0971 74.4053 45.2603 74.5699 44.229H72.6324L72.7268 43.6387Z" fill="#DEDEDE"/>
<path d="M76.7029 67.4192C76.6673 67.4192 76.6326 67.4096 76.6018 67.3903L65.5027 60.5533C65.4362 60.5128 65.4015 60.4358 65.4131 60.3588L65.6076 59.1368C65.6221 59.0434 65.703 58.974 65.7983 58.974H68.224L68.639 56.3711C68.6535 56.2777 68.7344 56.2084 68.8297 56.2084H70.5264L72.1442 46.0655C72.1587 45.9721 72.2395 45.9037 72.3339 45.9028C73.2333 45.9028 74.0817 45.2547 74.3292 44.4188H72.6324C72.5756 44.4188 72.5227 44.3938 72.4861 44.3514C72.4495 44.3081 72.4331 44.2522 72.4427 44.1964L72.5371 43.6061C72.5516 43.5127 72.6324 43.4434 72.7278 43.4434H80.4661C80.523 43.4434 80.5759 43.4684 80.6125 43.5108C80.6491 43.5531 80.6655 43.61 80.6558 43.6658L76.8936 67.2536C76.883 67.3171 76.8425 67.3711 76.7838 67.398C76.7578 67.4134 76.7298 67.4192 76.7029 67.4192ZM65.8147 60.2923L76.5584 66.9108L80.2398 43.8305H72.8915L72.8587 44.0356H74.5709C74.6277 44.0356 74.6807 44.0606 74.7173 44.103C74.7538 44.1454 74.7702 44.2022 74.7606 44.258C74.5901 45.324 73.5954 46.2013 72.4995 46.2831L70.8808 56.4318C70.8664 56.5252 70.7855 56.5945 70.6901 56.5945H68.9934L68.5784 59.1974C68.5639 59.2908 68.483 59.3602 68.3877 59.3602H65.963L65.8147 60.2923Z" fill="#F5F5F5"/>
<path d="M76.7029 67.2285L78.3322 69.4491H66.143L64.5137 67.2285H76.7029Z" fill="#DEDEDE"/>
<path d="M78.3322 69.6409H66.143C66.0814 69.6409 66.0236 69.612 65.988 69.5619L64.3587 67.3404C64.3153 67.2816 64.3096 67.2046 64.3423 67.1391C64.375 67.0746 64.4415 67.0332 64.5137 67.0332H76.7029C76.7645 67.0332 76.8223 67.0621 76.8579 67.1122L78.4873 69.3337C78.5306 69.3925 78.5364 69.4695 78.5036 69.535C78.4709 69.6005 78.4044 69.6409 78.3322 69.6409ZM66.2403 69.2557H77.9519L76.6056 67.4194H64.8941L66.2403 69.2557Z" fill="#F5F5F5"/>
<path d="M65.6038 60.3887L76.7029 67.2257H64.5137L65.6038 60.3887Z" fill="#DEDEDE"/>
<path d="M76.7029 67.419H64.5137C64.4569 67.419 64.4039 67.3939 64.3673 67.3516C64.3307 67.3082 64.3144 67.2524 64.324 67.1965L65.4141 60.3595C65.4247 60.2959 65.4651 60.242 65.5238 60.215C65.5826 60.1881 65.65 60.1919 65.7049 60.2256L76.804 67.0627C76.8772 67.1079 76.9118 67.1965 76.8887 67.2793C76.8656 67.3621 76.7895 67.419 76.7029 67.419ZM64.739 67.0338H76.023L65.7482 60.7042L64.739 67.0338Z" fill="#F5F5F5"/>
<path d="M55.5745 19.5176C56.1523 19.5176 56.5481 19.9682 56.4595 20.5258C56.3709 21.0824 55.8307 21.534 55.2529 21.534C54.6761 21.534 54.2803 21.0824 54.3689 20.5258C54.4584 19.9682 54.9977 19.5176 55.5745 19.5176Z" fill="#DEDEDE"/>
<path d="M55.2529 21.7258C54.912 21.7258 54.6125 21.5939 54.4074 21.3551C54.2081 21.1221 54.1272 20.8168 54.1782 20.4952C54.2813 19.85 54.9072 19.3242 55.5736 19.3242C55.9154 19.3242 56.2159 19.4561 56.42 19.6959C56.6184 19.929 56.7002 20.2342 56.6482 20.5558C56.5471 21.2001 55.9202 21.7258 55.2529 21.7258ZM55.5745 19.7094C55.0892 19.7094 54.6337 20.0888 54.5596 20.5558C54.5259 20.7638 54.5769 20.9593 54.7011 21.1047C54.8311 21.2569 55.0266 21.3407 55.2529 21.3407C55.7392 21.3407 56.1947 20.9613 56.2688 20.4942C56.3025 20.2862 56.2515 20.0907 56.1273 19.9453C55.9982 19.7932 55.8018 19.7094 55.5745 19.7094Z" fill="#F5F5F5"/>
<path d="M31.4167 39.3293L24.3707 34.9883H36.5599L36.1535 37.5372H31.7027L31.4167 39.3293Z" fill="#DEDEDE"/>
<path d="M31.4167 39.5211C31.382 39.5211 31.3464 39.5115 31.3156 39.4923L24.2696 35.1512C24.1964 35.106 24.1617 35.0174 24.1848 34.9346C24.2079 34.8517 24.284 34.7949 24.3697 34.7949H36.5589C36.6157 34.7949 36.6687 34.82 36.7053 34.8623C36.7419 34.9057 36.7582 34.9615 36.7486 35.0174L36.3422 37.5663C36.3278 37.6597 36.2469 37.7291 36.1516 37.7291H31.8644L31.6044 39.3584C31.5939 39.422 31.5534 39.4759 31.4947 39.5028C31.4716 39.5154 31.4446 39.5211 31.4167 39.5211ZM25.0505 35.1801L31.2722 39.0127L31.513 37.5057C31.5274 37.4123 31.6083 37.3429 31.7036 37.3429H35.9907L36.3355 35.1791H25.0505V35.1801Z" fill="#F5F5F5"/>
<path d="M73.9594 20.2927C73.9584 20.2764 73.9575 20.26 73.9555 20.2446C73.9546 20.234 73.9527 20.2224 73.9507 20.2118C73.9488 20.2022 73.9478 20.1916 73.9459 20.182C73.945 20.1781 73.944 20.1753 73.943 20.1724C73.9353 20.1367 73.9267 20.103 73.9141 20.0693C73.9132 20.0674 73.9132 20.0655 73.9132 20.0645C73.9113 20.0587 73.9084 20.053 73.9055 20.0472C73.8978 20.027 73.8891 20.0067 73.8795 19.9865C73.8776 19.9827 73.8756 19.9778 73.8737 19.974C73.8708 19.9682 73.867 19.9634 73.8641 19.9576C73.8564 19.9432 73.8477 19.9287 73.839 19.9143C73.8361 19.9085 73.8333 19.9027 73.8294 19.8979C73.8227 19.8883 73.8169 19.8796 73.8101 19.87L72.1808 17.6484C72.1914 17.6629 72.2001 17.6773 72.2097 17.6927C72.2184 17.7072 72.227 17.7216 72.2347 17.7361C72.2395 17.7457 72.2453 17.7553 72.2501 17.765C72.2598 17.7842 72.2684 17.8044 72.2761 17.8256C72.279 17.8333 72.2819 17.8401 72.2848 17.8478C72.2964 17.8805 72.306 17.9152 72.3137 17.9508C72.3166 17.9643 72.3185 17.9768 72.3214 17.9903C72.3233 18.0009 72.3253 18.0115 72.3262 18.023C72.3281 18.0384 72.3291 18.0548 72.3301 18.0712C72.331 18.0818 72.332 18.0924 72.332 18.103C72.332 18.1213 72.332 18.1395 72.331 18.1578C72.331 18.1675 72.331 18.1761 72.3301 18.1858C72.3281 18.2137 72.3253 18.2416 72.3204 18.2705L70.2193 31.4448L71.8486 33.6664L73.9498 20.4921C73.9546 20.4632 73.9575 20.4353 73.9594 20.4073C73.9604 20.3987 73.9594 20.389 73.9604 20.3804C73.9613 20.3621 73.9613 20.3438 73.9613 20.3255C73.9613 20.3139 73.9604 20.3033 73.9594 20.2927Z" fill="#DEDEDE"/>
<path d="M71.8496 33.8588C71.7889 33.8588 71.7311 33.8299 71.6945 33.7798L70.0652 31.5583C70.0344 31.5168 70.0218 31.4648 70.0305 31.4138L72.1317 18.2395C72.1356 18.2174 72.1375 18.1943 72.1394 18.1721V18.1509C72.1404 18.1365 72.1404 18.122 72.1404 18.1076L72.1384 18.0825C72.1375 18.07 72.1365 18.0575 72.1356 18.045L72.1327 18.0277C72.1298 18.0103 72.1279 17.9997 72.1259 17.9901C72.1201 17.9612 72.1124 17.9352 72.1047 17.9121C72.1038 17.9111 72.098 17.8967 72.098 17.8957C72.0922 17.8803 72.0855 17.8649 72.0778 17.8505C72.0739 17.8428 72.0701 17.836 72.0662 17.8283C72.0604 17.8168 72.0537 17.8062 72.047 17.7956C72.0373 17.7802 72.0316 17.7715 72.0258 17.7628C71.9632 17.6771 71.9815 17.5568 72.0672 17.4942C72.1529 17.4316 72.2733 17.4499 72.3359 17.5356C72.3359 17.5356 72.3359 17.5356 72.3359 17.5365L73.9642 19.7571C73.9729 19.7687 73.9806 19.7803 73.9883 19.7918C73.9931 19.7985 73.997 19.8063 74.0018 19.814C74.0114 19.8294 74.022 19.8477 74.0326 19.866C74.0364 19.8717 74.0403 19.8785 74.0441 19.8862C74.047 19.892 74.0528 19.9035 74.0547 19.9093C74.0634 19.9266 74.074 19.9517 74.0846 19.9777C74.0875 19.9825 74.0904 19.9902 74.0933 19.9988C74.0942 20.0027 74.0961 20.0075 74.0971 20.0123C74.1096 20.048 74.1202 20.0865 74.1289 20.1269C74.1308 20.1337 74.1327 20.1394 74.1337 20.1462C74.1356 20.1558 74.1376 20.1664 74.1385 20.176L73.9488 20.2126L74.1395 20.1876C74.1414 20.1991 74.1433 20.2107 74.1443 20.2232C74.1462 20.2425 74.1481 20.2627 74.1491 20.282L74.1501 20.2897C74.151 20.3003 74.151 20.3099 74.152 20.3205C74.153 20.3426 74.152 20.3648 74.151 20.3869C74.151 20.4023 74.1501 20.411 74.1501 20.4197C74.1481 20.4534 74.1443 20.4871 74.1385 20.5217L72.0373 33.6951C72.0248 33.7721 71.968 33.8337 71.8929 33.852C71.8794 33.8568 71.864 33.8588 71.8496 33.8588ZM70.4234 31.3955L71.7321 33.1799L73.7601 20.4611C73.7639 20.438 73.7658 20.4158 73.7678 20.3937L73.7687 20.3725C73.7697 20.358 73.7697 20.3436 73.7697 20.3291L73.7678 20.3051C73.7678 20.3051 73.7678 20.3051 73.7678 20.3041C73.7668 20.2916 73.7668 20.2791 73.7649 20.2675L73.7591 20.2261C73.7591 20.2261 73.7572 20.2194 73.7553 20.2097C73.7495 20.1828 73.7427 20.1568 73.7341 20.1337C73.7331 20.1327 73.7331 20.1308 73.7321 20.1288C73.7312 20.1269 73.7293 20.1221 73.7273 20.1163C73.7216 20.1009 73.7148 20.0855 73.7081 20.0711C73.7071 20.0682 73.7042 20.0634 73.7023 20.0585C73.7004 20.0557 73.6984 20.0518 73.6965 20.0489C73.6907 20.0374 73.684 20.0268 73.6773 20.0162C73.6753 20.0133 73.6696 20.0027 73.6676 19.9998C73.6657 19.9969 73.6609 19.9902 73.6561 19.9834L72.4967 18.4023L70.4234 31.3955Z" fill="#F5F5F5"/>
<path d="M71.4855 17.3184C72.0306 17.3184 72.4052 17.745 72.3214 18.2707L70.2202 31.445C69.7676 31.758 69.3439 32.1114 68.9587 32.5004L71.0946 19.1104C71.137 18.8475 70.9501 18.6338 70.6776 18.6338H40.7555C40.483 18.6338 40.2268 18.8475 40.1854 19.1104L37.2464 37.5358H36.1535L36.5598 34.9868L39.2263 18.2707C39.3101 17.745 39.8214 17.3184 40.3655 17.3184H71.4855Z" fill="#A4A4A4"/>
<path d="M37.2464 37.7295H36.1535C36.0967 37.7295 36.0437 37.7045 36.0071 37.6621C35.9705 37.6188 35.9541 37.563 35.9638 37.5071L39.0366 18.2421C39.1348 17.6277 39.7309 17.127 40.3664 17.127H71.4865C71.812 17.127 72.098 17.2531 72.2935 17.4813C72.4832 17.7038 72.5612 17.9955 72.5121 18.3018L70.4109 31.4761C70.4022 31.5281 70.3733 31.5743 70.33 31.6041C69.888 31.9094 69.472 32.257 69.0955 32.6364C69.0367 32.6961 68.9462 32.7106 68.8711 32.673C68.797 32.6355 68.7546 32.5536 68.7681 32.4708L70.9039 19.0808C70.9145 19.0115 70.8991 18.9489 70.8606 18.9027C70.8192 18.8535 70.7537 18.8266 70.6776 18.8266H40.7555C40.5764 18.8266 40.403 18.971 40.3751 19.1415L37.4361 37.5668C37.4217 37.6602 37.3408 37.7295 37.2464 37.7295ZM36.3798 37.3444H37.0827L39.9957 19.0808C40.0525 18.7226 40.3867 18.4414 40.7564 18.4414H70.6776C70.8664 18.4414 71.0397 18.5184 71.1543 18.6523C71.2679 18.7852 71.3141 18.9595 71.2853 19.1415L69.239 31.972C69.4951 31.7447 69.7638 31.5319 70.044 31.3345L72.1317 18.2411C72.1625 18.0475 72.1163 17.8665 71.9998 17.7307C71.8794 17.5892 71.6964 17.5112 71.4855 17.5112H40.3655C39.9119 17.5112 39.4853 17.8655 39.416 18.3018L36.3798 37.3444Z" fill="#F5F5F5"/>
<path d="M31.4186 67.2267H19.2294L32.5087 60.3887L31.4186 67.2267Z" fill="#DEDEDE"/>
<path d="M31.4186 67.4187H19.2294C19.1408 67.4187 19.0628 67.3581 19.0426 67.2714C19.0214 67.1847 19.0628 67.0952 19.1418 67.0547L32.422 60.2167C32.4865 60.183 32.5645 60.1898 32.6233 60.2321C32.682 60.2745 32.7118 60.3467 32.7003 60.418L31.6102 67.256C31.5938 67.3494 31.513 67.4187 31.4186 67.4187ZM20.0238 67.0336H31.2539L32.2592 60.7339L20.0238 67.0336Z" fill="#F5F5F5"/>
<path d="M31.4186 67.2285L33.0479 69.4491H20.8587L19.2294 67.2285H31.4186Z" fill="#DEDEDE"/>
<path d="M33.0479 69.6409H20.8587C20.7971 69.6409 20.7393 69.612 20.7037 69.5619L19.0744 67.3404C19.031 67.2816 19.0253 67.2046 19.058 67.1391C19.0907 67.0746 19.1572 67.0332 19.2294 67.0332H31.4186C31.4802 67.0332 31.538 67.0621 31.5736 67.1122L33.203 69.3337C33.2463 69.3925 33.2521 69.4695 33.2193 69.535C33.1866 69.6005 33.1201 69.6409 33.0479 69.6409ZM20.956 69.2557H32.6676L31.3213 67.4194H19.6098L20.956 69.2557Z" fill="#F5F5F5"/>
<path d="M33.7961 59.168L35.4255 61.3886L33.2405 75.0896L31.6112 72.868L33.7961 59.168Z" fill="#959595"/>
<path d="M33.2405 75.283C33.1798 75.283 33.1221 75.2541 33.0855 75.204L31.4561 72.9825C31.4253 72.9411 31.4128 72.8891 31.4215 72.838L33.6064 59.137C33.619 59.06 33.6758 58.9983 33.7509 58.98C33.826 58.9617 33.9059 58.9906 33.9512 59.0532L35.5805 61.2748C35.6113 61.3162 35.6238 61.3682 35.6152 61.4192L33.4302 75.1203C33.4177 75.1973 33.3609 75.2589 33.2858 75.2772C33.2704 75.2811 33.2559 75.283 33.2405 75.283ZM31.8144 72.8197L33.123 74.6041L35.2233 61.4385L33.9146 59.6541L31.8144 72.8197Z" fill="#F5F5F5"/>
<path d="M33.3108 75.5922C33.2511 75.5922 33.1933 75.5653 33.1558 75.5133L31.5264 73.2927C31.4321 73.1646 31.3955 73.0038 31.4215 72.8382C31.434 72.7611 31.4908 72.6995 31.5659 72.6812C31.641 72.6629 31.721 72.6918 31.7662 72.7544L33.3955 74.9759C33.4264 75.0173 33.4389 75.0693 33.4302 75.1204C33.4206 75.1839 33.4321 75.2408 33.4649 75.286C33.5275 75.3717 33.5092 75.4921 33.4235 75.5556C33.3898 75.5797 33.3503 75.5922 33.3108 75.5922Z" fill="#F5F5F5"/>
<mask id="mask0_837_56642" style="mask-type:luminance" maskUnits="userSpaceOnUse" x="31" y="72" width="3" height="4">
<path d="M33.3108 75.5922C33.2511 75.5922 33.1933 75.5653 33.1558 75.5133L31.5264 73.2927C31.4321 73.1646 31.3955 73.0038 31.4215 72.8382C31.434 72.7611 31.4908 72.6995 31.5659 72.6812C31.641 72.6629 31.721 72.6918 31.7662 72.7544L33.3955 74.9759C33.4264 75.0173 33.4389 75.0693 33.4302 75.1204C33.4206 75.1839 33.4321 75.2408 33.4649 75.286C33.5275 75.3717 33.5092 75.4921 33.4235 75.5556C33.3898 75.5797 33.3503 75.5922 33.3108 75.5922Z" fill="white"/>
</mask>
<g mask="url(#mask0_837_56642)">
<path d="M31.6112 72.8672L33.2405 75.0887C33.2318 75.1427 33.2328 75.1947 33.2424 75.2428L31.6131 73.0213C31.6035 72.9731 31.6025 72.9211 31.6112 72.8672Z" fill="#DEDEDE"/>
<path d="M33.2424 75.4352C33.1827 75.4352 33.124 75.4073 33.0874 75.3563L31.458 73.1347C31.4417 73.1116 31.4301 73.0856 31.4243 73.0577C31.4099 72.9855 31.4089 72.9113 31.4214 72.8362C31.434 72.7592 31.4908 72.6975 31.5659 72.6793C31.642 72.661 31.7209 72.6898 31.7662 72.7524L33.3955 74.974C33.4263 75.0154 33.4388 75.0674 33.4302 75.1184C33.4254 75.1483 33.4254 75.1781 33.4311 75.2051C33.4485 75.2937 33.4023 75.3823 33.3194 75.4189C33.2944 75.4295 33.2684 75.4352 33.2424 75.4352Z" fill="#F5F5F5"/>
<path d="M31.6131 73.0215L33.2424 75.243C33.2463 75.2633 33.2521 75.2825 33.2588 75.3018L31.6295 73.0802C31.6227 73.0619 31.6169 73.0417 31.6131 73.0215Z" fill="#959595"/>
<path d="M33.2588 75.4947C33.1991 75.4947 33.1404 75.4667 33.1038 75.4157L31.4744 73.1941C31.4638 73.1797 31.4552 73.1633 31.4484 73.146C31.4378 73.1181 31.4301 73.0882 31.4244 73.0584C31.407 72.9698 31.4533 72.8812 31.5361 72.8446C31.6189 72.808 31.7152 72.834 31.7691 72.9072L33.3984 75.1287C33.4148 75.1518 33.4264 75.1778 33.4321 75.2058C33.4341 75.2164 33.437 75.226 33.4408 75.2366C33.4735 75.3271 33.435 75.4272 33.3503 75.4725C33.3204 75.4869 33.2896 75.4947 33.2588 75.4947Z" fill="#F5F5F5"/>
<path d="M31.6295 73.0781L33.2588 75.2997C33.2646 75.3151 33.2713 75.3305 33.2781 75.3449L31.6487 73.1234C31.642 73.1089 31.6352 73.0945 31.6295 73.0781Z" fill="#959595"/>
<path d="M33.2781 75.5384C33.2184 75.5384 33.1606 75.5104 33.123 75.4594L31.4937 73.2379C31.4879 73.2292 31.4821 73.2205 31.4773 73.2119C31.4658 73.1897 31.4561 73.1676 31.4475 73.1444C31.4147 73.0539 31.4533 72.9538 31.538 72.9095C31.6227 72.8642 31.7277 72.8883 31.7835 72.9653L33.4129 75.1869C33.4235 75.2013 33.4321 75.2177 33.4389 75.235C33.4418 75.2427 33.4447 75.2504 33.4485 75.2582C33.4938 75.3477 33.4639 75.4575 33.3782 75.5095C33.3484 75.5287 33.3127 75.5384 33.2781 75.5384Z" fill="#F5F5F5"/>
<path d="M31.6487 73.125L33.2781 75.3466C33.2848 75.36 33.2925 75.3726 33.3002 75.3851L31.6709 73.1635C31.6632 73.151 31.6555 73.1385 31.6487 73.125Z" fill="#4B4B4B"/>
<path d="M33.3012 75.5768C33.2415 75.5768 33.1837 75.5498 33.1461 75.4978L31.5168 73.2763C31.4995 73.2512 31.4889 73.232 31.4783 73.2117C31.433 73.1222 31.4629 73.0124 31.5486 72.9604C31.6343 72.9074 31.746 72.9296 31.8047 73.0105L33.4341 75.232C33.4398 75.2407 33.4456 75.2494 33.4504 75.258C33.4533 75.2648 33.4572 75.2706 33.462 75.2773C33.5198 75.364 33.4986 75.4824 33.4119 75.5421C33.3773 75.5662 33.3387 75.5768 33.3012 75.5768Z" fill="#F5F5F5"/>
<path d="M31.6718 73.1641L33.3012 75.3856C33.3041 75.3904 33.3079 75.3952 33.3108 75.3991L31.6815 73.1775C31.6776 73.1727 31.6747 73.1689 31.6718 73.1641Z" fill="#959595"/>
<path d="M33.3108 75.591C33.253 75.591 33.1952 75.565 33.1577 75.5149C33.1577 75.5149 33.1577 75.5139 33.1567 75.5139C33.1567 75.513 33.1558 75.513 33.1558 75.512L31.5274 73.2924C31.5226 73.2856 31.5178 73.2789 31.5129 73.2722C31.4542 73.1855 31.4764 73.067 31.5621 73.0073C31.6478 72.9476 31.7662 72.9669 31.8278 73.0507L33.4572 75.2722C33.4591 75.2751 33.462 75.279 33.4639 75.2819L33.4668 75.2857C33.5294 75.3714 33.5111 75.4918 33.4254 75.5544C33.3898 75.5784 33.3503 75.591 33.3108 75.591Z" fill="#F5F5F5"/>
</g>
<path d="M33.6584 75.7573C33.4524 75.7573 33.2684 75.6677 33.1548 75.5127L31.5264 73.2921C31.5264 73.2921 31.5264 73.2921 31.5255 73.2912C31.4629 73.2054 31.4812 73.0851 31.5669 73.0215C31.6526 72.9589 31.773 72.9772 31.8365 73.0629C31.8779 73.1188 31.9463 73.1506 32.0301 73.1506C32.0917 73.1506 32.1495 73.1794 32.1851 73.2295L33.8144 75.4511C33.8578 75.5098 33.8635 75.5869 33.8308 75.6523C33.7981 75.7169 33.7316 75.7573 33.6584 75.7573Z" fill="#F5F5F5"/>
<mask id="mask1_837_56642" style="mask-type:luminance" maskUnits="userSpaceOnUse" x="31" y="72" width="3" height="4">
<path d="M33.6584 75.7573C33.4524 75.7573 33.2684 75.6677 33.1548 75.5127L31.5264 73.2921C31.5264 73.2921 31.5264 73.2921 31.5255 73.2912C31.4629 73.2054 31.4812 73.0851 31.5669 73.0215C31.6526 72.9589 31.773 72.9772 31.8365 73.0629C31.8779 73.1188 31.9463 73.1506 32.0301 73.1506C32.0917 73.1506 32.1495 73.1794 32.1851 73.2295L33.8144 75.4511C33.8578 75.5098 33.8635 75.5869 33.8308 75.6523C33.7981 75.7169 33.7316 75.7573 33.6584 75.7573Z" fill="white"/>
</mask>
<g mask="url(#mask1_837_56642)">
<path d="M32.0301 73.3443L33.6594 75.5659C33.5092 75.5659 33.385 75.5014 33.3108 75.4003L31.6815 73.1777C31.7556 73.2798 31.8798 73.3443 32.0301 73.3443Z" fill="#A4A4A4"/>
<path d="M33.6584 75.7573C33.4524 75.7573 33.2684 75.6677 33.1548 75.5127L31.5264 73.2921C31.5264 73.2921 31.5264 73.2921 31.5255 73.2912C31.4629 73.2054 31.4812 73.0851 31.5669 73.0215C31.6526 72.9589 31.773 72.9772 31.8365 73.0629C31.8779 73.1188 31.9463 73.1506 32.0301 73.1506C32.0917 73.1506 32.1495 73.1794 32.1851 73.2295L33.8144 75.4511C33.8578 75.5098 33.8635 75.5869 33.8308 75.6523C33.7981 75.7169 33.7316 75.7573 33.6584 75.7573Z" fill="#F5F5F5"/>
</g>
<path d="M64.7053 59.168L66.3346 61.3886L64.1497 75.0896L62.5204 72.868L64.7053 59.168Z" fill="#DEDEDE"/>
<path d="M64.1497 75.283C64.089 75.283 64.0312 75.2541 63.9947 75.204L62.3653 72.9825C62.3345 72.9411 62.322 72.8891 62.3307 72.838L64.5156 59.137C64.5281 59.06 64.5849 58.9983 64.6601 58.98C64.7352 58.9617 64.8151 58.9906 64.8604 59.0532L66.4897 61.2748C66.5205 61.3162 66.533 61.3682 66.5244 61.4192L64.3394 75.1203C64.3269 75.1973 64.2701 75.2589 64.195 75.2772C64.1795 75.2811 64.1641 75.283 64.1497 75.283ZM62.7235 72.8197L64.0322 74.6041L66.1324 61.4385L64.8238 59.6541L62.7235 72.8197Z" fill="#F5F5F5"/>
<path d="M61.9512 73.3438L63.5806 75.5643H33.6584L32.0301 73.3438H61.9512Z" fill="#A4A4A4"/>
<path d="M63.5806 75.7571H33.6584C33.5968 75.7571 33.539 75.7282 33.5034 75.6782L31.8741 73.4576C31.8307 73.3988 31.825 73.3218 31.8577 73.2563C31.8904 73.1918 31.9569 73.1504 32.0291 73.1504H61.9503C62.0119 73.1504 62.0697 73.1793 62.1053 73.2293L63.7347 75.4509C63.778 75.5096 63.7838 75.5867 63.751 75.6522C63.7193 75.7167 63.6528 75.7571 63.5806 75.7571ZM33.7567 75.3719H63.2002L61.854 73.5356H32.4095L33.7567 75.3719Z" fill="#F5F5F5"/>
<path d="M62.5204 72.8671L64.7053 59.166H65.7993L65.6047 60.388L64.5147 67.2251L63.1684 75.6664C63.0847 76.1922 62.5733 76.6188 62.0293 76.6188H30.9082C30.3632 76.6188 29.9886 76.1922 30.0724 75.6664L31.4186 67.2251L32.5087 60.388L32.7032 59.166H33.7961L31.6112 72.8671C31.5698 73.129 31.7566 73.3428 32.0291 73.3428H61.9503C62.2238 73.3428 62.478 73.1299 62.5204 72.8671Z" fill="#A4A4A4"/>
<path d="M62.0273 76.8116H30.9082C30.5827 76.8116 30.2967 76.6854 30.1013 76.4572C29.9115 76.2347 29.8335 75.943 29.8827 75.6367L32.5144 59.1364C32.5289 59.043 32.6098 58.9736 32.7051 58.9736H33.7981C33.8549 58.9736 33.9078 58.9987 33.9444 59.041C33.981 59.0834 33.9974 59.1402 33.9878 59.1961L31.8028 72.8971C31.7922 72.9655 31.8076 73.0281 31.8471 73.0743C31.8895 73.1234 31.955 73.1504 32.031 73.1504H61.9522C62.1304 73.1504 62.3037 73.0069 62.3316 72.8364L64.5166 59.1354C64.531 59.042 64.6119 58.9727 64.7073 58.9727H65.8002C65.857 58.9727 65.91 58.9977 65.9466 59.0401C65.9832 59.0824 65.9996 59.1392 65.9899 59.1951L63.3572 75.6974C63.2599 76.3118 62.6629 76.8116 62.0273 76.8116ZM32.8678 59.3598L30.2621 75.6974C30.2313 75.891 30.2775 76.072 30.393 76.2078C30.5134 76.3493 30.6964 76.4273 30.9073 76.4273H62.0273C62.4809 76.4273 62.9075 76.073 62.9768 75.6367L65.573 59.3598H64.87L62.711 72.8981C62.6542 73.2563 62.3201 73.5365 61.9513 73.5365H32.0301C31.8413 73.5365 31.667 73.4595 31.5524 73.3247C31.4388 73.1918 31.3926 73.0184 31.4215 72.8374L33.5708 59.3598H32.8678Z" fill="#F5F5F5"/>
<path d="M24.3707 34.9883L31.4167 39.3293L28.6944 56.4026H30.5548L30.1138 59.1683H32.7041L32.5087 60.3893L19.2294 67.2273L24.3707 34.9883Z" fill="#DEDEDE"/>
<path d="M19.2294 67.4206C19.1899 67.4206 19.1495 67.4081 19.1167 67.384C19.058 67.3416 19.0281 67.2694 19.0397 67.1981L24.181 34.9591C24.1916 34.8955 24.232 34.8416 24.2907 34.8147C24.3495 34.7877 24.4169 34.7915 24.4718 34.8252L31.5178 39.1663C31.5842 39.2067 31.6189 39.2838 31.6073 39.3608L28.9197 56.2117H30.5548C30.6116 56.2117 30.6646 56.2367 30.7012 56.2791C30.7378 56.3215 30.7541 56.3783 30.7445 56.4341L30.3391 58.9764H32.7041C32.761 58.9764 32.8139 59.0014 32.8505 59.0438C32.8871 59.0871 32.9035 59.143 32.8938 59.1988L32.6993 60.4208C32.6897 60.4815 32.6521 60.5335 32.5973 60.5614L19.317 67.3994C19.2891 67.4138 19.2593 67.4206 19.2294 67.4206ZM24.5161 35.3038L19.4798 66.8823L32.3344 60.2638L32.4788 59.3615H30.1138C30.057 59.3615 30.004 59.3365 29.9674 59.2941C29.9308 59.2508 29.9144 59.195 29.9241 59.1391L30.3295 56.5969H28.6944C28.6376 56.5969 28.5846 56.5718 28.548 56.5295C28.5114 56.4861 28.495 56.4303 28.5047 56.3744L31.2077 39.4272L24.5161 35.3038Z" fill="#F5F5F5"/>
<path d="M77.5185 32.414C77.4588 32.414 77.401 32.387 77.3644 32.3369L75.7351 30.1154C75.7014 30.0701 75.6898 30.0123 75.7033 29.9574C75.7081 29.9372 75.712 29.9209 75.7149 29.9035C75.7428 29.7254 75.7053 29.5549 75.609 29.424C75.5464 29.3383 75.5647 29.2179 75.6504 29.1543C75.7361 29.0917 75.8564 29.11 75.92 29.1957L77.5493 31.4163C77.7073 31.6311 77.7689 31.9046 77.7246 32.1848C77.7207 32.2108 77.715 32.2358 77.7082 32.2628C77.6909 32.336 77.6321 32.3937 77.559 32.4092C77.5445 32.413 77.531 32.414 77.5185 32.414Z" fill="#F5F5F5"/>
<mask id="mask2_837_56642" style="mask-type:luminance" maskUnits="userSpaceOnUse" x="75" y="29" width="3" height="4">
<path d="M77.5185 32.414C77.4588 32.414 77.401 32.387 77.3644 32.3369L75.7351 30.1154C75.7014 30.0701 75.6898 30.0123 75.7033 29.9574C75.7081 29.9372 75.712 29.9209 75.7149 29.9035C75.7428 29.7254 75.7053 29.5549 75.609 29.424C75.5464 29.3383 75.5647 29.2179 75.6504 29.1543C75.7361 29.0917 75.8564 29.11 75.92 29.1957L77.5493 31.4163C77.7073 31.6311 77.7689 31.9046 77.7246 32.1848C77.7207 32.2108 77.715 32.2358 77.7082 32.2628C77.6909 32.336 77.6321 32.3937 77.559 32.4092C77.5445 32.413 77.531 32.414 77.5185 32.414Z" fill="white"/>
</mask>
<g mask="url(#mask2_837_56642)">
<path d="M75.764 29.3105L77.3933 31.5321C77.4001 31.5408 77.4068 31.5504 77.4126 31.56L75.7833 29.3385C75.7775 29.3288 75.7707 29.3202 75.764 29.3105Z" fill="#DEDEDE"/>
<path d="M77.4126 31.7534C77.3529 31.7534 77.2951 31.7264 77.2575 31.6744L75.6282 29.4529C75.6195 29.4394 75.6147 29.4327 75.6099 29.4259L75.609 29.425C75.5464 29.3392 75.5647 29.2189 75.6504 29.1563C75.7361 29.0937 75.8564 29.112 75.919 29.1977C75.919 29.1977 75.919 29.1987 75.92 29.1987L77.5484 31.4183C77.557 31.4298 77.5647 31.4414 77.5724 31.453C77.6302 31.5396 77.6081 31.6571 77.5224 31.7178C77.4896 31.7418 77.4511 31.7534 77.4126 31.7534Z" fill="#F5F5F5"/>
<path d="M75.7832 29.3398L77.4126 31.5614C77.429 31.5855 77.4444 31.6115 77.4578 31.6375L75.8285 29.4159C75.815 29.3899 75.7996 29.3649 75.7832 29.3398Z" fill="#DEDEDE"/>
<path d="M77.4578 31.8293C77.3981 31.8293 77.3404 31.8013 77.3028 31.7503L75.6735 29.5287C75.6677 29.5201 75.6619 29.5114 75.6571 29.5027C75.6465 29.4825 75.6359 29.4642 75.6234 29.4459C75.5656 29.3593 75.5868 29.2408 75.6735 29.1811C75.7592 29.1214 75.8776 29.1407 75.9393 29.2254L77.5686 31.447C77.5936 31.4845 77.6129 31.5163 77.6293 31.549C77.6755 31.6386 77.6447 31.7484 77.559 31.8013C77.5272 31.8196 77.4925 31.8293 77.4578 31.8293Z" fill="#F5F5F5"/>
<path d="M75.8285 29.416L77.4579 31.6376C77.4733 31.6665 77.4858 31.6973 77.4973 31.7281L75.868 29.5065C75.8564 29.4757 75.843 29.4459 75.8285 29.416Z" fill="#A4A4A4"/>
<path d="M77.4973 31.9198C77.4376 31.9198 77.3789 31.8919 77.3423 31.8408L75.713 29.6193C75.7024 29.6048 75.6937 29.5885 75.687 29.5711C75.6783 29.548 75.6687 29.5249 75.6571 29.5028C75.6118 29.4132 75.6417 29.3034 75.7274 29.2514C75.8131 29.1985 75.9248 29.2206 75.9836 29.3015L77.6129 31.5231C77.6187 31.5317 77.6244 31.5404 77.6293 31.5491C77.6476 31.5856 77.6649 31.6232 77.6784 31.6617C77.7111 31.7522 77.6726 31.8524 77.5878 31.8967C77.559 31.9121 77.5281 31.9198 77.4973 31.9198Z" fill="#F5F5F5"/>
<path d="M75.868 29.5059L77.4973 31.7274C77.5108 31.765 77.5224 31.8045 77.5301 31.8459L75.9008 29.6243C75.8921 29.5839 75.8815 29.5444 75.868 29.5059Z" fill="#DEDEDE"/>
<path d="M77.5301 32.0393C77.4704 32.0393 77.4116 32.0114 77.375 31.9603L75.7457 29.7388C75.7293 29.7157 75.7178 29.6897 75.712 29.6617C75.7062 29.6309 75.6976 29.6011 75.687 29.5722C75.6542 29.4817 75.6927 29.3815 75.7775 29.3372C75.8622 29.292 75.9662 29.316 76.023 29.3931L77.6524 31.6146C77.663 31.6291 77.6716 31.6454 77.6784 31.6628C77.6957 31.71 77.7092 31.7591 77.7188 31.8091C77.7362 31.8977 77.6899 31.9863 77.6071 32.0229C77.5821 32.0335 77.5561 32.0393 77.5301 32.0393Z" fill="#F5F5F5"/>
<path d="M75.9007 29.623L77.5301 31.8446C77.5493 31.9419 77.5512 32.0468 77.5339 32.1556C77.5301 32.1778 77.5252 32.1999 77.5195 32.223L75.8901 30.0015C75.8959 29.9784 75.9007 29.9562 75.9046 29.9341C75.9219 29.8253 75.92 29.7213 75.9007 29.623Z" fill="#A4A4A4"/>
<path d="M77.5185 32.414C77.4588 32.414 77.401 32.387 77.3644 32.337L75.7351 30.1154C75.7014 30.0701 75.6899 30.0124 75.7033 29.9575C75.7081 29.9373 75.712 29.9209 75.7149 29.9035C75.7284 29.8198 75.7274 29.7379 75.712 29.6599C75.6947 29.5713 75.7409 29.4827 75.8237 29.4461C75.9065 29.4095 76.0028 29.4355 76.0567 29.5087L77.6861 31.7303C77.7024 31.7534 77.714 31.7794 77.7198 31.8073C77.7439 31.9296 77.7458 32.0567 77.7246 32.1858C77.7207 32.2108 77.715 32.2368 77.7082 32.2638C77.6909 32.337 77.6321 32.3947 77.559 32.4101C77.5445 32.413 77.531 32.414 77.5185 32.414Z" fill="#F5F5F5"/>
</g>
<path d="M70.6767 18.6338C70.9492 18.6338 71.136 18.8476 71.0936 19.1104L68.9578 32.5004C67.7935 33.6743 66.9721 35.164 66.7131 36.7856L66.5937 37.5358H37.2464L40.1854 19.1095C40.2278 18.8466 40.4829 18.6328 40.7555 18.6328H70.6767V18.6338ZM55.2529 21.5333C55.8307 21.5333 56.3699 21.0816 56.4595 20.525C56.5481 19.9675 56.1523 19.5168 55.5745 19.5168C54.9977 19.5168 54.4584 19.9675 54.3689 20.525C54.2803 21.0807 54.6761 21.5333 55.2529 21.5333Z" fill="#F5F5F5"/>
<path d="M66.5947 37.7296H37.2464C37.1896 37.7296 37.1367 37.7045 37.1001 37.6621C37.0635 37.6198 37.0471 37.563 37.0567 37.5071L39.9957 19.0808C40.0525 18.7226 40.3867 18.4414 40.7564 18.4414H70.6776C70.8664 18.4414 71.0397 18.5184 71.1543 18.6523C71.2679 18.7852 71.3141 18.9595 71.2853 19.1415L69.1494 32.5315C69.1427 32.571 69.1244 32.6085 69.0955 32.6364C67.9245 33.817 67.1464 35.3019 66.9047 36.8167L66.7853 37.5668C66.7699 37.6602 66.689 37.7296 66.5947 37.7296ZM37.4718 37.3444H66.43L66.5234 36.756C66.7786 35.1584 67.5576 33.6562 68.7777 32.4092L70.9039 19.0799C70.9145 19.0105 70.8991 18.9479 70.8606 18.9017C70.8192 18.8526 70.7537 18.8256 70.6776 18.8256H40.7555C40.5764 18.8256 40.4021 18.9701 40.3751 19.1405L37.4718 37.3444ZM55.2529 21.7261C54.912 21.7261 54.6125 21.5941 54.4074 21.3553C54.2081 21.1223 54.1272 20.817 54.1782 20.4954C54.2812 19.8502 54.9072 19.3254 55.5735 19.3254C55.9154 19.3254 56.2158 19.4573 56.42 19.6971C56.6184 19.9301 56.7002 20.2354 56.6482 20.557C56.5461 21.2003 55.9202 21.7261 55.2529 21.7261ZM55.5745 19.7096C55.0892 19.7096 54.6337 20.089 54.5595 20.5551C54.5268 20.7631 54.5769 20.9586 54.7011 21.104C54.8311 21.2561 55.0266 21.3399 55.2529 21.3399C55.7392 21.3399 56.1947 20.9605 56.2688 20.4935C56.3025 20.2855 56.2515 20.09 56.1272 19.9446C55.9982 19.7934 55.8018 19.7096 55.5745 19.7096Z" fill="#F5F5F5"/>
<path d="M81.8441 34.9883L83.4735 37.2089L82.6309 37.6432L81.0016 35.4226L81.8441 34.9883Z" fill="#A4A4A4"/>
<path d="M82.6309 37.8362C82.5712 37.8362 82.5124 37.8082 82.4758 37.7572L80.8465 35.5357C80.8128 35.4904 80.8013 35.4326 80.8147 35.3777C80.8273 35.3228 80.8639 35.2766 80.9139 35.2506L81.7565 34.8163C81.8403 34.773 81.9443 34.7971 82.0001 34.8741L83.6295 37.0957C83.6632 37.1409 83.6747 37.1987 83.6613 37.2536C83.6487 37.3085 83.6121 37.3547 83.5621 37.3807L82.7195 37.815C82.6906 37.8294 82.6607 37.8362 82.6309 37.8362ZM81.2904 35.4904L82.6887 37.3971L83.1846 37.1419L81.7864 35.2352L81.2904 35.4904Z" fill="#F5F5F5"/>
<path d="M80.965 34.9883H81.8451L81.0025 35.4226C80.9948 35.2762 80.9823 35.1308 80.965 34.9883Z" fill="#A4A4A4"/>
<path d="M81.0015 35.6144C80.9678 35.6144 80.9351 35.6057 80.9053 35.5884C80.8484 35.5557 80.8118 35.4969 80.809 35.4314C80.8022 35.2908 80.7897 35.1493 80.7733 35.0106C80.7666 34.9557 80.7839 34.9008 80.8205 34.8594C80.8571 34.818 80.9091 34.7949 80.965 34.7949H81.8451C81.9337 34.7949 82.0117 34.8556 82.0319 34.9423C82.0531 35.0289 82.0117 35.1185 81.9327 35.1589L81.0901 35.5932C81.0622 35.6067 81.0324 35.6144 81.0015 35.6144Z" fill="#F5F5F5"/>
<path d="M81.8451 34.9883L83.4735 37.2089L82.2871 44.6516L80.6578 42.4301L81.8451 34.9883Z" fill="#DEDEDE"/>
<path d="M82.2871 44.844C82.2264 44.844 82.1687 44.8152 82.1321 44.7651L80.5027 42.5435C80.4719 42.5021 80.4594 42.4501 80.4681 42.3991L81.6554 34.9573C81.6679 34.8803 81.7247 34.8186 81.7999 34.8003C81.875 34.782 81.9549 34.8109 82.0001 34.8735L83.6295 37.0951C83.6603 37.1365 83.6728 37.1885 83.6641 37.2395L82.4768 44.6813C82.4643 44.7583 82.4075 44.82 82.3324 44.8383C82.317 44.8421 82.3016 44.844 82.2871 44.844ZM80.861 42.3808L82.1696 44.1652L83.2713 37.2578L81.9626 35.4735L80.861 42.3808Z" fill="#F5F5F5"/>
<path d="M72.3339 46.0977L73.9623 48.3192L72.3204 58.6239L70.6911 56.4023L72.3339 46.0977Z" fill="#DEDEDE"/>
<path d="M72.3204 58.8163C72.2598 58.8163 72.202 58.7874 72.1654 58.7373L70.5361 56.5158C70.5053 56.4744 70.4927 56.4224 70.5014 56.3714L72.1442 46.0667C72.1567 45.9896 72.2135 45.928 72.2887 45.9097C72.3638 45.8914 72.4437 45.9203 72.489 45.9829L74.1183 48.2045C74.1491 48.2459 74.1616 48.2979 74.153 48.3489L72.5101 58.6536C72.4976 58.7306 72.4408 58.7922 72.3657 58.8105C72.3503 58.8144 72.3349 58.8163 72.3204 58.8163ZM70.8933 56.3531L72.202 58.1374L73.7591 48.3672L72.4504 46.5828L70.8933 56.3531Z" fill="#F5F5F5"/>
<path d="M72.7268 43.6384L72.6324 44.2287H70.695C70.5303 45.26 71.2641 46.0978 72.3339 46.0978L70.6911 56.4015H68.8307H30.5548H26.5922L29.3155 39.3272L29.6015 37.5352H36.1544H37.2474H66.5956L66.0564 40.918L65.8281 41.3129H34.4038L34.2824 42.0755H65.3861L64.4819 43.6375H65.6211H72.7268V43.6384ZM68.9327 46.7112L69.0541 45.9486H33.6642L33.5429 46.7112H68.9327ZM60.9209 51.346L61.0422 50.5833H40.1979L40.0766 51.346H60.9209Z" fill="#DEDEDE"/>
<path d="M70.6911 56.5943H26.5913C26.5344 56.5943 26.4815 56.5693 26.4449 56.5269C26.4083 56.4836 26.3919 56.4277 26.4015 56.3719L29.4108 37.5065C29.4253 37.4131 29.5061 37.3438 29.6015 37.3438H66.5956C66.6524 37.3438 66.7054 37.3688 66.742 37.4112C66.7786 37.4545 66.7949 37.5103 66.7853 37.5662L66.2461 40.9491C66.2422 40.9722 66.2345 40.9943 66.223 41.0155L65.9947 41.4103C65.9601 41.47 65.8965 41.5066 65.8281 41.5066H34.5675L34.5078 41.8841H65.3852C65.4535 41.8841 65.5181 41.9207 65.5518 41.9804C65.5864 42.0401 65.5864 42.1133 65.5518 42.173L64.8151 43.446H72.7258C72.7827 43.446 72.8356 43.4711 72.8722 43.5135C72.9088 43.5568 72.9252 43.6126 72.9155 43.6685L72.8212 44.2588C72.8058 44.3522 72.7258 44.4215 72.6305 44.4215H70.8654C70.8432 44.7942 70.953 45.1409 71.1832 45.4095C71.4557 45.7292 71.864 45.9055 72.332 45.9055C72.3888 45.9055 72.4418 45.9305 72.4784 45.9729C72.5149 46.0162 72.5313 46.072 72.5217 46.1279L70.8789 56.4326C70.8664 56.526 70.7855 56.5943 70.6911 56.5943ZM26.8175 56.2092H70.5264L72.1095 46.2781C71.6204 46.228 71.1938 46.0123 70.8914 45.6589C70.5544 45.2641 70.4167 44.7451 70.5043 44.1981C70.5187 44.1047 70.5996 44.0354 70.695 44.0354H72.4687L72.5015 43.8303H64.4819C64.4135 43.8303 64.349 43.7937 64.3153 43.734C64.2807 43.6743 64.2807 43.6011 64.3153 43.5414L65.052 42.2683H34.2824C34.2256 42.2683 34.1727 42.2433 34.1361 42.2009C34.0995 42.1576 34.0831 42.1018 34.0927 42.0459L34.2141 41.2832C34.2285 41.1898 34.3094 41.1205 34.4047 41.1205H65.7164L65.8715 40.8528L66.3703 37.728H29.7652L26.8175 56.2092ZM60.9209 51.5388H40.0766C40.0198 51.5388 39.9668 51.5138 39.9302 51.4714C39.8936 51.428 39.8772 51.3722 39.8869 51.3163L40.0082 50.5537C40.0227 50.4603 40.1035 50.3909 40.1989 50.3909H61.0422C61.099 50.3909 61.152 50.416 61.1886 50.4583C61.2252 50.5017 61.2415 50.5575 61.2319 50.6134L61.1106 51.376C61.0961 51.4695 61.0153 51.5388 60.9209 51.5388ZM40.3019 51.1536H60.7562L60.8159 50.7761H40.3616L40.3019 51.1536ZM68.9327 46.904H33.5429C33.4861 46.904 33.4331 46.879 33.3965 46.8366C33.3599 46.7933 33.3435 46.7375 33.3532 46.6816L33.4745 45.9189C33.489 45.8255 33.5698 45.7562 33.6652 45.7562H69.055C69.1118 45.7562 69.1648 45.7812 69.2014 45.8236C69.238 45.8669 69.2544 45.9228 69.2447 45.9786L69.1234 46.7413C69.108 46.8347 69.0281 46.904 68.9327 46.904ZM33.7682 46.5189H68.7681L68.8278 46.1414H33.8289L33.7682 46.5189Z" fill="#F5F5F5"/>
<path d="M68.8307 56.4023L70.459 58.6239L70.018 61.3886L68.3896 59.168L68.8307 56.4023Z" fill="#DEDEDE"/>
<path d="M70.018 61.581C69.9573 61.581 69.8996 61.5521 69.863 61.502L68.2336 59.2805C68.2028 59.2391 68.1903 59.1871 68.199 59.136L68.64 56.3714C68.6525 56.2943 68.7093 56.2327 68.7844 56.2144C68.8596 56.1961 68.9395 56.225 68.9847 56.2876L70.6141 58.5091C70.6449 58.5506 70.6574 58.6026 70.6487 58.6536L70.2077 61.4183C70.1952 61.4953 70.1384 61.5569 70.0633 61.5752C70.0488 61.5791 70.0334 61.581 70.018 61.581ZM68.5918 59.1187L69.9005 60.9031L70.2559 58.6729L68.9481 56.8885L68.5918 59.1187Z" fill="#F5F5F5"/>
<path d="M62.0273 76.6203H30.9082C30.6087 76.6203 30.3612 76.4913 30.213 76.2891L31.8423 78.5106C31.9915 78.7138 32.239 78.8419 32.5375 78.8419H63.6576L62.0273 76.6203Z" fill="#DEDEDE"/>
<path d="M63.6567 79.0343H32.5375C32.188 79.0343 31.8779 78.885 31.6863 78.624L30.057 76.4025C29.9944 76.3168 30.0127 76.1964 30.0984 76.1329C30.1841 76.0703 30.3044 76.0886 30.368 76.1743C30.4855 76.3351 30.6829 76.4275 30.9082 76.4275H62.0283C62.0899 76.4275 62.1477 76.4564 62.1833 76.5065L63.8127 78.728C63.856 78.7868 63.8618 78.8638 63.829 78.9293C63.7963 78.9938 63.7298 79.0343 63.6567 79.0343ZM30.8341 76.8108L31.9973 78.3958C32.1148 78.5566 32.3122 78.6491 32.5375 78.6491H63.2772L61.931 76.8127H30.9082C30.8832 76.8127 30.8581 76.8127 30.8341 76.8108Z" fill="#F5F5F5"/>
<path d="M65.6038 60.39L64.5137 67.227L63.1675 75.6684C63.1607 75.7088 63.1511 75.7483 63.1405 75.7868C63.1376 75.7984 63.1338 75.809 63.1299 75.8205C63.1203 75.8504 63.1097 75.8793 63.0972 75.9072C63.0933 75.9168 63.0895 75.9264 63.0847 75.937C63.0673 75.9736 63.049 76.0102 63.0279 76.0449C63.0221 76.0545 63.0153 76.0632 63.0096 76.0728C62.9961 76.093 62.9835 76.1132 62.9691 76.1325C62.9595 76.145 62.9498 76.1575 62.9393 76.1701C62.9277 76.1835 62.9171 76.198 62.9056 76.2115C62.894 76.225 62.8824 76.2375 62.8699 76.25C62.8593 76.2615 62.8487 76.2721 62.8372 76.2837C62.8247 76.2962 62.8102 76.3078 62.7967 76.3203C62.7861 76.3299 62.7746 76.3405 62.763 76.3492C62.7496 76.3607 62.7351 76.3713 62.7207 76.3819C62.7081 76.3915 62.6966 76.4012 62.6831 76.4098C62.6696 76.4185 62.6561 76.4272 62.6427 76.4358C62.6273 76.4455 62.6118 76.4561 62.5964 76.4647C62.5849 76.4715 62.5733 76.4773 62.5618 76.483C62.5416 76.4936 62.5213 76.5052 62.5001 76.5148C62.4896 76.5196 62.478 76.5244 62.4674 76.5292C62.4385 76.5418 62.4087 76.5533 62.3779 76.563C62.3653 76.5668 62.3528 76.5716 62.3403 76.5755C62.3297 76.5784 62.3181 76.5812 62.3076 76.5841C62.2883 76.589 62.2681 76.5938 62.2478 76.5986C62.2363 76.6005 62.2257 76.6034 62.2141 76.6053C62.193 76.6092 62.1718 76.6121 62.1506 76.614C62.141 76.615 62.1304 76.6169 62.1207 76.6178C62.0899 76.6207 62.0581 76.6227 62.0264 76.6227L63.6557 78.8442C63.6875 78.8442 63.7183 78.8423 63.7501 78.8394C63.7597 78.8384 63.7703 78.8365 63.7799 78.8355C63.8011 78.8327 63.8223 78.8298 63.8435 78.8269C63.855 78.825 63.8656 78.823 63.8772 78.8201C63.8974 78.8163 63.9167 78.8115 63.9369 78.8057C63.9475 78.8028 63.959 78.7999 63.9696 78.797C63.9754 78.7951 63.9812 78.7941 63.987 78.7922C63.9937 78.7903 64.0004 78.7864 64.0072 78.7845C64.037 78.7739 64.0669 78.7633 64.0958 78.7508C64.1025 78.7479 64.1093 78.746 64.116 78.7431C64.1208 78.7412 64.1247 78.7383 64.1285 78.7364C64.1497 78.7267 64.1699 78.7161 64.1901 78.7046C64.1988 78.6998 64.2084 78.6959 64.2171 78.6911C64.22 78.6892 64.2219 78.6882 64.2248 78.6863C64.2402 78.6767 64.2556 78.667 64.271 78.6574C64.2816 78.6507 64.2932 78.6439 64.3038 78.6362C64.3057 78.6343 64.3086 78.6324 64.3105 78.6314C64.323 78.6227 64.3355 78.6131 64.3481 78.6035C64.3596 78.5948 64.3721 78.5861 64.3827 78.5775C64.3856 78.5755 64.3876 78.5736 64.3904 78.5707C64.402 78.5611 64.4126 78.5515 64.4241 78.5418C64.4347 78.5322 64.4463 78.5235 64.4559 78.5139C64.4588 78.511 64.4617 78.5081 64.4636 78.5052C64.4752 78.4947 64.4858 78.4831 64.4964 78.4715C64.505 78.4619 64.5156 78.4532 64.5243 78.4436C64.5272 78.4407 64.5291 78.4369 64.532 78.434C64.5436 78.4205 64.5551 78.407 64.5657 78.3926C64.5734 78.383 64.5821 78.3743 64.5888 78.3647C64.5907 78.3618 64.5927 78.3589 64.5946 78.356C64.609 78.3367 64.6225 78.3165 64.635 78.2963C64.6399 78.2886 64.6466 78.2809 64.6514 78.2722C64.6524 78.2713 64.6524 78.2693 64.6533 78.2684C64.6745 78.2337 64.6938 78.1971 64.7101 78.1605C64.7121 78.1576 64.714 78.1538 64.715 78.1509C64.7178 78.1441 64.7198 78.1374 64.7227 78.1307C64.7352 78.1018 64.7458 78.0729 64.7554 78.044C64.7593 78.0324 64.7631 78.0218 64.766 78.0103C64.7776 77.9718 64.7872 77.9323 64.793 77.8918L66.1392 69.4505L67.2293 62.6135L67.4238 61.3915L65.7944 59.1699L65.6038 60.39Z" fill="#A4A4A4"/>
<path d="M63.6567 79.0337C63.595 79.0337 63.5373 79.0048 63.5016 78.9548L61.8723 76.7332C61.829 76.6745 61.8232 76.5974 61.8559 76.5319C61.8887 76.4674 61.9551 76.426 62.0273 76.426C62.0533 76.426 62.0784 76.4241 62.1044 76.4222L62.1284 76.4193C62.1467 76.4173 62.1641 76.4145 62.1814 76.4116L62.2093 76.4058C62.2257 76.4019 62.2421 76.3981 62.2584 76.3942L62.3172 76.3759C62.3422 76.3673 62.3673 76.3576 62.3913 76.347L62.4193 76.3355C62.4366 76.3278 62.4539 76.3182 62.4713 76.3095L62.5001 76.2941C62.5098 76.2883 62.5204 76.2816 62.53 76.2758L62.5531 76.2613C62.5599 76.2565 62.5676 76.2527 62.5743 76.2479C62.581 76.243 62.5878 76.2382 62.5936 76.2334L62.6147 76.218C62.6234 76.2113 62.633 76.2045 62.6417 76.1978L62.6696 76.1728C62.6841 76.1602 62.6937 76.1516 62.7033 76.1419C62.7101 76.1352 62.7168 76.1285 62.7226 76.1217L62.7303 76.113C62.7428 76.0996 62.7515 76.0909 62.7601 76.0813C62.7688 76.0716 62.7765 76.062 62.7842 76.0514L62.7958 76.037C62.8016 76.0293 62.8073 76.0225 62.8131 76.0148C62.8247 75.9985 62.8362 75.9821 62.8468 75.9648L62.8622 75.9416C62.8786 75.9137 62.894 75.8848 62.9094 75.8521L62.92 75.828C62.9296 75.8049 62.9393 75.7818 62.947 75.7577L62.9556 75.7308C62.9662 75.6942 62.973 75.6633 62.9778 75.6354L65.6096 59.135C65.6221 59.058 65.6789 58.9964 65.754 58.9781C65.8291 58.9598 65.909 58.9887 65.9543 59.0513L67.5836 61.2728C67.6144 61.3142 67.627 61.3662 67.6183 61.4173L64.9865 77.9176C64.9798 77.9619 64.9692 78.0082 64.9538 78.0592C64.9509 78.0698 64.947 78.0813 64.9432 78.0919C64.9297 78.1333 64.9162 78.168 64.9018 78.2017C64.8998 78.2075 64.897 78.2162 64.8921 78.2258C64.8902 78.2296 64.8873 78.2364 64.8844 78.2412C64.8652 78.2826 64.845 78.3211 64.8228 78.3577C64.8218 78.3596 64.8209 78.3616 64.8199 78.3635C64.8122 78.376 64.8074 78.3837 64.8016 78.3914C64.7833 78.4184 64.7679 78.4425 64.7516 78.4646C64.7516 78.4646 64.7477 78.4704 64.7439 78.4752C64.7381 78.4839 64.7304 78.4916 64.7236 78.5002L64.7179 78.5079C64.7015 78.5282 64.6909 78.5416 64.6784 78.5551C64.6774 78.5571 64.6726 78.5619 64.6687 78.5667C64.661 78.5753 64.6533 78.583 64.6447 78.5917L64.637 78.5994C64.6206 78.6168 64.61 78.6273 64.5994 78.6379L64.5898 78.6476C64.5811 78.6562 64.5715 78.6649 64.5619 78.6726L64.5455 78.687C64.5349 78.6957 64.5253 78.7053 64.5147 78.714C64.5118 78.7169 64.5079 78.7198 64.505 78.7227C64.4964 78.7294 64.4867 78.7371 64.4761 78.7439L64.4569 78.7583C64.4453 78.767 64.4347 78.7756 64.4232 78.7833C64.4059 78.7959 64.3962 78.8016 64.3866 78.8074L64.3683 78.819C64.3538 78.8286 64.3384 78.8382 64.323 78.8469L64.3144 78.8527C64.3057 78.8575 64.297 78.8623 64.2884 78.8662C64.2595 78.8816 64.2364 78.8941 64.2123 78.9047C64.2094 78.9066 64.2036 78.9095 64.1978 78.9124C64.1882 78.9162 64.1805 78.9201 64.1719 78.923C64.1401 78.9365 64.1054 78.9499 64.0707 78.9615C64.065 78.9644 64.0563 78.9673 64.0476 78.9702C64.0409 78.9721 64.0341 78.974 64.0284 78.9759C64.0168 78.9798 64.0053 78.9827 63.9947 78.9856C63.9658 78.9933 63.9427 78.999 63.9196 79.0039C63.907 79.0068 63.8936 79.0096 63.8801 79.0116C63.855 79.0164 63.83 79.0193 63.805 79.0222C63.7876 79.0241 63.779 79.025 63.7703 79.026C63.7308 79.0318 63.6942 79.0337 63.6567 79.0337ZM62.3721 76.764L63.7501 78.6428L63.7578 78.6418C63.7751 78.6399 63.7924 78.637 63.8098 78.6341L63.8377 78.6283C63.855 78.6245 63.8714 78.6206 63.8878 78.6167L63.9147 78.6091C63.9167 78.6081 63.9273 78.6052 63.9292 78.6052C63.9321 78.6042 63.9388 78.6013 63.9465 78.5985C63.9716 78.5898 63.9966 78.5802 64.0207 78.5696C64.0264 78.5676 64.0322 78.5647 64.038 78.5628C64.0419 78.5609 64.0447 78.559 64.0486 78.558C64.0659 78.5503 64.0833 78.5407 64.1006 78.531L64.1189 78.5214C64.1218 78.5195 64.1256 78.5176 64.1285 78.5156C64.1391 78.5089 64.1497 78.5031 64.1593 78.4964L64.1969 78.4723C64.2094 78.4636 64.2152 78.4588 64.2219 78.4531L64.2624 78.4222C64.2749 78.4116 64.2807 78.4059 64.2874 78.401L64.3307 78.3616C64.3375 78.3548 64.3442 78.3481 64.351 78.3404L64.3577 78.3336L64.3885 78.3009C64.3962 78.2922 64.4039 78.2826 64.4116 78.273L64.4415 78.2354C64.454 78.219 64.4646 78.2017 64.4752 78.1853L64.4867 78.168C64.4877 78.1661 64.4887 78.1651 64.4896 78.1632C64.507 78.1353 64.5224 78.1054 64.5378 78.0736C64.5387 78.0717 64.5407 78.0688 64.5416 78.065C64.5426 78.0611 64.5455 78.0553 64.5474 78.0496C64.558 78.0255 64.5667 78.0024 64.5744 77.9783L64.583 77.9513C64.5936 77.9148 64.6004 77.8839 64.6052 77.856L67.2244 61.4356L65.9158 59.6512L63.3572 75.698C63.3504 75.7423 63.3398 75.7876 63.3244 75.8396C63.3216 75.8511 63.3177 75.8627 63.3138 75.8742C63.3004 75.9147 63.2879 75.9484 63.2734 75.9821C63.2667 75.9994 63.2628 76.0081 63.258 76.0167C63.2378 76.061 63.2147 76.1044 63.1906 76.1429C63.1858 76.1516 63.18 76.1593 63.1742 76.1679C63.154 76.1987 63.1386 76.2228 63.1213 76.245C63.1126 76.2565 63.103 76.269 63.0933 76.2796L63.0866 76.2873C63.0712 76.3066 63.0596 76.3211 63.0471 76.3345C63.0346 76.348 63.0221 76.3615 63.0096 76.375L62.999 76.3865C62.9893 76.3971 62.9787 76.4077 62.9681 76.4173C62.9547 76.4308 62.9402 76.4433 62.9267 76.4559L62.9133 76.4674C62.9036 76.4761 62.894 76.4848 62.8834 76.4934C62.8699 76.504 62.8564 76.5146 62.843 76.5242L62.8247 76.5377C62.8141 76.5464 62.8025 76.555 62.791 76.5628C62.7794 76.5705 62.7678 76.5782 62.7553 76.5859L62.7351 76.5984C62.7207 76.608 62.7053 76.6176 62.6908 76.6263C62.6812 76.6321 62.6706 76.6369 62.661 76.6427L62.6513 76.6475C62.6273 76.66 62.6041 76.6725 62.5801 76.6841C62.5695 76.6889 62.5598 76.6927 62.5502 76.6976C62.5078 76.7159 62.4732 76.7293 62.4385 76.7409L62.4289 76.7447C62.4173 76.7486 62.4067 76.7525 62.3952 76.7563C62.3884 76.7602 62.3807 76.7621 62.3721 76.764Z" fill="#F5F5F5"/>
<path d="M80.4652 43.6387L82.0935 45.8593L78.3322 69.447L76.7029 67.2265L80.4652 43.6387Z" fill="#DEDEDE"/>
<path d="M78.3322 69.6404C78.2716 69.6404 78.2138 69.6115 78.1772 69.5615L76.5478 67.3399C76.517 67.2985 76.5045 67.2465 76.5132 67.1955L80.2755 43.6077C80.288 43.5307 80.3448 43.469 80.4199 43.4507C80.495 43.4324 80.575 43.4613 80.6202 43.5239L82.2496 45.7455C82.2804 45.7869 82.2929 45.8389 82.2842 45.8899L78.5219 69.4777C78.5094 69.5547 78.4526 69.6164 78.3775 69.6347C78.3621 69.6395 78.3467 69.6404 78.3322 69.6404ZM76.9061 67.1781L78.2147 68.9625L81.8913 45.9092L80.5827 44.1248L76.9061 67.1781Z" fill="#F5F5F5"/>
<path d="M82.2871 44.6501L82.6001 45.8586L80.9707 43.638L80.6578 42.4295L80.2658 40.9205L80.9245 36.7865C80.9987 36.3195 81.0237 35.864 81.0015 35.422C80.9938 35.2756 80.9813 35.1312 80.9649 34.9877C80.9515 34.8741 80.9332 34.7624 80.9139 34.6526C80.911 34.6333 80.9072 34.615 80.9033 34.5967C80.8831 34.4908 80.86 34.3868 80.835 34.2828C80.8301 34.2626 80.8244 34.2414 80.8195 34.2221C80.7926 34.1172 80.7627 34.0122 80.73 33.9092C80.7281 33.9044 80.7261 33.8986 80.7252 33.8938C80.6972 33.8071 80.6655 33.7224 80.6327 33.6376C80.6125 33.5827 80.5904 33.5298 80.5682 33.4758C80.5451 33.419 80.521 33.3632 80.496 33.3073C80.4719 33.2544 80.4478 33.2033 80.4209 33.1504C80.3939 33.0935 80.365 33.0377 80.3342 32.9818C80.3121 32.9395 80.2899 32.899 80.2668 32.8576C80.2331 32.7998 80.1994 32.7421 80.1638 32.6852C80.1397 32.6467 80.1156 32.6063 80.0906 32.5687C80.0357 32.484 79.9789 32.3992 79.9201 32.3184L81.5485 34.539C81.5967 34.6044 81.6429 34.669 81.6872 34.7364C81.6987 34.7527 81.7093 34.771 81.7199 34.7893C81.745 34.8269 81.769 34.8673 81.7931 34.9058C81.8287 34.9627 81.8624 35.0204 81.8961 35.0782C81.9192 35.1196 81.9414 35.1601 81.9635 35.2024C81.978 35.2284 81.9944 35.2554 82.0078 35.2824C82.0223 35.3122 82.0358 35.3421 82.0502 35.371C82.0752 35.4239 82.1003 35.475 82.1253 35.5279C82.1504 35.5838 82.1735 35.6396 82.1975 35.6964C82.2197 35.7504 82.2409 35.8033 82.2621 35.8582C82.2717 35.8823 82.2823 35.9064 82.2919 35.9304C82.3141 35.9911 82.3343 36.0537 82.3535 36.1153C82.3555 36.1201 82.3574 36.125 82.3603 36.1298C82.393 36.2328 82.4219 36.3378 82.4498 36.4427C82.4547 36.4639 82.4604 36.4841 82.4652 36.5044C82.4874 36.5939 82.5086 36.6844 82.5259 36.7759C82.5288 36.7894 82.5307 36.8038 82.5336 36.8183C82.5375 36.8375 82.5404 36.8549 82.5442 36.8741C82.5644 36.9849 82.5818 37.0956 82.5952 37.2092C82.6116 37.3518 82.6251 37.4972 82.6318 37.6435C82.654 38.0846 82.6299 38.541 82.5548 39.009L81.8961 43.1421L82.2871 44.6501Z" fill="#C0C0C0"/>
<path d="M82.6001 46.052C82.5404 46.052 82.4816 46.024 82.445 45.973L80.8157 43.7524C80.8012 43.7331 80.7907 43.71 80.7849 43.6869L80.08 40.9685C80.0732 40.9425 80.0723 40.9155 80.0761 40.8895L80.7348 36.7555C80.8061 36.3106 80.8311 35.8648 80.809 35.4314C80.8022 35.2947 80.7897 35.1531 80.7733 35.0106C80.7618 34.9134 80.7454 34.8074 80.7233 34.6871C80.7204 34.6697 80.7184 34.6553 80.7146 34.6408C80.6953 34.5388 80.6732 34.4386 80.6462 34.3279L80.6318 34.2711C80.6029 34.1603 80.575 34.0621 80.547 33.9725C80.5441 33.9639 80.5412 33.9562 80.5384 33.9475C80.5095 33.8599 80.4767 33.7722 80.4507 33.7058C80.4305 33.6519 80.4103 33.6008 80.3891 33.5508C80.366 33.493 80.3429 33.44 80.3178 33.3861C80.2947 33.337 80.2716 33.2869 80.2466 33.2368C80.2196 33.18 80.1927 33.128 80.1638 33.0751C80.1407 33.0317 80.1195 32.9922 80.0973 32.9537C80.0665 32.8998 80.0338 32.844 79.9991 32.7891L79.9827 32.7631C79.9644 32.7342 79.9471 32.7053 79.9278 32.6764C79.8691 32.5849 79.8152 32.506 79.7622 32.4328C79.6996 32.3471 79.7189 32.2267 79.8046 32.1641C79.8903 32.1015 80.0107 32.1198 80.0733 32.2055L81.7016 34.4261C81.7565 34.4993 81.8037 34.5667 81.8461 34.6322C81.8576 34.6485 81.8701 34.6697 81.8827 34.6909C81.8981 34.714 81.9183 34.7458 81.9375 34.7776L81.9539 34.8045C81.9905 34.8623 82.0252 34.922 82.0598 34.9817C82.0849 35.027 82.108 35.0694 82.1311 35.1127L82.1398 35.1291C82.1523 35.1512 82.1648 35.1734 82.1764 35.1965C82.186 35.2167 82.1956 35.236 82.2052 35.2562L82.2399 35.3284C82.2592 35.3679 82.2775 35.4074 82.2958 35.4468C82.3169 35.4931 82.3352 35.5374 82.3545 35.5826L82.3709 35.6202C82.394 35.677 82.4161 35.7319 82.4373 35.7887L82.4662 35.86C82.4893 35.9245 82.5095 35.9861 82.5298 36.0477L82.5346 36.0583C82.5365 36.0631 82.5384 36.067 82.5394 36.0718C82.5702 36.1691 82.6001 36.275 82.6318 36.3944L82.6482 36.458C82.6752 36.5668 82.6954 36.6563 82.7118 36.7391C82.7137 36.7488 82.7175 36.7661 82.7195 36.7834C82.7204 36.7892 82.7233 36.8008 82.7252 36.8133L82.7291 36.8316C82.7541 36.9674 82.7715 37.08 82.784 37.186C82.8023 37.3381 82.8148 37.4883 82.8215 37.6337C82.8447 38.094 82.8177 38.5668 82.7426 39.0387L82.0897 43.1322L82.472 44.6027L82.785 45.8112C82.8081 45.9008 82.7647 45.9942 82.6809 46.0337C82.6569 46.0452 82.628 46.052 82.6001 46.052ZM81.1479 43.554L82.1619 44.9359L81.7084 43.1891C81.7016 43.1631 81.7007 43.1361 81.7045 43.1101L82.3632 38.9771C82.4344 38.5312 82.4595 38.0854 82.4373 37.652C82.4306 37.5153 82.4181 37.3737 82.4017 37.2312C82.3901 37.134 82.3738 37.028 82.3516 36.9077C82.3507 36.9028 82.3478 36.8903 82.3458 36.8778L82.342 36.8595C82.341 36.8557 82.3401 36.8508 82.3401 36.847C82.3381 36.8335 82.3372 36.8268 82.3352 36.8191C82.3189 36.7353 82.3006 36.6525 82.2746 36.5504L82.2592 36.4888C82.2312 36.3809 82.2033 36.2846 82.1754 36.196L82.1715 36.1864C82.1696 36.1825 82.1687 36.1777 82.1667 36.1729C82.1475 36.1132 82.1282 36.0535 82.107 35.9948L82.0791 35.9274C82.0579 35.8725 82.0377 35.8205 82.0165 35.7685L82.0011 35.7319C81.9828 35.6895 81.9655 35.6481 81.9462 35.6057C81.9298 35.5691 81.9115 35.5325 81.8932 35.495L81.8567 35.4189C81.849 35.4025 81.8412 35.3852 81.8326 35.3679C81.8239 35.3515 81.8152 35.3351 81.8056 35.3188L81.7921 35.2957C81.7681 35.2504 81.7469 35.2119 81.7247 35.1724C81.6939 35.1185 81.6612 35.0626 81.6265 35.0077L81.6082 34.9788C81.5909 34.9509 81.5735 34.922 81.5552 34.8951C81.5533 34.8922 81.5514 34.8893 81.5495 34.8864C81.5408 34.871 81.5331 34.8575 81.5244 34.845C81.484 34.7834 81.4407 34.7217 81.3896 34.6534L80.9804 34.0958C80.9871 34.1208 80.9938 34.1468 81.0006 34.1728L81.016 34.2335C81.0458 34.3548 81.068 34.4608 81.0872 34.5609C81.0911 34.5744 81.095 34.5975 81.0988 34.6206C81.121 34.7458 81.1392 34.8594 81.1518 34.9644C81.1701 35.1165 81.1826 35.2668 81.1893 35.4122C81.2124 35.8725 81.1855 36.3453 81.1104 36.8162L80.4575 40.9107L81.1479 43.554Z" fill="#F5F5F5"/>
<path d="M68.8307 56.4023L68.3896 59.168H65.7993H64.7053H33.7961H32.7041H30.1138L30.5548 56.4023H68.8307Z" fill="#DEDEDE"/>
<path d="M68.3896 59.3608H30.1138C30.057 59.3608 30.004 59.3358 29.9674 59.2934C29.9308 59.25 29.9144 59.1942 29.9241 59.1383L30.3651 56.3737C30.3795 56.2803 30.4604 56.2109 30.5558 56.2109H68.8316C68.8884 56.2109 68.9414 56.236 68.978 56.2783C69.0146 56.3217 69.031 56.3775 69.0213 56.4334L68.5803 59.198C68.5649 59.2915 68.484 59.3608 68.3896 59.3608ZM30.3391 58.9756H68.225L68.6044 56.5961H30.7185L30.3391 58.9756Z" fill="#F5F5F5"/>
<path d="M31.6112 72.869L33.7961 59.168H64.7053L62.5204 72.869C62.479 73.1309 62.2238 73.3447 61.9513 73.3447H32.0301C31.7566 73.3457 31.5698 73.1319 31.6112 72.869Z" fill="#F5F5F5"/>
<path d="M61.9513 73.5375H32.0301C31.8413 73.5375 31.667 73.4605 31.5524 73.3256C31.4388 73.1928 31.3926 73.0194 31.4215 72.8384L33.6064 59.1374C33.6209 59.0439 33.7018 58.9746 33.7971 58.9746H64.7063C64.7631 58.9746 64.8161 58.9996 64.8527 59.042C64.8893 59.0854 64.9056 59.1412 64.896 59.1971L62.711 72.8981C62.6533 73.2563 62.3201 73.5375 61.9513 73.5375ZM33.9608 59.3608L31.8018 72.8991C31.7913 72.9674 31.8067 73.03 31.8461 73.0762C31.8885 73.1253 31.954 73.1523 32.0301 73.1523H61.9513C62.1294 73.1523 62.3027 73.0088 62.3307 72.8384L64.48 59.3608H33.9608Z" fill="#F5F5F5"/>
<path d="M70.6911 56.4023H68.8307H30.5548H26.5912L28.2206 58.6239H32.1832H70.459H72.3204L70.6911 56.4023Z" fill="#DEDEDE"/>
<path d="M72.3204 58.8167H28.2206C28.159 58.8167 28.1012 58.7878 28.0655 58.7377L26.4362 56.5162C26.3929 56.4574 26.3871 56.3804 26.4198 56.3149C26.4526 56.2504 26.519 56.209 26.5913 56.209H70.6911C70.7527 56.209 70.8105 56.2379 70.8461 56.2879L72.4755 58.5095C72.5188 58.5682 72.5246 58.6453 72.4918 58.7108C72.4591 58.7753 72.3927 58.8167 72.3204 58.8167ZM28.3178 58.4315H71.9391L70.5929 56.5951H26.9716L28.3178 58.4315Z" fill="#F5F5F5"/>
<path d="M70.018 61.3886H31.7431L30.1138 59.168H68.3896L70.018 61.3886Z" fill="#DEDEDE"/>
<path d="M70.018 61.5813H31.7431C31.6815 61.5813 31.6237 61.5525 31.5881 61.5024L29.9587 59.2818C29.9154 59.2231 29.9096 59.146 29.9424 59.0805C29.9751 59.016 30.0415 58.9746 30.1138 58.9746H68.3896C68.4513 58.9746 68.509 59.0035 68.5447 59.0536L70.174 61.2742C70.2173 61.3329 70.2231 61.4099 70.1904 61.4754C70.1576 61.5409 70.0912 61.5813 70.018 61.5813ZM31.8404 61.1962H69.6386L68.2924 59.3608H30.4941L31.8404 61.1962Z" fill="#F5F5F5"/>
<path d="M65.8262 41.3145L65.3852 42.0762H34.2824L34.4038 41.3145H65.8262Z" fill="#A4A4A4"/>
<path d="M65.3852 42.2689H34.2815C34.2247 42.2689 34.1717 42.2439 34.1351 42.2015C34.0985 42.1592 34.0821 42.1024 34.0918 42.0465L34.2131 41.2838C34.2276 41.1904 34.3084 41.1211 34.4038 41.1211H65.8262C65.8946 41.1211 65.9591 41.1577 65.9928 41.2174C66.0275 41.2771 66.0275 41.3503 65.9928 41.41L65.5518 42.1727C65.5181 42.2324 65.4545 42.2689 65.3852 42.2689ZM34.5078 41.8838H65.2744L65.493 41.5063H34.5675L34.5078 41.8838Z" fill="#A4A4A4"/>
<path d="M61.0422 50.584L60.9209 51.3466H40.0766L40.1979 50.584H61.0422Z" fill="#A4A4A4"/>
<path d="M60.9209 51.5385H40.0766C40.0198 51.5385 39.9668 51.5134 39.9302 51.4711C39.8936 51.4277 39.8773 51.3719 39.8869 51.316L40.0082 50.5534C40.0227 50.46 40.1036 50.3906 40.1989 50.3906H61.0422C61.099 50.3906 61.152 50.4157 61.1886 50.458C61.2252 50.5014 61.2416 50.5572 61.2319 50.6131L61.1106 51.3757C61.0961 51.4691 61.0153 51.5385 60.9209 51.5385ZM40.3019 51.1533H60.7562L60.8159 50.7758H40.3616L40.3019 51.1533Z" fill="#A4A4A4"/>
<path d="M69.055 45.9492L68.9327 46.7119H33.5429L33.6642 45.9492H69.055Z" fill="#A4A4A4"/>
<path d="M68.9327 46.9037H33.5429C33.4861 46.9037 33.4331 46.8787 33.3965 46.8363C33.3599 46.7939 33.3435 46.7371 33.3532 46.6813L33.4745 45.9186C33.489 45.8252 33.5698 45.7559 33.6652 45.7559H69.055C69.1118 45.7559 69.1648 45.7809 69.2014 45.8233C69.238 45.8656 69.2544 45.9225 69.2447 45.9783L69.1234 46.741C69.108 46.8344 69.0281 46.9037 68.9327 46.9037ZM33.7682 46.5185H68.7681L68.8278 46.141H33.8289L33.7682 46.5185Z" fill="#A4A4A4"/>
<path d="M75.0649 28.9785C75.6128 28.9785 75.9884 29.4061 75.9046 29.9357C75.9007 29.9578 75.8959 29.98 75.8901 30.0031C77.4232 30.213 78.7145 30.9141 79.6168 31.9425C80.3477 32.7745 80.8224 33.8203 80.965 34.9893C80.9823 35.1318 80.9948 35.2773 81.0016 35.4236C81.0237 35.8647 80.9996 36.3211 80.9245 36.7881L80.2649 40.9212L80.6568 42.4311L80.9707 43.6396H80.4642H79.8316H72.7258H65.6201H64.481L65.3852 42.0777L65.8262 41.315L66.0544 40.9202L66.5937 37.5373L66.7131 36.7872C66.9721 35.1656 67.7935 33.6749 68.9578 32.502C69.3439 32.113 69.7667 31.7596 70.2193 31.4466C71.3151 30.6897 72.5843 30.1764 73.9122 30.0012C73.9141 29.979 73.9161 29.9569 73.919 29.9347C74.0047 29.4061 74.517 28.9785 75.0649 28.9785Z" fill="#C0C0C0"/>
<path d="M80.9717 43.8324H64.4819C64.4136 43.8324 64.349 43.7958 64.3153 43.7361C64.2807 43.6764 64.2807 43.6032 64.3153 43.5435L65.8705 40.8559L66.5244 36.7575C66.7824 35.1407 67.5769 33.6221 68.822 32.3664C69.2159 31.9697 69.6492 31.6066 70.1114 31.2879C71.2179 30.5243 72.4707 30.0216 73.7447 29.8309C73.8766 29.2483 74.4534 28.7852 75.0649 28.7852C75.3913 28.7852 75.6793 28.9113 75.8757 29.1415C76.0404 29.334 76.1213 29.5796 76.1078 29.8406C77.5599 30.0813 78.8522 30.7775 79.7613 31.8146C80.5287 32.689 81.0112 33.7791 81.1556 34.9655C81.1739 35.1128 81.1864 35.263 81.1941 35.4132C81.2173 35.8726 81.1903 36.3454 81.1152 36.8182L80.4623 40.9117L81.1585 43.5917C81.1739 43.6494 81.1604 43.7111 81.1248 43.7583C81.0892 43.8055 81.0314 43.8324 80.9717 43.8324ZM64.8151 43.4472H80.7223L80.079 40.9695C80.0723 40.9435 80.0713 40.9166 80.0752 40.8906L80.7348 36.7575C80.8061 36.3117 80.8311 35.8658 80.8099 35.4325C80.8032 35.2919 80.7907 35.1503 80.7743 35.0126C80.6395 33.9033 80.1898 32.8854 79.4724 32.0689C78.571 31.0414 77.324 30.3933 75.8642 30.193C75.8102 30.1853 75.7621 30.1555 75.7313 30.1112C75.7004 30.0669 75.6899 30.011 75.7024 29.958C75.7072 29.9378 75.711 29.9215 75.7139 29.9041C75.7447 29.7096 75.6985 29.5276 75.582 29.3909C75.4607 29.2483 75.2767 29.1703 75.0649 29.1703C74.6084 29.1703 74.1799 29.5266 74.1106 29.9648C74.1077 29.9821 74.1067 29.9995 74.1048 30.0168C74.0981 30.1073 74.0278 30.1805 73.9382 30.193C72.6748 30.3596 71.4278 30.8478 70.33 31.6057C69.888 31.9109 69.472 32.2586 69.0955 32.638C67.9245 33.8186 67.1464 35.3035 66.9047 36.8182L66.2451 40.9512C66.2413 40.9743 66.2336 40.9965 66.222 41.0177L64.8151 43.4472Z" fill="#F5F5F5"/>
<path d="M81.3915 36.5098C81.7315 36.5098 81.9655 36.7765 81.9135 37.1049C81.8605 37.4342 81.5427 37.7 81.2018 37.7C80.861 37.7 80.627 37.4332 80.679 37.1049C80.7319 36.7765 81.0507 36.5098 81.3915 36.5098Z" fill="#DEDEDE"/>
<path d="M82.4932 29.6328C82.8716 29.6328 83.1336 29.9525 83.045 30.3213L81.7546 35.9094C81.7228 36.0461 81.589 36.1492 81.4503 36.1492C81.4445 36.1492 81.4378 36.1492 81.432 36.1482C81.2991 36.1396 81.2105 36.0356 81.2221 35.9094L81.7142 30.3213C81.745 29.967 82.0714 29.6588 82.4441 29.6347C82.4595 29.6338 82.4759 29.6328 82.4932 29.6328Z" fill="#DEDEDE"/>
<path d="M82.7349 28.0859C85.931 28.0859 88.1217 30.5848 87.6306 33.6673C87.1385 36.7507 84.1504 39.2486 80.9544 39.2486C77.7573 39.2486 75.5656 36.7507 76.0577 33.6673C76.5498 30.5848 79.5388 28.0859 82.7349 28.0859Z" fill="#A4A4A4"/>
<path d="M80.9553 39.5031C79.3077 39.5031 77.8633 38.8743 76.8887 37.7322C75.945 36.6258 75.5608 35.1679 75.8064 33.6262C76.3158 30.4301 79.4242 27.8301 82.7358 27.8301C84.3825 27.8301 85.827 28.4589 86.8015 29.601C87.7452 30.7074 88.1304 32.1653 87.8839 33.707C87.3735 36.9031 84.266 39.5031 80.9553 39.5031ZM82.7349 28.3404C79.664 28.3404 76.7818 30.7479 76.31 33.7061C76.0885 35.0976 76.4313 36.4091 77.2768 37.4C78.1531 38.4265 79.4589 38.9918 80.9544 38.9918C84.0243 38.9918 86.9064 36.5844 87.3783 33.6262C87.5998 32.2347 87.257 30.9231 86.4115 29.9322C85.5361 28.9067 84.2304 28.3404 82.7349 28.3404Z" fill="#F5F5F5"/>
<path d="M83.044 30.3213C83.1326 29.9525 82.8707 29.6328 82.4922 29.6328C82.4758 29.6328 82.4585 29.6338 82.4412 29.6347C82.0685 29.6588 81.7421 29.967 81.7113 30.3213L81.2192 35.9094C81.2076 36.0365 81.2962 36.1396 81.4291 36.1482C81.4349 36.1482 81.4416 36.1492 81.4474 36.1492C81.587 36.1492 81.7209 36.0461 81.7517 35.9094L83.044 30.3213Z" fill="#F5F5F5"/>
<path d="M81.4484 36.4037C81.4358 36.4037 81.4233 36.4037 81.4118 36.4027C81.2798 36.3941 81.1604 36.3353 81.0767 36.2381C80.9938 36.1418 80.9544 36.0166 80.9659 35.8866L81.458 30.2985C81.4994 29.8161 81.925 29.4116 82.4258 29.3798C82.447 29.3779 82.4701 29.377 82.4932 29.377C82.7551 29.377 82.9939 29.4896 83.149 29.6851C83.3001 29.8777 83.3531 30.131 83.2934 30.3794L82.003 35.9665C81.9453 36.2159 81.7074 36.4037 81.4484 36.4037ZM82.4932 29.8873C82.4826 29.8873 82.472 29.8873 82.4614 29.8883C82.213 29.9047 81.9876 30.1117 81.9674 30.3418L81.4801 35.8808C81.4927 35.8721 81.5033 35.8606 81.5052 35.85L82.7956 30.2619C82.7956 30.261 82.7956 30.26 82.7965 30.26C82.8196 30.1627 82.8023 30.0703 82.7474 30C82.6896 29.9278 82.5991 29.8873 82.4932 29.8873Z" fill="#F5F5F5"/>
<path d="M81.2018 37.7019C81.5418 37.7019 81.8605 37.4352 81.9135 37.1068C81.9664 36.7775 81.7324 36.5117 81.3916 36.5117C81.0507 36.5117 80.7319 36.7785 80.679 37.1068C80.627 37.4362 80.86 37.7019 81.2018 37.7019Z" fill="#F5F5F5"/>
<path d="M81.2018 37.9574C80.9611 37.9574 80.7396 37.8592 80.5942 37.6887C80.4498 37.5193 80.3901 37.2978 80.4267 37.0667C80.4989 36.6122 80.9226 36.2559 81.3915 36.2559C81.6313 36.2559 81.8528 36.3541 81.9982 36.5245C82.1427 36.694 82.2024 36.9155 82.1658 37.1466C82.0926 37.6021 81.6698 37.9574 81.2018 37.9574ZM81.3915 36.7672C81.1749 36.7672 80.964 36.9415 80.9313 37.1476C80.9178 37.2304 80.9361 37.3026 80.9823 37.3575C81.0314 37.4153 81.1094 37.447 81.2009 37.447C81.4166 37.447 81.6275 37.2727 81.6602 37.0667C81.6737 36.9839 81.6554 36.9116 81.6092 36.8567C81.5601 36.799 81.483 36.7672 81.3915 36.7672Z" fill="#F5F5F5"/>
<path d="M80.9717 43.6387H80.4652H79.8316H72.7268H65.6211H64.4819L66.1103 45.8593H67.2504H74.3561H81.4609H82.0945H82.601L80.9717 43.6387Z" fill="#C0C0C0"/>
<path d="M82.601 46.0521H66.1103C66.0487 46.0521 65.9909 46.0232 65.9553 45.9731L64.3259 43.7525C64.2826 43.6938 64.2768 43.6167 64.3096 43.5512C64.3423 43.4867 64.4087 43.4453 64.481 43.4453H80.9707C81.0324 43.4453 81.0901 43.4742 81.1258 43.5243L82.7551 45.7458C82.7984 45.8046 82.8042 45.8816 82.7715 45.9471C82.7397 46.0116 82.6733 46.0521 82.601 46.0521ZM66.2085 45.6669H82.2207L80.8744 43.8305H64.8613L66.2085 45.6669Z" fill="#F5F5F5"/>
<path d="M76.0115 47.0278C76.0182 47.0144 76.025 47.0009 76.0317 46.9874C76.0365 46.9778 76.0413 46.9681 76.0461 46.9576C76.0654 46.9152 76.0827 46.8728 76.0991 46.8295C76.101 46.8237 76.103 46.8179 76.1049 46.8121C76.1222 46.763 76.1386 46.7139 76.1521 46.6638C76.1559 46.6494 76.1598 46.635 76.1636 46.6205C76.1781 46.5647 76.1906 46.5078 76.1992 46.4501L74.5699 44.2285C74.5603 44.2863 74.5478 44.3421 74.5343 44.399C74.5304 44.4134 74.5266 44.4278 74.5227 44.4423C74.5093 44.4924 74.4929 44.5424 74.4756 44.5906C74.4736 44.5964 74.4717 44.6021 74.4698 44.6079C74.4496 44.6618 74.4264 44.7139 74.4024 44.7659C74.3956 44.7793 74.3889 44.7928 74.3821 44.8063C74.361 44.8496 74.3378 44.892 74.3138 44.9334C74.308 44.943 74.3032 44.9527 74.2974 44.9623C74.2849 44.9825 74.2714 45.0018 74.2589 45.021C74.2329 45.0605 74.2069 45.1 74.179 45.1376C74.1607 45.1626 74.1404 45.1867 74.1212 45.2107C74.099 45.2377 74.0778 45.2647 74.0547 45.2916C74.0326 45.3176 74.0085 45.3417 73.9854 45.3658C73.9642 45.3879 73.944 45.4101 73.9218 45.4313C73.8958 45.4563 73.8698 45.4794 73.8429 45.5035C73.8217 45.5227 73.8005 45.542 73.7784 45.5603C73.7514 45.5824 73.7225 45.6036 73.6946 45.6248C73.6705 45.6431 73.6474 45.6614 73.6224 45.6787C73.5964 45.697 73.5704 45.7124 73.5434 45.7298C73.5135 45.749 73.4837 45.7693 73.4529 45.7866C73.4307 45.8001 73.4067 45.8107 73.3845 45.8232C73.345 45.8444 73.3046 45.8656 73.2641 45.8848C73.215 45.9079 73.165 45.9301 73.1139 45.9493C73.1139 45.9493 73.113 45.9493 73.113 45.9503C73.06 45.9705 73.0051 45.9879 72.9502 46.0052C72.929 46.0119 72.9078 46.0167 72.8857 46.0225C72.8472 46.0331 72.8087 46.0418 72.7692 46.0504C72.747 46.0553 72.7249 46.0601 72.7027 46.0639C72.6613 46.0716 72.6199 46.0774 72.5785 46.0822C72.5593 46.0841 72.539 46.087 72.5198 46.089C72.4581 46.0947 72.3965 46.0976 72.3349 46.0976C72.2357 46.0976 72.1413 46.088 72.0489 46.0745L70.695 44.2285C70.6863 44.2844 70.6805 44.3393 70.6767 44.3941C70.6757 44.4124 70.6757 44.4298 70.6747 44.4481C70.6738 44.4847 70.6718 44.5203 70.6728 44.5559C70.6738 44.5771 70.6757 44.5973 70.6767 44.6185C70.6786 44.6503 70.6805 44.6821 70.6844 44.7129C70.6873 44.7341 70.6901 44.7553 70.694 44.7764C70.6969 44.7957 70.6988 44.8159 70.7027 44.8352C70.7046 44.8467 70.7084 44.8573 70.7104 44.8689C70.7133 44.8843 70.7171 44.8987 70.721 44.9132C70.7296 44.9479 70.7393 44.9816 70.7499 45.0143C70.7537 45.0268 70.7576 45.0393 70.7614 45.0509C70.7633 45.0557 70.7643 45.0615 70.7662 45.0663C70.7701 45.0779 70.7768 45.0884 70.7807 45.1C70.7961 45.1404 70.8134 45.1799 70.8317 45.2184C70.8356 45.2261 70.8384 45.2348 70.8423 45.2435C70.8481 45.255 70.8558 45.2647 70.8616 45.2762C70.877 45.3051 70.8933 45.333 70.9116 45.361C70.9184 45.3716 70.9232 45.3831 70.9309 45.3927C70.9434 45.411 70.9559 45.4293 70.9694 45.4476L72.5987 47.6692C72.5987 47.6692 72.5987 47.6682 72.5978 47.6682L72.5987 47.6692C72.8905 48.0669 73.3768 48.3192 73.9642 48.3192C74.0258 48.3192 74.0875 48.3153 74.1491 48.3105C74.1684 48.3086 74.1886 48.3057 74.2078 48.3038C74.2493 48.299 74.2916 48.2932 74.3321 48.2855C74.3542 48.2816 74.3764 48.2768 74.3985 48.272C74.438 48.2633 74.4765 48.2547 74.515 48.2441C74.5362 48.2383 74.5574 48.2325 74.5795 48.2267C74.5911 48.2238 74.6017 48.221 74.6133 48.2171C74.6566 48.2036 74.6999 48.1882 74.7423 48.1719H74.7433C74.7856 48.1555 74.827 48.1381 74.8675 48.1198C74.8761 48.116 74.8848 48.1112 74.8935 48.1064C74.9349 48.0871 74.9744 48.0659 75.0138 48.0447C75.0312 48.0351 75.0495 48.0274 75.0668 48.0178C75.0716 48.0149 75.0774 48.011 75.0822 48.0081C75.113 47.9898 75.1429 47.9706 75.1727 47.9513C75.1949 47.9378 75.217 47.9253 75.2382 47.9099C75.243 47.907 75.2469 47.9032 75.2517 47.9003C75.2767 47.883 75.2998 47.8647 75.3239 47.8464C75.347 47.829 75.3701 47.8127 75.3923 47.7953C75.3971 47.7915 75.4019 47.7867 75.4067 47.7828C75.4289 47.7645 75.4501 47.7453 75.4713 47.726C75.4924 47.7077 75.5136 47.6904 75.5338 47.6711C75.5396 47.6653 75.5444 47.6596 75.5502 47.6547C75.5724 47.6336 75.5926 47.6114 75.6138 47.5893C75.6311 47.571 75.6504 47.5527 75.6677 47.5344C75.6735 47.5286 75.6783 47.5209 75.6841 47.5151C75.7072 47.4891 75.7284 47.4621 75.7505 47.4342C75.7659 47.4159 75.7813 47.3976 75.7958 47.3793C75.7996 47.3736 75.8035 47.3678 75.8073 47.362C75.8352 47.3244 75.8613 47.285 75.8873 47.2455C75.8978 47.2301 75.9094 47.2147 75.919 47.1983C75.921 47.1944 75.9238 47.1906 75.9258 47.1867C75.9315 47.1771 75.9364 47.1675 75.9421 47.1579C75.9672 47.1126 75.9903 47.0702 76.0115 47.0278Z" fill="#C0C0C0"/>
<path d="M73.9633 48.5116C73.3383 48.5116 72.7856 48.2477 72.4456 47.7865C72.4447 47.7855 72.4437 47.7836 72.4427 47.7826L70.8134 45.5611C70.799 45.5409 70.7845 45.5206 70.7701 45.4994C70.7633 45.4898 70.7576 45.4792 70.7518 45.4686C70.7287 45.432 70.7104 45.4003 70.693 45.3685C70.6834 45.3521 70.6767 45.3425 70.6719 45.3309C70.667 45.3223 70.6632 45.3126 70.6593 45.302C70.6391 45.2597 70.6199 45.2154 70.6025 45.1701C70.5948 45.1547 70.59 45.1431 70.5862 45.1316C70.5852 45.1287 70.5813 45.1171 70.5804 45.1143C70.5775 45.1046 70.5736 45.095 70.5707 45.0854L70.5669 45.0738C70.5553 45.0363 70.5438 44.9987 70.5341 44.9602C70.5303 44.9438 70.5264 44.9265 70.5226 44.9101C70.5178 44.8918 70.5159 44.8822 70.5139 44.8726C70.511 44.8571 70.5091 44.8408 70.5062 44.8254L70.5014 44.7946C70.4985 44.7753 70.4947 44.7551 70.4927 44.7349C70.4889 44.7002 70.486 44.6646 70.4841 44.6289L70.4831 44.6116C70.4821 44.5943 70.4812 44.5769 70.4802 44.5596C70.4793 44.5201 70.4802 44.4797 70.4821 44.4402V44.4229C70.4821 44.4084 70.4831 44.3949 70.4841 44.3805C70.4889 44.3169 70.4956 44.2563 70.5043 44.1975C70.5168 44.1205 70.5736 44.0589 70.6497 44.0406C70.7248 44.0223 70.8047 44.0511 70.85 44.1137L72.1548 45.8933C72.2781 45.9077 72.3724 45.9077 72.5015 45.8962C72.5121 45.8952 72.5217 45.8943 72.5323 45.8923L72.5544 45.8894C72.593 45.8846 72.6305 45.8798 72.6681 45.8731C72.6883 45.8692 72.7085 45.8654 72.7287 45.8615C72.7644 45.8538 72.8 45.8451 72.8356 45.8365L72.8453 45.8336C72.8616 45.8288 72.878 45.8249 72.8944 45.8201C72.9531 45.8028 72.9993 45.7874 73.0407 45.771C73.0417 45.77 73.0436 45.77 73.0446 45.7691C73.0908 45.7508 73.137 45.7306 73.1823 45.7094C73.2199 45.692 73.2564 45.6728 73.293 45.6526L73.3181 45.6391C73.3306 45.6323 73.3431 45.6256 73.3556 45.6188C73.3778 45.6063 73.3999 45.5919 73.4211 45.5774L73.4625 45.5514C73.4789 45.5409 73.4953 45.5312 73.5116 45.5197C73.527 45.5091 73.5424 45.4975 73.5569 45.486L73.5954 45.4571C73.6156 45.4417 73.6359 45.4263 73.6551 45.4108C73.6686 45.3993 73.6821 45.3877 73.6956 45.3752L73.7225 45.3511C73.7447 45.3319 73.7659 45.3126 73.787 45.2924C73.8024 45.278 73.8159 45.2626 73.8304 45.2481L73.8448 45.2327C73.8708 45.2057 73.8901 45.1855 73.9093 45.1643C73.9276 45.1441 73.944 45.1229 73.9613 45.1017L73.9835 45.0748C73.997 45.0584 74.0105 45.0411 74.0239 45.0237C74.0499 44.9891 74.073 44.9525 74.0971 44.9169L74.1145 44.8899C74.1202 44.8812 74.127 44.8726 74.1318 44.8629L74.1462 44.8369C74.1684 44.7984 74.1896 44.7599 74.2088 44.7204L74.2271 44.6828C74.2522 44.6308 74.2714 44.5837 74.2878 44.5394C74.2887 44.5374 74.2926 44.5259 74.2936 44.523C74.3099 44.4787 74.3234 44.4334 74.3359 44.3882C74.3398 44.3747 74.3427 44.3622 74.3465 44.3487C74.3619 44.29 74.3716 44.2408 74.3793 44.1956C74.3918 44.1186 74.4486 44.0569 74.5247 44.0386C74.5998 44.0203 74.6787 44.0492 74.725 44.1118L76.3543 46.3334C76.3851 46.3748 76.3976 46.4268 76.389 46.4778C76.3793 46.5356 76.3668 46.5943 76.3495 46.6646C76.3456 46.68 76.3408 46.6964 76.337 46.7128C76.3206 46.7706 76.3042 46.8235 76.285 46.8755L76.2782 46.8948C76.2599 46.942 76.2416 46.9891 76.2205 47.0354C76.2166 47.044 76.2127 47.0517 76.2089 47.0594L76.2041 47.0681C76.1993 47.0797 76.1925 47.0912 76.1867 47.1037L76.0105 47.0257L76.1829 47.1114C76.1598 47.1586 76.1347 47.2049 76.1087 47.2501L76.1039 47.2588C76.1001 47.2665 76.0953 47.2742 76.0904 47.2819L76.0837 47.2944C76.076 47.3069 76.0673 47.3194 76.0587 47.331L76.049 47.3454C76.0211 47.3888 75.9932 47.4311 75.9624 47.4726C75.9585 47.4783 75.9547 47.4851 75.9489 47.4918C75.9383 47.5053 75.9267 47.5188 75.9162 47.5323L75.8921 47.5611C75.8719 47.5871 75.8507 47.6131 75.8285 47.6372C75.8218 47.6449 75.817 47.6517 75.8112 47.6584C75.7987 47.6729 75.7852 47.6863 75.7717 47.6998L75.7399 47.7326C75.7216 47.7518 75.7033 47.7711 75.6841 47.7894C75.6773 47.7971 75.6716 47.8019 75.6658 47.8077C75.6504 47.8221 75.635 47.8356 75.6196 47.8491L75.581 47.8828C75.5637 47.8982 75.5464 47.9136 75.529 47.928C75.5233 47.9329 75.5184 47.9377 75.5136 47.9415C75.4973 47.955 75.4799 47.9675 75.4626 47.98L75.4202 48.0118C75.401 48.0263 75.3817 48.0417 75.3615 48.0551C75.3576 48.058 75.3528 48.0619 75.347 48.0657C75.3316 48.0763 75.3153 48.0869 75.2989 48.0966L75.2585 48.1216C75.2325 48.1389 75.2055 48.1553 75.1785 48.1717C75.1737 48.1746 75.1679 48.1784 75.1612 48.1823C75.1487 48.19 75.1342 48.1967 75.1207 48.2034L75.1044 48.2121C75.061 48.2352 75.0187 48.2574 74.9744 48.2786C74.9638 48.2843 74.9551 48.2891 74.9464 48.293C74.9031 48.3123 74.8588 48.3315 74.8145 48.3479C74.8136 48.3479 74.8126 48.3489 74.8107 48.3489C74.7644 48.3662 74.7182 48.3826 74.671 48.398C74.6614 48.4009 74.6527 48.4037 74.6431 48.4057C74.6133 48.4143 74.593 48.4201 74.5719 48.4249C74.5227 48.4384 74.4804 48.448 74.438 48.4567C74.4139 48.4615 74.3899 48.4663 74.3658 48.4711C74.3205 48.4789 74.2753 48.4856 74.23 48.4904L74.2107 48.4923C74.1953 48.4943 74.1809 48.4962 74.1655 48.4971C74.0923 48.5077 74.0268 48.5116 73.9633 48.5116ZM72.7557 47.5573C73.0263 47.9203 73.4645 48.1264 73.9642 48.1264C74.0153 48.1264 74.0702 48.1235 74.1318 48.1177C74.1414 48.1168 74.152 48.1158 74.1626 48.1139L74.1857 48.111C74.2233 48.1062 74.2618 48.1014 74.2993 48.0946C74.3196 48.0908 74.3398 48.0869 74.36 48.0831C74.3956 48.0754 74.4313 48.0667 74.4659 48.058C74.491 48.0513 74.5073 48.0465 74.5247 48.0417L74.5468 48.0359C74.595 48.0214 74.6335 48.008 74.672 47.9926C74.6759 47.9906 74.6797 47.9897 74.6826 47.9887C74.7134 47.9771 74.751 47.9608 74.7885 47.9444C74.7972 47.9396 74.8039 47.9357 74.8116 47.9329C74.8492 47.9155 74.8858 47.8963 74.9224 47.876C74.932 47.8703 74.9426 47.8654 74.9522 47.8606C74.958 47.8577 74.9647 47.8549 74.9705 47.851C74.9744 47.8481 74.9802 47.8452 74.9859 47.8414C75.0071 47.8289 75.0283 47.8154 75.0495 47.8019L75.0986 47.7711C75.1092 47.7653 75.1188 47.7586 75.1284 47.7518L75.141 47.7431C75.1564 47.7326 75.1718 47.721 75.1862 47.7094L75.2363 47.6719C75.2479 47.6632 75.2604 47.6546 75.271 47.6459C75.2739 47.644 75.2825 47.6363 75.2844 47.6334C75.2979 47.6228 75.3105 47.6103 75.3239 47.5987L75.3692 47.5592C75.3798 47.5496 75.3913 47.5409 75.401 47.5313C75.4067 47.5255 75.4106 47.5207 75.4154 47.5159C75.4308 47.5014 75.4453 47.486 75.4597 47.4706L75.4982 47.4311C75.5069 47.4225 75.5156 47.4138 75.5242 47.4051C75.529 47.3984 75.5339 47.3926 75.5387 47.3878C75.557 47.3666 75.5743 47.3454 75.5907 47.3243L75.5993 47.3137C75.6061 47.305 75.6138 47.2963 75.6215 47.2867C75.6282 47.279 75.635 47.2713 75.6407 47.2626C75.6436 47.2588 75.6475 47.253 75.6513 47.2472C75.6773 47.2116 75.7014 47.176 75.7245 47.1394C75.7303 47.1297 75.737 47.1211 75.7428 47.1124C75.7467 47.1076 75.7505 47.1018 75.7534 47.097L75.7746 47.0604C75.7967 47.0219 75.8179 46.9834 75.8372 46.9449C75.8382 46.9439 75.841 46.9362 75.841 46.9362L75.869 46.8803C75.8863 46.8428 75.9017 46.8043 75.9162 46.7648L75.9219 46.7474C75.9373 46.7041 75.9518 46.6598 75.9643 46.6146C75.9682 46.6011 75.971 46.5886 75.9749 46.5751C75.9816 46.5471 75.9884 46.5221 75.9932 46.498L74.6518 44.6684L74.6489 44.678C74.6287 44.731 74.6046 44.7878 74.5757 44.8504L74.5574 44.888C74.5304 44.9409 74.5064 44.9871 74.4794 45.0334L74.4621 45.0642C74.4524 45.0796 74.4428 45.094 74.4332 45.1085L74.4207 45.1277C74.3927 45.1711 74.3648 45.2134 74.334 45.2548C74.3176 45.277 74.3013 45.2982 74.2839 45.3184L74.2627 45.3444C74.2425 45.3704 74.2213 45.3954 74.1992 45.4205C74.177 45.4455 74.153 45.4706 74.1299 45.4946L74.1096 45.5158C74.0913 45.5351 74.074 45.5534 74.0547 45.5717C74.0297 45.5957 74.0037 45.6189 73.9777 45.642L73.9527 45.6641C73.9353 45.6795 73.918 45.6949 73.8997 45.7103C73.8756 45.7306 73.8506 45.7489 73.8256 45.7671L73.7899 45.7941C73.7707 45.8086 73.7514 45.824 73.7312 45.8374C73.71 45.8519 73.6888 45.8654 73.6676 45.8789L73.6301 45.9029C73.6031 45.9203 73.5762 45.9376 73.5492 45.953C73.5319 45.9636 73.5136 45.9723 73.4962 45.9819L73.475 45.9934C73.4327 46.0166 73.3893 46.0387 73.345 46.0599C73.2921 46.0849 73.2391 46.108 73.1852 46.1292C73.1813 46.1311 73.1775 46.1321 73.1736 46.134C73.1303 46.1504 73.0744 46.1697 73.0051 46.1899C72.9849 46.1957 72.9656 46.2014 72.9454 46.2063L72.9358 46.2091C72.8934 46.2207 72.851 46.2303 72.8087 46.239C72.7846 46.2438 72.7605 46.2486 72.7364 46.2534C72.6912 46.2611 72.6459 46.2679 72.6007 46.2727L72.5824 46.2746C72.567 46.2766 72.5516 46.2785 72.5362 46.2804C72.3493 46.2968 72.2116 46.2929 72.02 46.265C71.969 46.2573 71.9237 46.2303 71.8929 46.188L70.9001 44.834C70.903 44.8446 70.9049 44.8562 70.9078 44.8668C70.9155 44.8966 70.9241 44.9265 70.9328 44.9554L70.9434 44.9881C70.9444 44.991 70.9473 45.0006 70.9482 45.0035C70.953 45.0131 70.9569 45.0218 70.9607 45.0314C70.9742 45.0661 70.9887 45.1008 71.006 45.1345C71.0099 45.1422 71.0137 45.1508 71.0166 45.1586C71.0233 45.1682 71.0272 45.1759 71.032 45.1846C71.0455 45.2096 71.0599 45.2346 71.0753 45.2587C71.0802 45.2664 71.085 45.2751 71.0898 45.2828C71.1023 45.303 71.1139 45.3184 71.1254 45.3348L72.7519 47.5525C72.7528 47.5534 72.7538 47.5554 72.7557 47.5573Z" fill="#F5F5F5"/>
<path d="M74.5709 44.2285C74.4062 45.2598 73.4057 46.0967 72.3349 46.0976C71.265 46.0976 70.5303 45.2598 70.695 44.2285H72.6324H74.5709Z" fill="#C0C0C0"/>
<path d="M72.3349 46.2895C71.7513 46.2895 71.239 46.0651 70.8914 45.6587C70.5544 45.2639 70.4167 44.7449 70.5043 44.1979C70.5187 44.1045 70.5996 44.0352 70.695 44.0352H74.5709C74.6277 44.0352 74.6807 44.0602 74.7173 44.1026C74.7539 44.1459 74.7702 44.2017 74.7606 44.2576C74.5824 45.3775 73.4933 46.2895 72.3349 46.2895ZM70.8673 44.4203C70.8452 44.793 70.955 45.1397 71.1851 45.4083C71.4576 45.728 71.8659 45.9043 72.3349 45.9043C73.2343 45.9043 74.0827 45.2562 74.3302 44.4203H70.8673Z" fill="#F5F5F5"/>
</svg>
